<svg xmlns="http://www.w3.org/2000/svg" width="45" height="48" viewBox="0 0 45 48"><defs><clipPath id="efova"><path d="M0 .802v39.604h33.358V.803H0z"/></clipPath></defs><g><g><g><g/><g clip-path="url(#efova)"><path fill="#484848" d="M33.197 19.983l-4.943 3.096-8.117 15.642-.055.106-.113.046-3.66 1.466-.167.067-.145-.105-.947-.687a184.767 184.767 0 0 1-4.689-3.523c-1.704-1.333-3.173-2.581-3.364-3.059C6.592 32.016.126 19.26.107 19.223l-.005-.011L.1 19.21c-.008-.017-.326-1.265.215-1.94 0 0 19.066-16.203 19.362-16.337.7-.32 1.509.044 1.512.046 0 0 9.762 5.938 11.487 7.029.812.513.673 1.669.673 1.669v10.028h-.324z"/></g></g><g><path fill="#fdfeff" d="M12.32 25.98c-.499-.165-2.477-1.408-3.043-1.754-.957-.583-2.89-1.303-1.425-2.51a73.701 73.701 0 0 0 2.639-2.264c2.81-2.557 2.587-2.1 6.154.056 2.498 1.51 2.704 1.304.14 3.689l-1.297 1.153c-.67.546-1.8 2.082-3.167 1.63"/></g><g><path fill="#ffdc00" d="M5.355 21.662c-.701-.298-2.091-1.465-2.755-1.955-1.841-1.359-2.633-1.401.214-3.679 1.48-1.183 3.131-3.248 4.47-2.623l2.788 1.912c1.318.912 2.244 1.161.852 2.542l-3.78 3.36c-.4.338-1.068.75-1.789.443"/></g><g><path fill="#ffdc00" d="M12.393 15.247c-.873-.44-1.911-1.243-2.77-1.834-1.032-.71-2.346-1.229-.872-2.425l3.73-3.198c1.41-1.146 2.762.357 4.572 1.49 1.957 1.227 2.24 1.394-.366 3.47-1.378 1.097-2.896 3.201-4.294 2.497"/></g><g><path fill="#ffdc00" d="M23.41 17.31c-.944.454-3.013.865-3.576 1.455.019.576.167.588.58.838-1.491-.037-.85.15-2.831-1.046-2.982-1.8-4.098-1.76-1.659-3.796.75-.627 1.413-1.313 2.165-1.883.652-.494 1.355-1.584 2.75-1.103.493.169 2.055 1.184 2.561 1.485 1.821 1.082 3.03 1.388 1.06 3.013-.219.18-.292.267-.496.462-.134.127-.178.149-.282.249-.023.023-.092.09-.114.114-.142.16-.034 0-.158.212"/></g><g><path fill="#fdfeff" d="M26.292 13.484c-.47-.13-3.572-1.978-4.29-2.453-1.353-.898.521-1.936 1.7-2.986.278-.247.331-.326.623-.547.25-.19.316-.298.558-.507.257-.22.393-.292.642-.532 1.388-1.332 2.766-.064 4.601 1.035 2.634 1.578 2.465 1.465.28 3.429-.206.185-.314.344-.534.53l-1.812 1.6c-.43.42-1.048.63-1.768.431"/></g><g><path fill="#ffdc00" d="M19.224 9.153c-.978-.481-1.848-1.114-2.73-1.662-.983-.611-2.353-1.116-.979-2.308a174.52 174.52 0 0 1 2.365-2.007c.65-.544 1.663-1.859 3.048-1.3.617.248 2.065 1.22 2.747 1.62 1.31.77 2.492 1.155.247 2.853-1.461 1.104-3.131 3.573-4.698 2.804"/></g><g><path fill="#1da5d9" d="M13.852 32.295c-.614-.034-3.787-2.176-4.35-2.656-.828-.705-1.247-2.293-1.696-3.532-.765-2.11-.22-1.62 1.957-.252 1.914 1.205 3.234 1.592 3.589 3.46.117.617.563 2.458.5 2.98"/></g><g><path fill="#1da5d9" d="M5.646 23.263c.732.905.827 1.35 1.215 2.419.226.622.898 2.21.94 2.798-.597-.108-3.486-2.461-4.065-3.3-.284-.41-2.496-4.788-2.295-4.99.468-.468 4.01 2.833 4.205 3.073"/></g><g><path fill="#1da5d9" d="M9.4 30.407c.67-.073 2.867 1.62 3.483 2.03.482.32 1.18.871 1.352 1.43.121.392.428 1.981.432 2.373-.496-.053-2.764-1.74-3.344-2.133-.685-.465-.889-.648-1.209-1.563-.231-.66-.632-1.551-.713-2.137"/></g><g><path fill="#fdfeff" d="M4.607 26.775c.418.151 2.526 1.874 3.027 2.283.782.64 1.56 2.459 1.725 3.566-.43-.07-2.665-1.905-3.007-2.282-.349-.383-1.743-2.891-1.745-3.567"/></g><g><path fill="#1da5d9" d="M10.8 34.365c.518-.025 3.659 2.255 3.998 2.766.26.392.396 1.375.409 1.924-.491-.05-2.22-1.448-2.746-1.821-.98-.693-1.335-1.331-1.662-2.869"/></g><g><path fill="#fdfeff" d="M6.626 31.058c.447.132 1.839 1.372 2.358 1.767.495.376.677.5.91 1.1.155.397.491 1.209.527 1.557-.345-.039-2.035-1.448-2.344-1.748-.333-.325-.568-.7-.807-1.21-.195-.413-.575-1.008-.644-1.467"/></g><g><path fill="#484848" d="M18.584 19.308s0-.007.003-.017l.047-.246h.031a2.1 2.1 0 0 1 1.282-1.237c.86-.3 2.798-.99 5.076-1.802 4.758-1.694 11.01-3.92 12.503-4.385h.002c.417-.13.887-.115 1.09-.01.205.102 5.46 2.766 6.032 3.338.608.61.196 1.766.18 1.808l-.014.05c-.344 1.133-5.065 16.74-5.835 19.524-.167.606-.738 1.22-.738 1.22l-16.984 9.666s-.164.12-.497.12c-.33 0-.55-.118-.55-.118s-6.018-3.106-6.018-3.77c0-.979 4.376-24.07 4.39-24.139z"/></g><g><path fill="#21a4d8" d="M22.968 29.91c-.48-.159-2.096-1.247-2.612-1.556-2.926-1.75-2.574-1.5-1.817-5.52.186-.987.181-3.099 1.511-2.619.46.166 2.08 1.22 2.63 1.546.778.46 2.054.978 2.285 1.954.163.695-.642 4.195-.857 5.303-.126.65-.381 1.143-1.14.892"/></g><g><path fill="#fdfeff" d="M21.317 38.074c-.835-.392-1.837-1.077-2.62-1.56-2.937-1.81-2.46-1.484-1.726-5.46.172-.927.153-2.988 1.452-2.472.652.26 1.901 1.148 2.597 1.554 2.912 1.698 2.569 1.445 1.778 5.477-.193.977-.22 3.054-1.48 2.461"/></g><g><path fill="#fdfeff" d="M19.87 46.269c-.942-.446-2.782-1.677-3.873-2.351-1.665-1.029-1.178-1.634-.621-4.547.767-4.021.349-3.138 5.242-.293 1.694.984 1.099 2.233.578 4.646-.198.917-.257 3.05-1.326 2.545"/></g><g><path fill="#dc1414" d="M25.002 30.528c-.53-.36.213-2.67.363-3.335.812-3.597.505-3.703 3.45-4.849.47-.182 2.73-1.202 3.08-.984.584.368-1.178 6.134-1.402 6.494-.541.871-1.523 1.124-2.562 1.603-.507.235-2.532 1.34-2.929 1.07"/></g><g><path fill="#fdfeff" d="M25.707 22.192c-1.09-.196-2.069-.897-2.914-1.405-3.37-2.026-4.163-1.87-.391-3.166 3.63-1.247 2.925-1.388 6.29.463 3.814 2.098 3.493 1.891.192 3.264-.904.376-2.07 1.043-3.177.844"/></g><g><path fill="#21a4d8" d="M23.053 38.706c-.342-.372.773-5.416 1.446-6.293.646-.838 5.023-2.804 5.352-2.483.338.332-.44 2.716-.567 3.227-.262 1.06-.422 2.275-1.07 2.978-.464.505-.437.482-1.116.795-.796.368-3.707 2.144-4.045 1.776"/></g><g><path fill="#dc1414" d="M31.869 27.382c-.413-.4.34-2.536.487-3.102.199-.768.51-2.356.855-2.982.559-1.019 1.142-1.125 2.276-1.568.448-.176 2.541-1.17 2.853-.86.352.35-1.17 5.426-1.461 5.988-.497.964-1.156 1.078-2.257 1.581-.707.323-2.403 1.283-2.753.943"/></g><g><path fill="#ffdc00" d="M27.35 16.095c.312-.534 1.939-.93 2.68-1.194 2.822-1.003 2.498-.795 5.54.878.463.254.797.46 1.229.69 2.06 1.103.954 1.21-1.42 2.197-2.753 1.144-2.719.792-5.709-.927-.674-.387-2.1-.94-2.32-1.644"/></g><g><path fill="#21a4d8" d="M27.904 37.756c.21.52-.4 2.448-.555 3.056-.26 1.024-.472 2.15-1.046 2.799-.378.43-1.663 1.104-2.347 1.484-.41.228-2.182 1.447-2.602 1.215-.454-.25-.05-1.138.038-1.54 1.036-4.688.595-4.167 3.727-5.868.543-.295 2.072-1.302 2.785-1.146"/></g><g><path fill="#dc1414" d="M36.148 27.026c.128.763-1.189 5.173-1.59 5.76-.52.76-1.26.987-2.243 1.492-3.145 1.618-2.966 1.669-2.016-2.009.782-3.028.51-3.135 3.158-4.313.551-.247 2.059-1.203 2.691-.93"/></g><g><path fill="#dc1414" d="M38.025 24.728c-.386-.604.237-2.004.45-2.75.252-.878.5-1.983.8-2.818.382-1.057.905-1.273 1.945-1.68 3.39-1.324 3.327-1.653 2.242 1.805-.959 3.054-.52 3.39-2.82 4.443-.565.258-2.07 1.057-2.617 1"/></g><g><path fill="#21a4d8" d="M27.862 42.55c-.247-.2.919-4.836 1.489-5.592.507-.672 1.416-.976 2.215-1.406.392-.21 2.136-1.279 2.418-1.008.308.294-.428 2.364-.567 2.861-.79 2.835-.461 2.578-3.14 4.103-.432.247-2.035 1.35-2.415 1.041"/></g><g><path fill="#fdfeff" d="M33.863 13.59c.459-.303 1.823-.694 2.522-.955 2.177-.811 2.434-.482 5.046.995.417.237.717.41 1.17.634.46.227.96.568.96.864 0 .296-1.728.86-2.392 1.13-1.075.44-1.583.787-2.882.203-.752-.337-1.644-.894-2.34-1.283-1.088-.609-2-.88-2.084-1.589"/></g><g><path fill="#21a4d8" d="M41.693 24.372c.212.606-1.3 5.081-1.457 5.356-.505.883-1.04 1.012-1.996 1.508-.512.264-1.901 1.07-2.414 1.034-.293-.62.318-2.014.512-2.7.865-3.056.579-3.206 2.833-4.227.558-.253 1.965-1.09 2.522-.971"/></g><g><path fill="#21a4d8" d="M33.742 39.28c-.097-.594 1.11-4.715 1.442-5.227.674-1.039 4.064-2.543 4.27-2.427.354.202-.019.907-.123 1.252-.123.406-.27.86-.401 1.297-.233.781-.487 1.949-.858 2.554-.458.747-3.542 2.588-4.33 2.552"/></g></g></g></svg>