<svg xmlns="http://www.w3.org/2000/svg" width="146" height="40" viewBox="0 0 146 40"><defs><clipPath id="181qa"><path d="M0 .669V33.67h27.76V.67H0z"/></clipPath></defs><g><g><g><g><g/><g clip-path="url(#181qa)"><path fill="#484848" d="M27.626 16.653l-4.114 2.58-6.755 13.034-.046.089-.093.038-3.046 1.222-.14.055-.12-.087-.788-.572c-.92-.672-2.5-1.838-3.902-2.936-1.418-1.111-2.64-2.151-2.8-2.55C5.487 26.681.105 16.051.09 16.02l-.004-.01H.083c-.006-.015-.27-1.055.179-1.618 0 0 15.866-13.502 16.113-13.614.582-.266 1.255.037 1.258.039 0 0 8.124 4.948 9.559 5.857.676.428.56 1.39.56 1.39v8.358h-.27z"/></g></g><g><path fill="#fdfeff" d="M10.253 21.65c-.416-.137-2.062-1.173-2.533-1.461-.797-.486-2.404-1.086-1.186-2.092A61.359 61.359 0 0 0 8.73 16.21c2.339-2.13 2.153-1.75 5.122.047 2.079 1.258 2.25 1.086.116 3.074l-1.08.96c-.557.456-1.497 1.736-2.635 1.36"/></g><g><path fill="#ffdc00" d="M4.457 18.052c-.584-.249-1.741-1.221-2.294-1.63-1.532-1.132-2.19-1.167.178-3.065 1.232-.986 2.607-2.707 3.72-2.186l2.32 1.593c1.098.76 1.868.968.71 2.118l-3.146 2.8c-.333.282-.888.625-1.488.37"/></g><g><path fill="#ffdc00" d="M10.313 12.706c-.727-.366-1.59-1.036-2.305-1.528-.859-.592-1.952-1.024-.726-2.021l3.105-2.665c1.173-.955 2.298.297 3.804 1.242 1.628 1.022 1.864 1.16-.304 2.89-1.147.915-2.41 2.669-3.574 2.082"/></g><g><path fill="#ffdc00" d="M19.481 14.425c-.785.379-2.507.72-2.976 1.213.016.48.14.49.483.698-1.24-.031-.708.125-2.356-.872-2.481-1.5-3.41-1.466-1.38-3.163.624-.523 1.176-1.094 1.802-1.57.542-.411 1.127-1.32 2.288-.919.41.141 1.71.987 2.13 1.238 1.516.902 2.523 1.157.882 2.511-.18.15-.242.223-.412.385-.112.106-.148.124-.235.207l-.095.095c-.117.134-.028 0-.13.177"/></g><g><path fill="#fdfeff" d="M21.88 11.237c-.392-.109-2.973-1.649-3.57-2.045-1.127-.748.433-1.612 1.414-2.488.231-.206.276-.271.519-.456.208-.158.262-.248.464-.422.214-.183.327-.244.534-.443 1.155-1.11 2.302-.054 3.829.862 2.192 1.315 2.052 1.221.233 2.857-.171.155-.26.288-.444.442l-1.508 1.333c-.358.35-.872.525-1.471.36"/></g><g><path fill="#ffdc00" d="M15.998 7.627c-.814-.4-1.538-.928-2.272-1.384-.818-.51-1.958-.93-.815-1.924.637-.553 1.293-1.106 1.968-1.672.541-.454 1.384-1.55 2.537-1.084.513.207 1.718 1.018 2.286 1.35 1.09.642 2.073.963.206 2.378-1.217.92-2.607 2.978-3.91 2.336"/></g><g><path fill="#1da5d9" d="M11.527 26.912c-.51-.028-3.151-1.813-3.62-2.213-.689-.587-1.037-1.91-1.411-2.943-.637-1.758-.183-1.35 1.628-.21 1.593 1.004 2.692 1.326 2.987 2.882.098.516.469 2.05.416 2.484"/></g><g><path fill="#1da5d9" d="M4.699 19.386c.609.754.688 1.124 1.01 2.015.189.52.748 1.843.783 2.332-.497-.09-2.9-2.05-3.383-2.75-.237-.342-2.077-3.99-1.91-4.158.39-.39 3.338 2.361 3.5 2.561"/></g><g><path fill="#1da5d9" d="M7.823 25.34c.557-.061 2.385 1.349 2.898 1.69.401.267.981.727 1.125 1.192.1.327.356 1.651.36 1.978-.413-.044-2.3-1.45-2.783-1.777-.57-.388-.74-.54-1.006-1.303-.193-.55-.526-1.293-.594-1.78"/></g><g><path fill="#fdfeff" d="M3.834 22.313c.348.126 2.102 1.562 2.519 1.902.65.533 1.298 2.049 1.436 2.972-.358-.058-2.218-1.588-2.503-1.902-.29-.32-1.45-2.41-1.452-2.972"/></g><g><path fill="#1da5d9" d="M8.987 28.638c.432-.022 3.045 1.878 3.328 2.304.216.327.329 1.146.34 1.604-.409-.042-1.847-1.207-2.286-1.518-.814-.577-1.11-1.109-1.382-2.39"/></g><g><path fill="#fdfeff" d="M5.514 25.881c.372.11 1.53 1.144 1.962 1.473.412.313.563.417.758.917.129.33.408 1.007.438 1.298-.287-.033-1.693-1.207-1.95-1.458-.278-.27-.473-.583-.673-1.008-.162-.344-.478-.84-.535-1.222"/></g><g><path fill="#484848" d="M15.465 16.09s0-.005.003-.014l.039-.205h.026c.113-.292.4-.8 1.066-1.031.715-.25 2.33-.825 4.225-1.501 3.96-1.412 9.162-3.267 10.404-3.655h.001c.348-.109.739-.095.908-.009.17.086 4.544 2.306 5.02 2.783.505.508.163 1.471.15 1.506l-.013.041c-.285.945-4.214 13.95-4.855 16.27-.14.506-.614 1.018-.614 1.018L17.69 39.347s-.136.1-.413.1c-.276 0-.458-.098-.458-.098s-5.008-2.588-5.008-3.142c0-.815 3.642-20.058 3.653-20.115z"/></g><g><path fill="#21a4d8" d="M19.113 24.925c-.399-.133-1.744-1.04-2.173-1.297-2.435-1.458-2.142-1.25-1.512-4.6.154-.822.15-2.582 1.257-2.182.382.138 1.73 1.017 2.189 1.288.647.384 1.709.815 1.901 1.628.136.58-.534 3.496-.713 4.42-.105.541-.317.952-.949.743"/></g><g><path fill="#fdfeff" d="M17.74 31.729c-.696-.328-1.529-.898-2.181-1.301-2.444-1.508-2.047-1.237-1.436-4.55.143-.772.127-2.49 1.208-2.06.543.217 1.582.957 2.16 1.295 2.424 1.416 2.139 1.204 1.48 4.564-.16.815-.182 2.546-1.231 2.052"/></g><g><path fill="#fdfeff" d="M16.536 38.558c-.784-.372-2.316-1.398-3.224-1.96-1.385-.857-.98-1.361-.517-3.788.639-3.352.29-2.616 4.363-.245 1.41.82.914 1.861.48 3.872-.164.764-.213 2.542-1.103 2.12"/></g><g><path fill="#dc1414" d="M20.806 25.44c-.441-.3.177-2.226.302-2.779.676-2.998.42-3.086 2.871-4.04.39-.153 2.272-1.003 2.563-.82.486.305-.98 5.11-1.166 5.41-.45.727-1.268.937-2.132 1.337-.423.195-2.108 1.116-2.438.892"/></g><g><path fill="#fdfeff" d="M21.392 18.493c-.906-.163-1.721-.747-2.425-1.17-2.804-1.689-3.464-1.559-.325-2.639 3.02-1.04 2.434-1.157 5.234.386 3.175 1.748 2.908 1.576.16 2.72-.752.313-1.723.87-2.644.703"/></g><g><path fill="#21a4d8" d="M19.184 32.255c-.284-.31.644-4.513 1.204-5.244.537-.699 4.18-2.337 4.453-2.07.282.277-.367 2.264-.472 2.69-.218.883-.351 1.895-.89 2.481-.386.421-.363.402-.929.663-.662.307-3.085 1.787-3.366 1.48"/></g><g><path fill="#dc1414" d="M26.52 22.819c-.343-.334.284-2.114.406-2.586.165-.64.424-1.963.711-2.485.465-.849.95-.937 1.894-1.307.373-.146 2.115-.975 2.374-.716.293.291-.974 4.522-1.216 4.99-.413.804-.961.898-1.877 1.318-.589.269-2 1.069-2.292.786"/></g><g><path fill="#ffdc00" d="M22.76 13.413c.26-.445 1.613-.776 2.23-.996 2.349-.835 2.08-.662 4.61.732.386.212.664.383 1.023.575 1.715.92.794 1.008-1.182 1.831-2.29.954-2.262.66-4.75-.772-.561-.323-1.748-.784-1.932-1.37"/></g><g><path fill="#21a4d8" d="M23.221 31.464c.174.433-.334 2.04-.462 2.546-.216.853-.392 1.791-.87 2.332-.315.358-1.385.92-1.953 1.237-.342.19-1.816 1.206-2.166 1.013-.377-.208-.042-.949.032-1.284.862-3.906.495-3.472 3.102-4.89.451-.246 1.724-1.085 2.317-.954"/></g><g><path fill="#dc1414" d="M30.081 22.522c.107.635-.989 4.31-1.322 4.8-.434.633-1.049.822-1.867 1.243-2.618 1.348-2.468 1.39-1.678-1.674.65-2.524.425-2.612 2.628-3.594.459-.206 1.713-1.003 2.24-.775"/></g><g><path fill="#dc1414" d="M31.644 20.606c-.322-.503.197-1.669.374-2.291.21-.731.416-1.653.666-2.348.318-.881.753-1.061 1.618-1.4 2.82-1.104 2.769-1.378 1.866 1.504-.798 2.545-.433 2.825-2.347 3.702-.47.215-1.723.881-2.177.833"/></g><g><path fill="#21a4d8" d="M23.186 35.458c-.205-.167.764-4.03 1.239-4.66.422-.56 1.178-.813 1.843-1.171.327-.175 1.778-1.066 2.013-.84.256.245-.357 1.97-.473 2.384-.657 2.362-.383 2.148-2.613 3.42-.359.205-1.693 1.123-2.01.867"/></g><g><path fill="#fdfeff" d="M28.18 11.324c.381-.252 1.517-.578 2.099-.795 1.81-.676 2.025-.401 4.198.83.348.197.597.34.974.528.382.189.8.473.8.72 0 .246-1.439.717-1.991.942-.895.365-1.318.655-2.399.169-.626-.282-1.368-.746-1.947-1.07-.906-.507-1.665-.732-1.734-1.324"/></g><g><path fill="#21a4d8" d="M34.696 20.31c.176.505-1.083 4.234-1.213 4.464-.42.735-.865.842-1.661 1.256-.426.22-1.582.892-2.008.862-.245-.518.264-1.679.426-2.251.719-2.546.481-2.671 2.357-3.522.465-.21 1.635-.909 2.099-.81"/></g><g><path fill="#21a4d8" d="M28.079 32.734c-.08-.495.923-3.93 1.2-4.357.561-.865 3.382-2.119 3.553-2.022.295.168-.015.756-.102 1.044-.102.338-.225.716-.334 1.08-.194.651-.405 1.624-.714 2.128-.381.623-2.947 2.157-3.603 2.127"/></g></g><g><path fill="#6b6b6b" d="M139.98 23.174c1.772 0 2.925-1.377 2.925-3.174 0-1.812-1.153-3.174-2.925-3.174-1.772 0-2.91 1.362-2.91 3.174 0 1.797 1.138 3.174 2.91 3.174zm0 1.826c-2.895 0-5.013-2.087-5.013-5s2.118-5 5.013-5c2.91 0 5.028 2.087 5.028 5s-2.118 5-5.028 5zm-12.195-5.414c.821 0 1.44-.494 1.44-1.307 0-.814-.619-1.308-1.44-1.308h-2.146v2.615zm3.587 5.234h-2.348l-1.887-3.433h-1.498v3.433h-2.046v-9.66h4.495c2.002 0 3.227 1.317 3.227 3.113 0 1.71-1.066 2.622-2.104 2.868zm-15.115-5.234c.808 0 1.414-.508 1.414-1.307 0-.814-.606-1.308-1.414-1.308h-2.18v2.615zm-2.18 5.234h-2.045v-9.66h4.495c2.088 0 3.226 1.419 3.226 3.113 0 1.68-1.152 3.114-3.226 3.114h-2.45zm-17.431-1.806c1.901 0 3.01-1.376 3.01-3.014 0-1.71-1.037-3.029-3.01-3.029h-1.743v6.043zm.002 1.806h-3.79v-9.66h3.79c3.013 0 5.103 1.926 5.103 4.837 0 2.911-2.09 4.823-5.103 4.823zm-8.265 0H86.41l-4.58-6.3v6.3h-2.046v-9.66h2.103l4.45 6.068v-6.069h2.046zm-12.777 0h-6.793v-9.66h6.793v1.81h-4.75v2.042h4.65v1.81h-4.65v2.187h4.75zM61.17 19.586c.821 0 1.44-.494 1.44-1.307 0-.814-.619-1.308-1.44-1.308h-2.146v2.615zm3.587 5.234h-2.348l-1.887-3.433h-1.498v3.433h-2.046v-9.66h4.495c2.002 0 3.226 1.317 3.226 3.113 0 1.71-1.066 2.622-2.103 2.868zm-14.457 0h-2.06v-7.85h-2.808v-1.81h7.663v1.81h-2.794z"/></g></g></g></svg>