<svg xmlns="http://www.w3.org/2000/svg" width="146" height="40" viewBox="0 0 146 40"><defs><clipPath id="2qula"><path d="M0 .67v33.003h29.25V.67H0z"/></clipPath></defs><g><g><g><g><g/><g clip-path="url(#2qula)"><path fill="#484848" d="M29.108 16.654l-4.335 2.58-7.117 13.035-.048.088-.099.038-3.21 1.222-.146.056-.126-.088-.831-.572c-.97-.672-2.634-1.838-4.111-2.936-1.495-1.111-2.783-2.151-2.95-2.55C5.78 26.682.11 16.052.093 16.021l-.004-.01H.088c-.007-.015-.286-1.054.188-1.618 0 0 16.717-13.502 16.977-13.614.614-.266 1.323.038 1.326.039 0 0 8.56 4.949 10.071 5.857.713.428.591 1.39.591 1.39v8.358h-.284z"/></g></g><g><path fill="#fdfeff" d="M10.803 21.644c-.438-.138-2.172-1.174-2.669-1.462-.839-.486-2.533-1.086-1.25-2.092A63.866 63.866 0 0 0 9.2 16.204c2.464-2.13 2.268-1.75 5.396.046 2.19 1.258 2.371 1.087.123 3.074l-1.138.961c-.588.455-1.577 1.735-2.777 1.36"/></g><g><path fill="#ffdc00" d="M4.69 18.047c-.616-.249-1.834-1.221-2.417-1.63-1.614-1.132-2.308-1.167.188-3.065 1.298-.986 2.746-2.707 3.919-2.186l2.445 1.593c1.156.76 1.968.968.747 2.118l-3.314 2.8c-.351.282-.936.625-1.568.37"/></g><g><path fill="#ffdc00" d="M10.861 12.706c-.766-.366-1.676-1.036-2.429-1.528-.904-.592-2.056-1.024-.764-2.021l3.27-2.665c1.237-.955 2.422.297 4.01 1.242 1.715 1.022 1.963 1.16-.321 2.89-1.209.915-2.54 2.669-3.766 2.082"/></g><g><path fill="#ffdc00" d="M20.523 14.422c-.828.38-2.642.721-3.136 1.213.017.48.147.49.51.698-1.309-.03-.747.125-2.484-.871-2.614-1.5-3.593-1.467-1.454-3.164.658-.522 1.24-1.094 1.899-1.569.57-.412 1.188-1.32 2.411-.92.432.141 1.801.987 2.245 1.239 1.597.901 2.657 1.156.929 2.51-.191.15-.256.223-.435.385-.117.106-.156.124-.247.207l-.1.096c-.124.133-.03 0-.138.176"/></g><g><path fill="#fdfeff" d="M23.055 11.24c-.413-.108-3.133-1.648-3.762-2.044-1.186-.748.457-1.613 1.49-2.488.244-.206.29-.271.547-.456.22-.159.277-.248.49-.422.225-.183.344-.244.562-.443 1.217-1.11 2.426-.054 4.034.862 2.31 1.315 2.162 1.22.245 2.857-.18.155-.274.287-.467.442l-1.59 1.333c-.377.35-.918.525-1.55.36"/></g><g><path fill="#ffdc00" d="M16.861 7.627c-.858-.4-1.62-.928-2.394-1.384-.862-.51-2.063-.93-.858-1.924a151.25 151.25 0 0 1 2.073-1.672c.57-.454 1.458-1.55 2.673-1.084.54.207 1.81 1.018 2.409 1.35 1.148.642 2.184.963.217 2.378-1.282.92-2.747 2.978-4.12 2.336"/></g><g><path fill="#1da5d9" d="M12.148 26.91c-.538-.028-3.32-1.813-3.814-2.213-.726-.588-1.093-1.911-1.487-2.944-.67-1.758-.193-1.35 1.716-.21 1.678 1.005 2.835 1.327 3.147 2.883.103.515.493 2.05.438 2.484"/></g><g><path fill="#1da5d9" d="M4.948 19.389c.642.754.725 1.124 1.066 2.015.198.519.786 1.843.824 2.332-.524-.09-3.057-2.051-3.565-2.75-.25-.342-2.188-3.99-2.012-4.158.41-.39 3.516 2.36 3.687 2.56"/></g><g><path fill="#1da5d9" d="M8.25 25.342c.587-.06 2.513 1.35 3.053 1.69.423.268 1.034.727 1.185 1.193.107.327.376 1.65.38 1.978-.436-.044-2.424-1.45-2.932-1.778-.601-.388-.78-.54-1.06-1.302-.203-.55-.555-1.293-.626-1.781"/></g><g><path fill="#fdfeff" d="M4.04 22.31c.367.126 2.215 1.562 2.654 1.903.686.532 1.368 2.048 1.513 2.971-.377-.058-2.337-1.587-2.637-1.901-.306-.32-1.528-2.41-1.53-2.973"/></g><g><path fill="#1da5d9" d="M9.47 28.64c.455-.021 3.209 1.879 3.506 2.305.228.327.347 1.146.359 1.603-.43-.042-1.946-1.206-2.408-1.517-.858-.577-1.17-1.11-1.457-2.39"/></g><g><path fill="#fdfeff" d="M5.81 25.88c.392.11 1.612 1.144 2.067 1.473.434.313.594.417.799.917.136.33.43 1.007.461 1.297-.302-.032-1.784-1.206-2.055-1.457-.292-.27-.498-.583-.708-1.008-.17-.344-.504-.84-.564-1.222"/></g><g><path fill="#484848" d="M16.299 16.094l.002-.014.042-.205h.027c.12-.292.423-.8 1.123-1.031.754-.25 2.455-.826 4.452-1.502 4.172-1.412 9.654-3.266 10.963-3.654.367-.11.779-.096.957-.01.18.087 4.787 2.306 5.289 2.784.533.508.172 1.47.158 1.506l-.013.04c-.3.946-4.44 13.952-5.116 16.272-.146.504-.647 1.016-.647 1.016l-14.892 8.055s-.143.1-.435.1c-.29 0-.483-.098-.483-.098s-5.276-2.589-5.276-3.142c0-.815 3.837-20.059 3.849-20.115z"/></g><g><path fill="#21a4d8" d="M20.139 24.928c-.421-.133-1.838-1.04-2.29-1.297-2.566-1.458-2.258-1.25-1.594-4.6.163-.823.159-2.583 1.325-2.183.403.139 1.824 1.018 2.306 1.288.682.384 1.801.816 2.003 1.629.144.58-.562 3.496-.75 4.42-.111.54-.335.952-1 .743"/></g><g><path fill="#fdfeff" d="M18.698 31.729c-.733-.328-1.61-.898-2.298-1.3-2.575-1.509-2.156-1.238-1.513-4.55.15-.773.135-2.49 1.273-2.06.572.216 1.667.956 2.277 1.294 2.553 1.416 2.252 1.204 1.559 4.564-.169.815-.193 2.546-1.298 2.052"/></g><g><path fill="#fdfeff" d="M17.43 38.55c-.826-.371-2.44-1.397-3.397-1.96-1.46-.857-1.032-1.36-.544-3.788.672-3.351.306-2.615 4.597-.245 1.484.82.963 1.862.506 3.872-.174.764-.225 2.542-1.162 2.121"/></g><g><path fill="#dc1414" d="M21.925 25.435c-.465-.3.187-2.226.318-2.779.712-2.998.443-3.086 3.025-4.04.412-.153 2.394-1.003 2.7-.82.513.305-1.032 5.11-1.228 5.41-.475.727-1.336.937-2.247 1.337-.445.195-2.22 1.116-2.568.892"/></g><g><path fill="#fdfeff" d="M22.54 18.497c-.954-.163-1.813-.747-2.554-1.17-2.956-1.69-3.65-1.56-.343-2.64 3.183-1.038 2.565-1.156 5.515.387 3.345 1.748 3.063 1.576.169 2.72-.793.313-1.816.87-2.786.703"/></g><g><path fill="#21a4d8" d="M20.216 32.253c-.3-.31.678-4.514 1.268-5.244.566-.699 4.404-2.338 4.692-2.07.297.277-.386 2.264-.497 2.689-.23.884-.37 1.896-.938 2.482-.406.42-.383.402-.978.663-.698.306-3.251 1.786-3.547 1.48"/></g><g><path fill="#dc1414" d="M27.937 22.814c-.362-.334.299-2.114.427-2.586.174-.64.447-1.963.75-2.485.49-.849 1.002-.937 1.996-1.307.392-.146 2.228-.975 2.5-.716.31.291-1.026 4.522-1.28 4.99-.436.804-1.013.898-1.979 1.318-.62.269-2.107 1.069-2.414.786"/></g><g><path fill="#ffdc00" d="M23.98 13.41c.274-.445 1.7-.775 2.35-.995 2.475-.836 2.19-.662 4.857.732.407.212.7.382 1.078.574 1.808.92.837 1.008-1.245 1.832-2.413.953-2.384.66-5.005-.773-.59-.323-1.842-.784-2.035-1.37"/></g><g><path fill="#21a4d8" d="M24.469 31.464c.183.433-.351 2.04-.487 2.546-.227.853-.413 1.791-.917 2.332-.331.358-1.458.92-2.058 1.237-.36.19-1.913 1.206-2.282 1.013-.397-.208-.044-.949.034-1.284.909-3.906.522-3.472 3.268-4.89.476-.246 1.817-1.085 2.442-.954"/></g><g><path fill="#dc1414" d="M31.702 22.52c.112.636-1.042 4.311-1.393 4.8-.457.634-1.105.823-1.967 1.244-2.758 1.348-2.6 1.39-1.768-1.674.685-2.524.447-2.613 2.769-3.595.483-.205 1.805-1.002 2.36-.774"/></g><g><path fill="#dc1414" d="M33.338 20.609c-.338-.504.208-1.67.395-2.292.22-.73.438-1.652.702-2.348.334-.88.793-1.06 1.704-1.4 2.972-1.104 2.918-1.378 1.966 1.504-.84 2.545-.456 2.825-2.473 3.702-.495.216-1.815.882-2.294.834"/></g><g><path fill="#21a4d8" d="M24.43 35.458c-.217-.167.805-4.03 1.305-4.66.445-.56 1.242-.813 1.943-1.171.343-.175 1.872-1.066 2.12-.84.27.245-.376 1.97-.498 2.384-.693 2.362-.404 2.148-2.753 3.42-.379.205-1.784 1.123-2.117.867"/></g><g><path fill="#fdfeff" d="M29.69 11.326c.402-.252 1.598-.578 2.211-.796 1.909-.676 2.135-.401 4.424.83.366.197.629.34 1.026.528.403.189.843.473.843.72 0 .246-1.516.717-2.098.942-.943.366-1.388.656-2.527.169-.66-.281-1.442-.745-2.052-1.07-.954-.507-1.754-.732-1.827-1.323"/></g><g><path fill="#21a4d8" d="M36.553 20.31c.186.505-1.14 4.234-1.278 4.464-.442.735-.911.842-1.75 1.256-.449.22-1.667.892-2.116.862-.258-.518.278-1.679.449-2.251.758-2.546.507-2.671 2.483-3.522.49-.21 1.724-.909 2.212-.81"/></g><g><path fill="#21a4d8" d="M29.585 32.734c-.085-.495.973-3.93 1.265-4.357.59-.865 3.563-2.119 3.743-2.022.311.168-.016.756-.108 1.044-.107.338-.237.716-.35 1.08-.205.651-.428 1.624-.753 2.128-.402.623-3.106 2.157-3.797 2.127"/></g></g><g><path fill="#6b6b6b" d="M140.951 23.164c1.78 0 2.937-1.375 2.937-3.169 0-1.809-1.157-3.169-2.937-3.169-1.78 0-2.922 1.36-2.922 3.169 0 1.794 1.143 3.169 2.922 3.169zm0 1.836c-2.908 0-5.034-2.087-5.034-5s2.126-5 5.034-5c2.922 0 5.049 2.087 5.049 5s-2.127 5-5.049 5zm-12.247-5.42c.825 0 1.447-.493 1.447-1.305 0-.811-.622-1.304-1.447-1.304h-2.155v2.609zm3.613 5.246h-2.362l-1.897-3.435h-1.506v3.435h-2.057V15.16h4.519c2.013 0 3.245 1.32 3.245 3.116 0 1.71-1.072 2.624-2.115 2.87zm-15.194-5.246c.81 0 1.418-.508 1.418-1.305 0-.811-.608-1.304-1.418-1.304h-2.184v2.609zm-2.182 5.246h-2.057V15.16h4.52c2.1 0 3.244 1.42 3.244 3.116 0 1.682-1.158 3.116-3.244 3.116h-2.463zm-17.505-1.812c1.913 0 3.03-1.376 3.03-3.014 0-1.71-1.044-3.029-3.03-3.029h-1.754v6.043zm-.008 1.812h-3.8V15.16h3.8c3.02 0 5.115 1.928 5.115 4.841 0 2.913-2.095 4.826-5.115 4.826zm-8.303 0h-1.98l-4.595-6.304v6.304h-2.052V15.16h2.11l4.465 6.073v-6.073h2.052zm-12.816 0h-6.828V15.16h6.828v1.812h-4.774v2.043h4.673v1.812h-4.673v2.188h4.774zM61.806 19.58c.824 0 1.446-.493 1.446-1.305 0-.811-.622-1.304-1.446-1.304H59.65v2.609zm3.602 5.246H63.05l-1.895-3.435H59.65v3.435h-2.054V15.16h4.513c2.011 0 3.24 1.32 3.24 3.116 0 1.71-1.07 2.624-2.111 2.87zm-14.518 0h-2.07v-7.855H46v-1.812h7.696v1.812H50.89z"/></g></g></g></svg>
