<svg xmlns="http://www.w3.org/2000/svg" width="743" height="765" viewBox="0 0 743 765"><defs><filter id="6j9ia" width="144%" height="144%" x="-12%" y="-12%" filterUnits="objectBoundingBox"><feGaussianBlur in="SourceGraphic" result="FeGaussianBlur1268Out" stdDeviation="8 8"/></filter></defs><g><g filter="url(#6j9ia)"><path fill="#ffa000" d="M204.873 414.579c-8.118-2.69-40.254-22.89-49.449-28.504-15.549-9.476-46.933-21.174-23.149-40.788 14.33-11.828 29.62-24.71 42.874-36.784 45.65-41.542 42.018-34.12 99.975.91 40.578 24.527 43.924 21.186 2.27 59.933l-21.075 18.73c-10.893 8.878-29.23 33.834-51.446 26.503M91.772 344.234c-11.413-4.835-34.017-23.735-44.82-31.68-29.94-22.01-42.807-22.698 3.48-59.602 24.072-19.17 50.935-52.627 72.695-42.503l45.352 30.98c21.436 14.777 36.497 18.808 13.854 41.181l-61.465 54.442c-6.518 5.484-17.372 12.146-29.096 7.182m114.887-104.21c-14.18-7.141-31.03-20.178-44.978-29.775-16.747-11.53-38.082-19.945-14.154-39.358l60.571-51.915c22.891-18.595 44.836 5.791 74.22 24.191 31.77 19.907 36.372 22.62-5.936 56.305-22.372 17.815-47.026 51.98-69.723 40.553m120.708 57.785c.311 9.361 2.725 9.556 9.434 13.613-24.242-.598-13.834 2.444-46.032-16.994-48.459-29.253-66.615-28.603-26.955-61.693 12.2-10.193 22.97-21.336 35.196-30.606 10.59-8.035 22.023-25.743 44.709-17.93 8.007 2.744 33.391 19.243 41.62 24.145 29.602 17.578 49.263 22.558 17.221 48.965-3.543 2.925-4.737 4.342-8.06 7.502-2.18 2.067-2.893 2.418-4.58 4.043-.377.377-1.493 1.47-1.856 1.86-1.92 2.173-1.011.704-1.836 2.183 40.546-14.386 36.711-13.303 85.63 13.41 62.194 33.949 56.962 30.608 3.137 52.826-14.748 6.085-33.765 16.883-51.807 13.66-17.754-3.173-33.726-14.515-47.51-22.736-33.87-20.212-51.77-27.008-46.128-34.158a17.738 17.738 0 0 0-2.183 1.91zm105.143-86.327c-7.682-2.111-58.27-32.037-69.976-39.733-22.071-14.535 8.503-31.338 27.722-48.348 4.532-4.003 5.404-5.273 10.17-8.861 4.088-3.083 5.143-4.82 9.102-8.2 4.193-3.563 6.406-4.742 10.469-8.616 22.63-21.57 45.119-1.049 75.042 16.751 42.957 25.56 40.21 23.734 4.557 55.525-3.346 3.006-5.104 5.584-8.698 8.59l-29.558 25.897c-7.019 6.814-17.084 10.208-28.83 6.995m-114.706-70.266c-15.939-7.797-30.121-18.06-44.499-26.947-16.017-9.913-38.345-18.1-15.952-37.431 12.465-10.769 25.32-21.537 38.54-32.552 10.604-8.823 27.103-30.14 49.678-21.097 10.058 4.035 33.66 19.812 44.773 26.3 21.339 12.467 40.609 18.721 4.033 46.252-23.824 17.918-51.044 57.957-76.573 45.475m-88.097 375.878c-9.978-.545-61.538-35.24-70.698-43.013-13.455-11.413-20.254-37.13-27.558-57.198-12.43-34.163-3.568-26.248 31.8-4.08 31.113 19.523 52.56 25.78 58.334 56.019 1.907 10.014 9.147 39.825 8.122 48.272M96.83 370.129c11.907 14.646 13.452 21.834 19.763 39.148 3.675 10.076 14.596 35.795 15.297 45.3-9.726-1.748-56.707-39.848-66.134-53.42-4.623-6.643-40.592-77.507-37.32-80.77 7.61-7.59 65.225 45.857 68.394 49.742M157.395 486.7c10.882-1.18 46.563 26.257 56.576 32.9 7.834 5.202 19.157 14.14 21.958 23.195 1.972 6.37 6.952 32.134 7.03 38.491-8.067-.856-44.915-28.216-54.332-34.586-11.128-7.55-14.435-10.508-19.636-25.35-3.762-10.69-10.273-25.154-11.596-34.65M80.06 427.427c6.807 2.446 41.104 30.322 49.263 36.935 12.718 10.34 25.384 39.768 28.073 57.679-7.002-1.126-43.364-30.813-48.937-36.909-5.677-6.198-28.36-46.77-28.399-57.705M180.432 550.84c8.427-.418 59.43 36.78 64.94 45.12 4.226 6.396 6.43 22.436 6.637 31.39-7.973-.822-36.041-23.624-44.598-29.706-15.894-11.303-21.677-21.718-26.98-46.804m-68.286-53.48c7.27 2.147 29.899 22.206 38.337 28.586 8.049 6.082 11.009 8.101 14.813 17.807 2.518 6.406 7.984 19.541 8.555 25.183-5.608-.634-33.079-23.423-38.116-28.289-5.413-5.254-9.23-11.323-13.125-19.567-3.168-6.677-9.347-16.306-10.464-23.72m266.632-19.184c-7.807-2.584-34.097-20.246-42.502-25.26-47.606-28.402-41.878-24.363-29.564-89.61 3.027-16.027 2.949-50.313 24.59-42.52 7.468 2.701 33.837 19.818 42.787 25.09 12.652 7.481 33.422 15.884 37.176 31.728 2.663 11.286-10.444 68.105-13.938 86.092-2.052 10.545-6.209 18.558-18.549 14.48M351.41 610.843c-13.583-6.378-29.851-17.495-42.59-25.34-47.716-29.38-39.958-24.093-28.036-88.63 2.79-15.054 2.491-48.524 23.585-40.147 10.6 4.221 30.903 18.65 42.202 25.236 47.327 27.573 41.748 23.456 28.892 88.916-3.127 15.872-3.568 49.589-24.053 39.965m-23.612 132.919c-15.31-7.219-45.216-27.163-62.952-38.088-27.052-16.666-19.137-26.463-10.094-73.649 12.468-65.147 5.67-50.84 85.203-4.756 27.519 15.94 17.853 36.183 9.38 75.269-3.217 14.851-4.164 49.414-21.537 41.224m83.582-255.318c-8.602-5.834 3.46-43.274 5.895-54.034 13.176-58.3 8.188-60.01 55.98-78.575 7.618-2.955 44.308-19.485 49.97-15.945 9.496 5.95-19.11 99.394-22.737 105.228-8.784 14.118-24.72 18.214-41.574 25.98-8.24 3.798-41.095 21.701-47.534 17.346M379.741 620.78c-5.545-6.044 12.553-88 23.474-102.247 10.467-13.622 81.499-45.573 86.836-40.348 5.493 5.395-7.15 44.13-9.198 52.424-4.249 17.236-6.853 36.968-17.36 48.394-7.526 8.202-7.085 7.838-18.11 12.92-12.916 5.98-60.162 34.836-65.642 28.857m143.281-183.003c-6.694-6.51 5.529-41.274 7.898-50.493 3.224-12.5 8.274-38.344 13.868-48.54 9.063-16.574 18.528-18.306 36.915-25.519 7.264-2.851 41.214-19.048 46.263-13.996 5.71 5.69-18.982 88.316-23.695 97.469-8.053 15.69-18.736 17.538-36.591 25.728-11.472 5.26-38.974 20.884-44.658 15.35m-73.558-183.62c5.084-8.632 31.507-15.051 43.557-19.322 45.853-16.216 40.587-12.851 89.995 14.21 7.536 4.116 12.97 7.43 19.975 11.157 33.492 17.847 15.501 19.568-23.075 35.551-44.712 18.508-44.168 12.813-92.745-15-10.948-6.263-34.127-15.22-37.707-26.595m9.167 351.247c3.414 8.458-6.54 39.803-9.056 49.705-4.234 16.642-7.7 34.95-17.069 45.515-6.176 6.987-27.154 17.956-38.308 24.136-6.71 3.709-35.61 23.538-42.477 19.765-7.401-4.06-.821-18.516.625-25.048 16.913-76.248 9.708-67.777 60.837-95.44 8.86-4.801 33.812-21.183 45.448-18.633M593.3 431.51c2.08 12.392-19.359 84.08-25.885 93.611-8.477 12.367-20.516 16.047-36.534 24.265-51.225 26.292-48.3 27.125-32.828-32.652 12.728-49.23 8.307-50.96 51.42-70.114 8.984-4.005 33.53-19.557 43.827-15.11m30.126-37.862c-6.285-9.774 3.856-32.416 7.323-44.495 4.09-14.201 8.129-32.092 13.011-45.594 6.207-17.115 14.713-20.61 31.62-27.186 55.135-21.438 54.122-26.759 36.475 29.205-15.595 49.414-8.466 54.851-45.877 71.887-9.18 4.182-33.67 17.115-42.552 16.183M458.24 683.243c-4.007-3.249 14.923-78.55 24.181-90.831 8.233-10.917 23.001-15.856 35.98-22.835 6.366-3.405 34.683-20.78 39.273-16.388 5.005 4.782-6.962 38.404-9.218 46.488-12.836 46.046-7.482 41.874-50.995 66.658-7.014 4.003-33.05 21.912-39.221 16.908m97.355-469.455c7.464-4.903 29.687-11.245 41.078-15.474 35.447-13.152 39.647-7.808 82.18 16.136 6.801 3.839 11.677 6.64 19.05 10.285 7.49 3.671 15.656 9.197 15.656 13.996 0 4.799-28.152 13.956-38.97 18.34-17.516 7.108-25.786 12.75-46.942 3.282-12.25-5.474-26.774-14.501-38.113-20.805-17.723-9.87-32.586-14.255-33.939-25.76M682.79 388.124c3.443 9.837-21.176 82.434-23.723 86.898-8.21 14.314-16.915 16.404-32.479 24.45-8.327 4.296-30.933 17.377-39.273 16.78-4.781-10.07 5.17-32.678 8.327-43.813 14.07-49.561 9.42-52.001 46.094-68.56 9.094-4.101 31.986-17.69 41.054-15.755m-128.75 242.508c-1.571-9.638 18.05-76.472 23.466-84.774 10.96-16.838 66.097-41.239 69.447-39.345 5.766 3.27-.298 14.698-2 20.302-2 6.577-4.402 13.945-6.518 21.028-3.792 12.661-7.922 31.6-13.96 41.408-7.454 12.116-57.605 41.965-70.435 41.381"/></g></g></svg>