<svg xmlns="http://www.w3.org/2000/svg" width="48" height="40" viewBox="0 0 48 40"><g><g opacity="0.3"><path fill="#feba00" d="M20.334 18.182c.89 0 1.609.717 1.609 1.6V38.4c0 .883-.72 1.6-1.61 1.6H1.61C.721 40 0 39.283 0 38.4V19.094c0-.596.167-1.18.483-1.686L10.63 1.136A2.417 2.417 0 0 1 12.68 0h6.738c1.262 0 2.032 1.378 1.368 2.443l-8.67 13.906a1.2 1.2 0 0 0 1.023 1.833h7.195m26.057 0c.888 0 1.609.717 1.609 1.6V38.4c0 .883-.72 1.6-1.61 1.6H27.667c-.888 0-1.609-.717-1.609-1.6V19.094c0-.596.167-1.18.483-1.686L36.687 1.136A2.417 2.417 0 0 1 38.737 0h6.738c1.26 0 2.031 1.378 1.366 2.443l-8.67 13.906c-.498.8.08 1.833 1.026 1.833h7.194"/></g></g></svg>