<svg
    class="advantages__icon"
    width="68px"
    height="54px"
    viewBox="0 0 68 54"
    version="1.1"
    xmlns="http://www.w3.org/2000/svg"
    xmlns:xlink="http://www.w3.org/1999/xlink">
    <g id="3-Dev" stroke="none" stroke-width="1" fill="none" fill-rule="evenodd">
        <g
            id="Trend-Pro_1920-3_price-3"
            transform="translate(-999.000000, -190.000000)"
            fill="#FFFFFF">
            <g id="2" transform="translate(999.000000, 190.000000)">
                <path
                    d="M6.5,31.6114036 L10.29,33.7625673 C10.383,33.8165673 10.489,33.8430764 10.596,33.8430764 C10.649,33.8430764 10.702,33.8371855 10.754,33.8244218 C10.911,33.7812218 11.045,33.6810764 11.126,33.54264 L14.189,28.3272218 C14.359,28.0385673 14.258,27.6703855 13.965,27.5044582 C13.672,27.3365673 13.297,27.4367127 13.128,27.7253673 L10.372,32.41944 L7.113,30.5687127 C6.819,30.39984 6.445,30.5009673 6.276,30.7896218 C6.106,31.0772945 6.207,31.4454764 6.5,31.6114036"
                    id="Fill-1"></path>
                <path
                    d="M18.9233,22.3320436 L56.9053,22.3320436 C57.2443,22.3320436 57.5183,22.0630255 57.5183,21.7301891 C57.5183,21.3973527 57.2443,21.1273527 56.9053,21.1273527 L18.9233,21.1273527 C18.5853,21.1273527 18.3103,21.3973527 18.3103,21.7301891 C18.3103,22.0630255 18.5853,22.3320436 18.9233,22.3320436"
                    id="Fill-3"></path>
                <path
                    d="M6.5,21.9753491 L10.29,24.1265127 C10.383,24.1814945 10.489,24.2080036 10.596,24.2080036 C10.649,24.2080036 10.702,24.2011309 10.754,24.1883673 C10.911,24.1461491 11.045,24.0450218 11.126,23.9075673 L14.189,18.6911673 C14.359,18.4034945 14.258,18.0353127 13.965,17.8693855 C13.672,17.7005127 13.297,17.80164 13.128,18.0893127 L10.372,22.7833855 L7.113,20.9326582 C6.819,20.7657491 6.445,20.8649127 6.276,21.1535673 C6.106,21.44124 6.207,21.8094218 6.5,21.9753491"
                    id="Fill-5"></path>
                <path
                    d="M18.9233,12.6960873 L56.9053,12.6960873 C57.2443,12.6960873 57.5183,12.4270691 57.5183,12.0942327 C57.5183,11.7613964 57.2443,11.4913964 56.9053,11.4913964 L18.9233,11.4913964 C18.5853,11.4913964 18.3103,11.7613964 18.3103,12.0942327 C18.3103,12.4270691 18.5853,12.6960873 18.9233,12.6960873"
                    id="Fill-7"></path>
                <path
                    d="M6.5,12.3402764 L10.29,14.4904582 C10.383,14.54544 10.489,14.5719491 10.596,14.5719491 C10.649,14.5719491 10.702,14.5660582 10.754,14.5523127 C10.911,14.5100945 11.045,14.4099491 11.126,14.2715127 L14.189,9.05511273 C14.359,8.76744 14.258,8.39925818 13.965,8.23333091 C13.672,8.06544 13.297,8.16460364 13.128,8.45325818 L10.372,13.1473309 L7.113,11.2975855 C6.819,11.1287127 6.445,11.22984 6.276,11.5175127 C6.106,11.8061673 6.207,12.1743491 6.5,12.3402764"
                    id="Fill-9"></path>
                <path
                    d="M53.9097,52.7952109 C47.0677,52.7952109 41.4717,47.5120473 41.0827,40.8788836 C41.1147,40.8062291 41.1327,40.72572 41.1327,40.6412836 C41.1327,40.5401564 41.1007,40.4488473 41.0557,40.3653927 C41.0547,40.2927382 41.0447,40.2210655 41.0447,40.1484109 C41.0447,33.1745564 46.8167,27.5016109 53.9097,27.5016109 C61.0037,27.5016109 66.7747,33.1745564 66.7747,40.1484109 C66.7747,47.1232473 61.0037,52.7952109 53.9097,52.7952109 L53.9097,52.7952109 Z M3.0627,47.30292 C2.0497,47.30292 1.2247,46.49292 1.2247,45.4963745 L1.2247,41.2431382 L39.8767,41.2431382 C40.0537,43.4492836 40.7597,45.5071745 41.8677,47.30292 L3.0627,47.30292 Z M23.4837,52.7952109 L38.3907,52.7952109 L38.3907,48.5085927 L23.4837,48.5085927 L23.4837,52.7952109 Z M3.0627,1.20459273 L60.6487,1.20459273 C61.6617,1.20459273 62.4867,2.01459273 62.4867,3.01113818 L62.4867,29.1834655 C60.1077,27.3818291 57.1387,26.2979018 53.9097,26.2979018 C49.8257,26.2979018 46.1537,28.02492 43.5767,30.7641927 L18.9237,30.7641927 C18.5847,30.7641927 18.3107,31.0322291 18.3107,31.3660473 C18.3107,31.6988836 18.5847,31.9679018 18.9237,31.9679018 L42.5657,31.9679018 C40.8687,34.2359018 39.8497,37.0203382 39.8257,40.0394291 L1.2247,40.0394291 L1.2247,3.01113818 C1.2247,2.01459273 2.0497,1.20459273 3.0627,1.20459273 L3.0627,1.20459273 Z M63.7117,30.2192836 L63.7117,3.01113818 C63.7117,1.35088364 62.3377,0.000883636364 60.6487,0.000883636364 L3.0627,0.000883636364 C1.3737,0.000883636364 -0.0003,1.35088364 -0.0003,3.01113818 L-0.0003,45.4963745 C-0.0003,47.1576109 1.3737,48.5085927 3.0627,48.5085927 L22.2587,48.5085927 L22.2587,52.7952109 L19.5017,52.7952109 C19.1627,52.7952109 18.8887,53.0642291 18.8887,53.3970655 C18.8887,53.7308836 19.1627,54.0008836 19.5017,54.0008836 L42.7817,54.0008836 C43.1197,54.0008836 43.3937,53.7308836 43.3937,53.3970655 C43.3937,53.0642291 43.1197,52.7952109 42.7817,52.7952109 L39.6157,52.7952109 L39.6157,48.5085927 L42.7017,48.5085927 C45.2777,51.8369564 49.3367,54.0008836 53.9097,54.0008836 C61.6797,54.0008836 67.9997,47.7849927 67.9997,40.1484109 C67.9997,36.25452 66.3517,32.7376473 63.7117,30.2192836 L63.7117,30.2192836 Z"
                    id="Fill-11"></path>
                <path
                    d="M59.1484,36.5348291 C59.1484,38.1960655 57.7734,39.5460655 56.0854,39.5460655 L52.3474,39.5460655 L52.3474,32.8608655 L56.0854,32.8608655 C57.7734,32.8608655 59.1484,34.2108655 59.1484,35.87112 L59.1484,36.5348291 Z M56.0854,31.6561745 L51.7344,31.6561745 C51.3964,31.6561745 51.1224,31.9261745 51.1224,32.2590109 L51.1224,39.5460655 L49.2844,39.5460655 C48.9454,39.5460655 48.6714,39.8160655 48.6714,40.1489018 C48.6714,40.4817382 48.9454,40.7507564 49.2844,40.7507564 L51.1224,40.7507564 L51.1224,43.1601382 L49.2844,43.1601382 C48.9454,43.1601382 48.6714,43.4281745 48.6714,43.7619927 C48.6714,44.0948291 48.9454,44.3648291 49.2844,44.3648291 L51.1224,44.3648291 L51.1224,48.0387927 C51.1224,48.3716291 51.3964,48.6406473 51.7344,48.6406473 C52.0734,48.6406473 52.3474,48.3716291 52.3474,48.0387927 L52.3474,44.3648291 L56.6354,44.3648291 C56.9744,44.3648291 57.2484,44.0948291 57.2484,43.7619927 C57.2484,43.4281745 56.9744,43.1601382 56.6354,43.1601382 L52.3474,43.1601382 L52.3474,40.7507564 L56.0854,40.7507564 C58.4494,40.7507564 60.3734,38.8587927 60.3734,36.5348291 L60.3734,35.87112 C60.3734,33.5471564 58.4494,31.6561745 56.0854,31.6561745 L56.0854,31.6561745 Z"
                    id="Fill-14"></path>
            </g>
        </g>
    </g>
</svg>