<svg
    class="advantages__icon"
    width="60px"
    height="60px"
    viewBox="0 0 60 60"
    version="1.1"
    xmlns="http://www.w3.org/2000/svg"
    xmlns:xlink="http://www.w3.org/1999/xlink">
    <g id="3-Dev" stroke="none" stroke-width="1" fill="none" fill-rule="evenodd">
        <g
            id="Trend-Pro_1920-3_price-3"
            transform="translate(-771.000000, -580.000000)"
            fill="#FFFFFF">
            <path
                d="M827.352327,621.910545 C827.440691,621.259273 827.517055,620.615636 827.589055,619.990545 C827.678509,619.212727 827.4996,618.437091 827.022873,617.546909 C826.817782,617.176 826.693418,616.736364 826.560327,616.271636 C826.499236,616.055636 826.437055,615.840727 826.368327,615.629091 C826.362873,615.565818 826.349782,615.479636 826.336691,615.438182 C826.086873,614.687636 824.327236,613.78 823.641055,613.914182 C823.428327,613.954545 823.262509,614.116 823.216691,614.326545 L823.121782,614.764 C823.1196,614.779273 823.115236,614.794545 823.113055,614.809818 C822.784691,614.598182 822.431236,614.633091 822.216327,614.663636 C822.225055,614.582909 822.241418,614.480364 822.271964,614.368 C822.381055,613.904364 822.503236,613.441818 822.624327,612.979273 C822.748691,612.508 822.873055,612.036727 822.985418,611.557818 C823.061782,611.205455 823.0716,610.852 823.0716,610.573818 C823.063964,609.986909 823.309418,609.64 823.896327,609.413091 C824.3556,609.235273 825.192327,608.911273 825.337418,607.890182 C825.451964,607.823636 825.664691,607.732 825.837055,607.693818 C826.565782,607.544364 827.075236,607.149455 827.541055,606.376 C827.662145,606.172 827.637055,605.913455 827.476691,605.738909 C827.318509,605.564364 827.062145,605.515273 826.849418,605.616727 C826.802509,605.638545 826.763236,605.654909 826.734873,605.665818 C826.710873,605.594909 826.689055,605.507636 826.681418,605.470545 C826.5636,604.988364 826.416327,604.606545 826.295236,604.298909 C826.188327,604.021818 826.118509,603.842909 826.101055,603.707636 L826.185055,603.814545 C826.310509,603.976 826.5156,604.053455 826.711964,604.008727 L826.888691,603.973818 C827.170145,603.920364 827.359964,603.655273 827.320691,603.372727 L827.021782,601.316364 C827.058873,601.314182 827.097055,601.313091 827.131964,601.310909 C827.226873,601.536727 827.351236,601.733091 827.465782,601.915273 C827.698145,602.281818 827.838873,602.524 827.812691,602.865455 C827.776691,603.336727 827.909782,603.770909 828.037418,604.192 C828.118145,604.453818 828.193418,604.701455 828.220691,604.944727 C828.250145,605.155273 828.214145,605.404 828.178145,605.668 C828.151964,605.846909 828.127964,606.026909 828.114873,606.254909 C828.0996,606.475273 828.079964,606.777455 828.223964,607.064364 C828.673418,607.857455 829.247236,608.576364 829.909418,609.222182 C829.915964,609.480727 829.927964,609.739273 829.927964,610 C829.927964,614.245818 829.001782,618.275636 827.352327,621.910545 L827.352327,621.910545 Z M826.523236,619.869455 C826.382509,621.107636 826.224327,622.421091 825.976691,623.702909 C825.832691,624.486182 825.5436,624.729455 824.687236,624.789455 C824.6796,624.789455 824.673055,624.789455 824.665418,624.791636 C824.5956,624.601818 824.5116,624.453455 824.462509,624.368364 C824.417782,624.290909 824.389418,624.232 824.373055,624.189455 C825.4956,623.757455 825.286145,622.748364 825.185782,622.254182 C825.078873,621.736 824.945782,621.224364 824.796327,620.649455 L824.615236,619.945818 C824.565055,619.748364 824.406873,619.595636 824.206145,619.554182 C824.006509,619.513818 823.798145,619.588 823.672691,619.750545 L823.511236,619.956727 C823.2756,620.261091 823.063964,620.531636 822.875236,620.815273 C822.629782,621.186182 822.525055,621.22 822.523964,621.222182 C822.511964,621.222182 822.3996,621.211273 822.055964,620.933091 C821.693782,620.629818 821.155964,620.287273 820.639964,620.372364 C820.233055,620.426909 819.9516,620.321091 819.6036,619.951273 C819.396327,619.737455 819.202145,619.510545 819.007964,619.281455 C819.002509,619.274909 818.995964,619.268364 818.990509,619.261818 C818.812691,619.054545 818.633782,618.845091 818.442873,618.644364 C818.4396,618.64 818.436327,618.635636 818.431964,618.631273 C818.214873,618.414182 817.881055,618.175273 817.499236,618.194909 C816.810873,618.275636 816.011236,618.378182 815.245418,618.575636 C814.790509,618.690182 814.409782,619.269455 814.3836,619.703636 C814.362873,620.348364 814.408691,620.997455 814.453418,621.626909 L814.470873,621.877818 C814.483964,622.093818 814.447964,622.256364 814.375964,622.316364 C814.309418,622.369818 814.130509,622.401455 813.839236,622.328364 C813.337418,622.185455 812.802873,622.190909 812.409055,622.341455 C811.965055,622.509455 811.5756,622.795273 811.231964,623.047273 L811.029055,623.196727 C810.598145,623.513091 809.941418,623.808727 809.263964,623.432364 C808.933418,623.245818 808.596327,623.124727 808.249418,623.037455 C808.175236,623.017818 808.101055,622.996 808.024691,622.981818 C807.9036,622.957818 807.779236,622.941455 807.652691,622.930545 C807.542509,622.918545 807.426873,622.914182 807.313418,622.910909 C807.213055,622.909818 807.112691,622.905455 807.011236,622.912 C806.782145,622.922909 806.549782,622.945818 806.308691,622.990545 C806.306509,622.990545 806.304327,622.991636 806.302145,622.991636 C806.102509,623.028727 805.970509,623.035273 805.785055,622.636 C805.619236,622.284727 805.257055,621.932364 804.866509,621.737091 C804.564327,621.585455 804.259964,621.491636 803.906509,621.383636 C803.745055,621.333455 803.573782,621.28 803.386145,621.215636 C803.111236,621.127273 802.809055,621.266909 802.709782,621.542909 C802.665055,621.664 802.613782,621.784 802.562509,621.901818 C802.415236,622.244364 802.260327,622.597818 802.260327,623.001455 C802.260327,623.198909 802.204691,623.311273 802.169782,623.336364 C802.150145,623.348364 802.091236,623.350545 802.021418,623.325455 C801.809782,623.243636 801.594873,623.077818 801.371236,622.9 C800.113418,621.914909 799.470873,621.870182 798.113782,622.657818 C797.795236,622.835636 797.534509,622.932727 797.344691,622.945818 C796.423964,623.010182 795.983236,622.775636 795.6996,622.096 C795.487964,621.584364 795.026509,621.173091 794.503964,620.893818 C794.073055,620.660364 793.594145,620.510909 793.146873,620.496727 L792.726873,617.448727 C792.690873,617.184727 792.463964,616.987273 792.1956,616.987273 L790.895236,616.987273 C790.756691,616.522545 790.3596,616.289091 790.115236,616.145091 C790.110873,616.142909 790.105418,616.139636 790.102145,616.137455 C790.132691,616.041455 790.154509,615.935636 790.162145,615.825455 C790.186145,615.554909 790.082509,615.057455 789.707236,614.869818 C789.370145,614.701818 789.006873,614.593818 788.662145,614.501091 C788.025055,614.329818 787.384691,614.173818 786.741055,614.016727 L785.593418,613.733091 C785.422145,613.696 785.250873,613.640364 785.074145,613.583636 L784.961782,613.547636 C784.918145,613.534545 784.873418,613.536727 784.828691,613.534545 C784.727236,613.530182 784.625782,613.543273 784.536327,613.594545 C784.406509,613.666545 784.313782,613.792 784.279964,613.937091 C784.225418,614.168364 784.128327,614.222909 783.736691,614.354909 C783.469418,614.445455 783.138873,614.557818 782.875964,614.834909 C782.762509,614.953818 782.711236,615.121818 782.737418,615.285455 C782.749418,615.372727 782.772327,615.463273 782.795236,615.553818 C782.796327,615.561455 782.798509,615.569091 782.800691,615.575636 C782.704691,615.521091 782.623964,615.467636 782.601055,615.433818 C782.260691,614.516364 781.577782,614.213091 780.982145,614.104 C780.934145,613.908727 780.834873,613.649091 780.554509,613.507273 C780.523964,613.494182 780.496691,613.481091 780.467236,613.471273 C780.484691,612.718545 780.127964,612.102182 779.402509,611.629818 C778.627964,611.137818 777.916691,611.368 777.366873,611.606909 C777.365782,611.592727 777.364691,611.577455 777.3636,611.563273 C777.353782,611.350545 777.130145,611.135636 776.9316,611.060364 C776.862873,611.033091 776.757055,610.992727 776.606509,610.992727 L776.605418,610.992727 C776.039236,611.008 775.521055,611.245818 775.147964,611.660364 C774.741055,612.112 774.538145,612.737091 774.587236,613.373091 C774.604691,613.633818 774.503236,613.958909 774.405055,614.274182 C774.398509,614.296 774.391964,614.314545 774.385418,614.335273 L772.665055,614.335273 C772.572327,614.335273 772.485055,614.357091 772.4076,614.400727 C772.307236,613.744 772.236327,613.081818 772.180691,612.420727 C772.168691,612.276727 772.156691,612.132727 772.147964,611.989818 C772.102145,611.326545 772.0716,610.662182 772.0716,610 C772.0716,609.950909 772.074873,609.901818 772.074873,609.852727 C772.549418,609.822182 773.0676,609.569091 773.362145,609.336727 C773.782145,609.002909 773.837782,608.672364 773.8116,608.460727 C773.761418,608.000364 773.6316,607.572727 773.506145,607.160364 L773.386145,606.754545 C773.356691,606.654182 773.315236,606.551636 773.273782,606.450182 C773.230145,606.34 773.178873,606.215636 773.1756,606.145818 C773.138509,605.448727 773.260691,605.205455 773.719964,605.063636 C773.887964,605.011273 774.018873,604.880364 774.072327,604.712364 C774.125782,604.545455 774.091964,604.362182 773.983964,604.223636 C773.906509,604.122182 773.830145,604.030545 773.759236,603.943273 C773.682873,603.851636 773.614145,603.768727 773.560691,603.702182 C773.642509,603.743636 773.724327,603.761091 773.826873,603.761091 C773.985055,603.754545 774.133418,603.679273 774.230509,603.553818 L774.528327,603.164364 C774.7836,602.828364 775.026873,602.506545 775.294145,602.213091 C775.797055,601.667636 775.886509,601.111273 775.558145,600.558182 C775.512327,600.479636 775.510145,600.440364 775.507964,600.439273 C775.511236,600.433818 775.537418,600.392364 775.637782,600.334545 C775.845055,600.212364 776.061055,600.102182 776.275964,599.990909 C776.585782,599.832727 776.892327,599.671273 777.174873,599.490182 C777.281782,599.425818 777.529418,599.269818 777.590509,599.262182 C777.590509,599.262182 777.638509,599.291636 777.722509,599.437818 C777.868691,599.676727 778.110873,599.725818 778.254873,599.756364 C778.289782,599.762909 778.327964,599.770545 778.367236,599.781455 C778.528691,599.834909 778.705418,599.802182 778.841782,599.701818 C778.979236,599.600364 779.058873,599.438909 779.058873,599.269818 L779.058873,598.903273 C779.472327,598.987273 779.873782,599.068 780.270873,599.122545 C780.971236,599.232727 781.504691,598.970909 781.902873,598.322909 C782.054509,598.078545 782.173418,597.748 782.298873,597.396727 C782.434145,597.020364 782.639236,596.448727 782.821418,596.302545 C783.250145,595.963273 783.425782,595.484364 783.566509,595.100364 C783.702873,594.727273 783.796691,594.492727 783.984327,594.378182 C784.176327,594.290909 784.920327,594.196 785.489782,594.153455 C785.494145,594.153455 785.498509,594.156727 785.502873,594.156727 C785.762509,594.137091 785.977418,594.124 786.091964,594.134909 C786.100691,594.136 786.115964,594.136 786.1236,594.137091 C786.2076,594.148 786.261055,594.174182 786.265418,594.158909 C786.263236,594.170909 786.257782,594.213455 786.216327,594.306182 C786.1236,594.561455 786.163964,594.869091 786.334145,595.212727 C786.649418,595.871636 786.655964,596.555636 786.352691,597.248364 C786.2916,597.386909 786.086509,597.570182 785.945782,597.610545 C785.817055,597.647636 785.741782,597.641091 785.718873,597.624727 C785.670873,597.593091 785.575964,597.439273 785.533418,597.069455 C785.496327,596.744364 785.482145,596.413818 785.467964,596.084364 C785.460327,595.876 785.450509,595.666545 785.437418,595.460364 C785.429782,595.36 785.390509,595.271636 785.335964,595.194182 C785.323964,595.175636 785.315236,595.154909 785.299964,595.138545 C785.284691,595.121091 785.266145,595.112364 785.248691,595.098182 C785.221418,595.073091 785.195236,595.046909 785.161418,595.028364 C785.154873,595.024 785.146145,595.024 785.138509,595.019636 C785.092691,594.997818 785.045782,594.978182 784.993418,594.968364 C784.990145,594.968364 784.9836,594.968364 784.979236,594.967273 C784.931236,594.959636 784.881055,594.954182 784.773055,594.943273 C784.526509,594.906182 784.2756,595.057818 784.178509,595.289091 C784.139236,595.384 783.9996,595.627273 783.814145,595.956727 C782.308691,598.649091 781.921418,599.645091 782.154873,600.22 C782.434145,600.907273 783.148691,600.933455 783.575236,600.948727 C783.653782,600.953091 783.763964,600.955273 783.837055,600.965091 C783.876327,601.024 783.928691,601.072 783.9876,601.113455 C784.0356,601.145091 784.087964,601.172364 784.146873,601.187636 L784.147964,601.187636 C784.201418,601.201818 784.258145,601.190909 784.313782,601.187636 C784.439236,601.18 784.561418,601.146182 784.655236,601.055636 C785.049055,600.677091 785.2956,600.479636 785.382873,600.469818 C785.423236,600.479636 785.5596,600.557091 785.935964,601.045818 C786.037418,601.176727 786.194509,601.254182 786.361418,601.254182 C786.460691,601.254182 786.693055,601.254182 786.8436,601.103636 L786.846873,601.099273 C786.895964,601.199636 786.961418,601.290182 787.049782,601.368727 C787.357418,601.639273 787.756691,601.596727 788.224691,601.546545 C788.5476,601.509455 788.929418,601.576 789.299236,601.638182 L789.468327,601.665455 C789.530509,601.676364 789.5916,601.691636 789.650509,601.706909 C789.633055,601.833455 789.641782,601.966545 789.696327,602.105091 C789.864327,602.525091 790.317055,602.642909 790.697782,602.700727 C790.862509,602.722545 791.025055,602.743273 791.189782,602.761818 C791.153782,602.972364 791.261782,603.196 791.438509,603.313818 L791.738509,602.870909 L791.550873,603.405455 C791.766873,603.571273 792.073418,603.547273 792.263236,603.349818 C792.442145,603.164364 792.621055,602.977818 792.806509,602.788 C792.856691,602.841455 792.898145,602.904727 792.936327,602.972364 C792.9516,602.996364 792.966873,603.018182 792.981055,603.044364 C793.063964,603.211273 793.130509,603.416364 793.206873,603.666182 C793.330145,604.066545 793.468691,604.520364 793.783964,604.904364 C793.830873,604.961091 793.8876,605.005818 793.948691,605.037455 C794.010873,605.069091 794.077418,605.089818 794.146145,605.097455 C794.282509,605.110545 794.422145,605.071273 794.536691,604.978545 C794.769055,604.789818 795.475964,604.211636 795.046145,603.270182 L795.244691,603.035636 C795.574145,602.649455 795.883964,602.285091 796.250509,602.021091 C796.277782,602.001455 796.315964,601.985091 796.363964,601.973091 C796.354145,601.992727 796.343236,602.014545 796.332327,602.033091 C795.844691,602.92 795.202145,605.551273 795.271964,606.742545 C795.286145,606.984727 795.398509,607.184364 795.582873,607.307636 C795.661418,607.36 795.742145,607.389455 795.826145,607.408 C795.851236,607.413455 795.876327,607.415636 795.902509,607.417818 C795.936327,607.422182 795.969055,607.432 796.003964,607.432 C796.0236,607.432 796.043236,607.424364 796.061782,607.423273 C796.133782,607.418909 796.204691,607.408 796.276691,607.391636 C796.308327,607.386182 796.338873,607.381818 796.3716,607.373091 C796.468691,607.344727 796.565782,607.314182 796.658509,607.281455 C796.705418,607.266182 796.763236,607.246545 796.817782,607.229091 C796.896327,607.285818 796.991236,607.320727 797.093782,607.328364 C797.326145,607.341455 797.562873,607.190909 797.638145,606.959636 C797.790873,606.490545 798.574145,605.089818 799.057418,604.417818 C799.1196,604.330545 799.153418,604.228 799.157782,604.125455 C799.162145,604.021818 799.135964,603.917091 799.080327,603.825455 C799.024691,603.736 798.962509,603.644364 798.898145,603.551636 C798.835964,603.463273 798.746509,603.333455 798.6876,603.254909 C798.799964,603.211273 798.870873,603.270182 799.072691,603.433818 C799.147964,603.496 799.228691,603.562545 799.319236,603.630182 C799.464327,603.739273 799.654145,603.767636 799.826509,603.704364 C799.996691,603.64 800.123236,603.494909 800.162509,603.317091 C800.241055,602.962545 800.133055,602.635273 800.054509,602.395273 C800.038145,602.348364 800.018509,602.289455 800.004327,602.238182 C800.188691,602.169455 800.474509,602.195636 800.783236,602.219636 C800.966509,602.236 801.151964,602.250182 801.334145,602.250182 C801.624327,602.250182 801.861055,602.02 801.870873,601.729818 C801.875236,601.556364 801.842509,601.397091 801.814145,601.256364 C801.805418,601.216 801.793418,601.163636 801.786873,601.118909 C801.789055,601.116727 801.7956,601.116727 801.8076,601.116727 L805.086873,600.293091 C805.274509,600.248364 805.421782,600.103273 805.474145,599.916727 C805.500327,599.822909 805.500327,599.724727 805.476327,599.634182 C805.477418,599.632 805.4796,599.630909 805.4796,599.628727 L805.859236,599.982182 C806.074145,600.181818 806.413418,600.170909 806.611964,599.958182 C806.651236,599.914545 806.681782,599.891636 806.690509,599.880727 C806.741782,599.909091 806.832327,599.985455 806.887964,600.033455 C806.939236,600.074909 806.990509,600.119636 807.046145,600.161091 C807.046145,600.175273 807.047236,600.190545 807.047236,600.204727 C807.053782,600.401091 807.058145,600.557091 807.034145,600.693455 C807.013418,600.811273 806.945782,600.956364 806.853055,601.084 C806.556327,601.477818 806.242145,601.854182 805.933418,602.229455 L805.686873,602.529455 C805.511236,602.743273 805.5276,603.054182 805.722873,603.248364 L805.882145,603.395636 C806.0676,603.582182 806.364327,603.606182 806.577055,603.449091 C806.661055,603.388 806.753782,603.330182 806.845418,603.271273 C807.118145,603.097818 807.426873,602.901455 807.637418,602.593818 C807.654873,602.566545 807.673418,602.541455 807.689782,602.521818 C807.7836,602.599273 807.9036,602.642909 808.029055,602.642909 L809.731964,602.645091 C810.173782,602.658182 810.898145,602.660364 811.290873,601.822545 C811.391236,601.762545 811.619236,601.701455 811.691236,601.713455 C811.8276,601.762545 811.943236,601.852 811.973782,601.929455 C811.980327,601.943636 811.997782,601.987273 811.945418,602.093091 C811.823236,602.342909 811.912691,602.645091 812.150509,602.788 C812.335964,602.899273 812.616327,603.058545 812.918509,603.230909 C813.314509,603.456727 813.749782,603.706545 814.056327,603.893091 C814.233055,604.002182 814.456691,603.997818 814.629055,603.886545 C814.8036,603.772 814.895236,603.570182 814.866873,603.364 L814.774145,602.649455 C814.799236,602.645091 814.825418,602.640727 814.852691,602.636364 C814.932327,602.622182 815.016327,602.615636 815.100327,602.608 C815.220327,602.597091 815.340327,602.585091 815.461418,602.562182 C815.776691,602.498909 816.012327,602.304727 816.129055,602.017818 C816.353782,601.453818 816.019964,600.718545 815.767964,600.342182 C815.897782,600.293091 816.004691,600.22 816.094145,600.16 C816.0996,600.156727 816.103964,600.152364 816.110509,600.149091 C816.196691,600.237455 816.312327,600.293091 816.4356,600.305091 C816.594873,600.325818 816.736691,600.274545 816.849055,600.174182 C816.958145,600.077091 817.069418,599.983273 817.181782,599.889455 C817.2516,599.830545 817.322509,599.772727 817.386873,599.714909 C817.470873,599.785818 817.5756,599.830545 817.690145,599.841455 L817.691236,599.841455 C817.972691,599.863273 818.239964,599.848 818.495236,599.803273 C818.497418,599.803273 818.4996,599.804364 818.501782,599.803273 C818.508327,599.802182 818.512691,599.797818 818.518145,599.796727 C819.225055,599.666909 819.825055,599.287273 820.297418,598.649091 C820.466509,598.424364 820.524327,598.412364 820.749055,598.554182 C821.1516,598.812727 821.745055,598.577091 821.8596,598.528 C821.964327,598.483273 822.283964,598.346909 822.352691,597.995636 C822.438873,597.479636 822.784691,597.248364 823.409782,596.864364 L824.121055,596.484727 C824.286873,596.393091 824.393782,596.219636 824.399236,596.028727 C824.404691,595.84 824.306509,595.661091 824.145055,595.560727 L823.732691,595.303273 C824.074145,594.906182 824.546509,594.498182 825.138873,594.082545 C825.268691,594.278909 825.395236,594.477455 825.5196,594.676 C825.631964,594.854909 825.744327,595.033818 825.852327,595.214909 C826.007236,595.473455 826.1556,595.733091 826.301782,595.996 C826.429418,596.226182 826.552691,596.459636 826.672691,596.692 C826.7916,596.921091 826.913782,597.149091 827.026145,597.381455 C827.249782,597.842909 827.464691,598.306545 827.662145,598.78 C827.706873,598.882545 827.743964,598.988364 827.786509,599.093091 C827.957782,599.510909 828.120327,599.933091 828.269782,600.358545 C828.316691,600.488364 828.359236,600.620364 828.403964,600.752364 C828.549055,601.183273 828.685418,601.615273 828.809782,602.052727 C828.835964,602.148727 828.865418,602.244727 828.8916,602.341818 C829.354145,604.031636 829.666145,605.767273 829.816691,607.530182 L829.816691,607.536727 C829.577782,607.228 829.365055,606.909455 829.180691,606.586545 C829.168691,606.540727 829.178509,606.406545 829.188327,606.264727 C829.195964,606.115273 829.217782,605.966909 829.238509,605.817455 C829.283236,605.507636 829.332327,605.155273 829.284327,604.811636 C829.247236,604.482182 829.153418,604.174545 829.061782,603.878909 C828.959236,603.537455 828.859964,603.215636 828.8796,602.947273 C828.936327,602.233818 828.623236,601.739636 828.372327,601.342545 C828.218509,601.101455 828.0876,600.893091 828.052691,600.671636 C828.007964,600.394545 827.745055,600.194909 827.466873,600.224364 C827.421055,600.228727 827.284691,600.234182 827.124327,600.239636 C826.511236,600.264727 826.375964,600.273455 826.282145,600.297455 C826.013782,600.362909 825.839236,600.619273 825.878509,600.893091 L826.074873,602.248 C825.952691,602.255636 825.813055,602.287273 825.708327,602.372364 C824.719964,603.201455 825.013418,603.956364 825.297055,604.688364 C825.410509,604.979636 825.539236,605.310182 825.640691,605.722545 C825.695236,605.953818 825.774873,606.275636 826.003964,606.503636 C825.887236,606.569091 825.7596,606.614909 825.614509,606.645455 C825.482509,606.674909 824.330509,606.948727 824.284691,607.651273 C824.260691,608.056 824.069782,608.196727 823.510145,608.413818 C822.5076,608.802182 821.985055,609.554909 822.001418,610.582545 C822.001418,610.798545 821.993782,611.077818 821.941418,611.318909 C821.830145,611.781455 821.709055,612.245091 821.589055,612.706545 C821.464691,613.178909 821.340327,613.650182 821.233418,614.108364 C821.114509,614.554545 821.047964,615.161091 821.404691,615.515636 C821.713418,615.811273 822.0996,615.761091 822.326509,615.729455 C822.394145,615.720727 822.509782,615.707636 822.538145,615.716364 C822.697418,615.875636 822.885055,615.901818 822.998509,615.918182 C823.092327,615.932364 823.101055,615.934545 823.126145,615.958545 C823.265782,616.091636 823.466509,616.139636 823.6476,616.082909 C823.831964,616.028364 823.972691,615.878909 824.016327,615.692364 C824.065418,615.481818 824.110145,615.270182 824.155964,615.055273 C824.568327,615.213455 825.1476,615.556 825.3036,615.761091 C825.310145,615.816727 825.322145,615.878909 825.333055,615.913818 C825.406145,616.127636 825.467236,616.345818 825.529418,616.565091 C825.673418,617.068 825.820691,617.585091 826.081418,618.058545 C826.452327,618.751273 826.588691,619.309818 826.523236,619.869455 L826.523236,619.869455 Z M825.085418,626.001455 L825.138873,625.814909 C825.169418,625.809455 825.191236,625.797455 825.2196,625.792 C825.173782,625.860727 825.131236,625.932727 825.085418,626.001455 L825.085418,626.001455 Z M818.904327,632.696364 C817.7556,631.916364 816.420327,631.229091 814.944327,630.635636 C816.643964,627.841818 818.008691,624.521091 818.927236,620.791273 C819.301418,621.16 819.883964,621.568 820.797055,621.431636 L820.798145,621.431636 C820.859236,621.431636 821.074145,621.510182 821.374145,621.758909 C821.742873,622.06 822.189055,622.362182 822.684327,622.281455 C823.1796,622.206182 823.511236,621.797091 823.7676,621.407636 C823.794873,621.365091 823.825418,621.323636 823.853782,621.282182 C823.960691,621.695636 824.0556,622.081818 824.136327,622.471273 C824.265055,623.097455 824.215964,623.113818 823.9356,623.207636 C823.559236,623.336364 823.399964,623.579636 823.330145,623.761818 C823.151236,624.240727 823.439236,624.740364 823.533055,624.901818 C823.7676,625.313091 823.751236,625.526909 823.653055,625.722182 C823.571236,625.889091 823.579964,626.086545 823.677055,626.244727 C823.775236,626.401818 823.9476,626.497818 824.133055,626.497818 L824.537782,626.497818 C824.635964,626.497818 824.728691,626.458545 824.810509,626.401818 C823.165418,628.784364 821.171236,630.905091 818.904327,632.696364 L818.904327,632.696364 Z M807.5916,638.161818 C810.129055,636.716364 812.442873,634.471273 814.374873,631.559636 C815.717782,632.087636 816.931964,632.699636 817.9956,633.388 C814.925782,635.625455 811.403236,637.269455 807.5916,638.161818 L807.5916,638.161818 Z M815.521418,621.551636 C815.477782,620.922182 815.435236,620.328727 815.452691,619.773455 C815.464691,619.723273 815.5356,619.616364 815.509418,619.615273 C816.186873,619.438545 816.911236,619.342545 817.531964,619.270545 C817.5636,619.291273 817.6116,619.328364 817.666145,619.381818 C817.805782,619.529091 817.936691,619.684 818.068691,619.837818 C817.161055,623.824 815.729782,627.337818 813.937418,630.242909 C812.129782,629.599273 810.1356,629.108364 808.030145,628.764727 C808.342145,627.420727 808.621418,625.965455 808.869055,624.414182 C809.747236,624.842909 810.754145,624.727273 811.658509,624.064 L811.867964,623.911273 C812.167964,623.689818 812.479964,623.459636 812.790873,623.341818 C812.969782,623.274182 813.271964,623.280727 813.558873,623.361455 C814.334509,623.557818 814.801418,623.352727 815.056691,623.144364 C815.301055,622.942545 815.582509,622.549818 815.541055,621.810182 L815.521418,621.551636 Z M807.773782,629.805455 C809.757055,630.122909 811.643236,630.570182 813.350509,631.161455 C810.725782,635.050545 807.408327,637.680727 803.793055,638.580727 C805.350873,636.949818 806.717782,633.944364 807.773782,629.805455 L807.773782,629.805455 Z M801.000327,638.928727 C798.888327,638.928727 796.813418,635.392 795.3276,629.725818 C797.255236,629.44 799.278873,629.286182 801.352691,629.286182 C803.184327,629.286182 804.978873,629.412727 806.709055,629.639636 C805.221055,635.424727 803.138509,638.928727 801.000327,638.928727 L801.000327,638.928727 Z M788.802873,631.355636 C790.466509,630.738182 792.3036,630.249455 794.257418,629.900364 C795.217418,633.631273 796.513418,636.805818 798.155236,638.553455 C794.623964,637.648 791.385055,635.093091 788.802873,631.355636 L788.802873,631.355636 Z M784.329055,633.618182 C785.339236,632.922182 786.505418,632.298182 787.792691,631.756 C789.689782,634.550909 791.941418,636.744727 794.414509,638.162909 C790.733782,637.302182 787.322509,635.738909 784.329055,633.618182 L784.329055,633.618182 Z M793.829782,621.746909 C794.236691,621.923636 794.587964,622.210545 794.710145,622.507273 C795.395236,624.148 796.917055,624.049818 797.418873,624.016 C797.774509,623.988727 798.172691,623.851273 798.643964,623.588364 C799.626873,623.018909 799.801418,623.030909 800.705782,623.741091 C800.981782,623.960364 801.280691,624.186182 801.650509,624.331273 C802.069418,624.476364 802.474145,624.434909 802.790509,624.209091 C803.134145,623.964727 803.3316,623.524 803.3316,623.001455 C803.3316,622.834545 803.421055,622.616364 803.520327,622.386182 C803.545418,622.391636 803.568327,622.400364 803.592327,622.406909 C803.911964,622.505091 804.163964,622.582545 804.3876,622.694909 C804.563236,622.783273 804.753055,622.96 804.816327,623.090909 C804.873055,623.213091 804.933055,623.321091 804.997418,623.417091 L804.998509,623.418182 C805.061782,623.513091 805.128327,623.596 805.197055,623.666909 C805.205782,623.674545 805.214509,623.68 805.222145,623.687636 C805.284327,623.749818 805.3476,623.804364 805.411964,623.849091 C805.737055,624.072727 806.088327,624.102182 806.389418,624.060727 C806.429782,624.055273 806.472327,624.052 806.5116,624.043273 C806.746145,623.999636 806.9676,623.978909 807.181418,623.975636 C807.220691,623.974545 807.257782,623.978909 807.295964,623.98 C807.474873,623.983273 807.649418,623.997455 807.818509,624.030182 C807.829418,624.032364 807.838145,624.036727 807.847964,624.038909 C807.593782,625.668727 807.297055,627.190545 806.9676,628.596727 C805.152327,628.352364 803.2716,628.213818 801.352691,628.213818 C799.190509,628.213818 797.076327,628.379636 795.061418,628.684 C794.566145,626.605818 794.148327,624.273455 793.829782,621.746909 L793.829782,621.746909 Z M783.869782,615.444727 C783.934145,615.420727 784.007236,615.394545 784.080327,615.370545 C784.390145,615.264727 784.816691,615.119636 785.095964,614.710545 C785.182145,614.735636 785.266145,614.757455 785.345782,614.774909 L786.489055,615.058545 C787.122873,615.212364 787.7556,615.367273 788.382873,615.535273 C788.622873,615.599636 788.8716,615.670545 789.091964,615.765455 C789.082145,615.823273 789.048327,615.908364 789.013418,615.991273 L788.952327,616.154909 C788.884691,616.345818 788.930509,616.558545 789.071236,616.705818 C789.230509,616.868364 789.412691,616.976364 789.573055,617.070182 C789.893782,617.256727 789.890509,617.270909 789.863236,617.431273 C789.835964,617.587273 789.878509,617.747636 789.979964,617.867636 C790.081418,617.987636 790.233055,618.058545 790.390145,618.058545 L791.729782,618.058545 L792.156327,621.161091 C792.178145,621.317091 792.268691,621.454545 792.401782,621.538545 C792.504327,621.602909 792.621055,621.617091 792.737782,621.606182 C793.036691,624.062909 793.458873,626.542545 794.004327,628.860727 C791.923964,629.236 789.972327,629.768364 788.208327,630.439273 C785.870509,626.737818 784.135964,622.033818 783.338509,616.699273 C783.349418,616.692727 783.362509,616.681818 783.373418,616.675273 C783.394145,616.661091 783.413782,616.648 783.436691,616.631636 C783.473782,616.605455 783.510873,616.574909 783.550145,616.541091 C783.575236,616.520364 783.598145,616.500727 783.622145,616.476727 C783.662509,616.436364 783.697418,616.391636 783.733418,616.345818 C783.751964,616.321818 783.772691,616.298909 783.789055,616.272727 C783.834873,616.197455 783.873055,616.116727 783.887236,616.030545 C783.934145,615.818909 783.907964,615.618182 783.869782,615.444727 L783.869782,615.444727 Z M772.738145,616.156 L773.030509,615.406545 L774.789055,615.406545 C775.037782,615.406545 775.252691,615.235273 775.310509,614.994182 C775.341055,614.867636 775.3836,614.733455 775.426145,614.596 C775.549418,614.204364 775.689055,613.760364 775.655236,613.293455 C775.627964,612.944364 775.733782,612.610545 775.944327,612.378182 C776.030509,612.28 776.165782,612.168727 776.329418,612.107636 C776.330509,612.118545 776.3316,612.128364 776.332691,612.141455 L776.357782,612.431636 C776.369782,612.596364 776.459236,612.745818 776.596691,612.836364 C776.737418,612.929091 776.908691,612.948727 777.064691,612.895273 C777.253418,612.830909 777.438873,612.748 777.621055,612.665091 C778.180691,612.413091 778.466509,612.302909 778.823236,612.532 C779.377418,612.890909 779.5116,613.266182 779.314145,613.917455 C779.251964,614.120364 779.317418,614.340727 779.476691,614.479273 C779.620691,614.602545 779.818145,614.640727 779.9916,614.581818 C780.013418,614.670182 780.047236,614.766182 780.101782,614.86 C780.190145,615.009455 780.343964,615.107636 780.517418,615.121818 C781.154509,615.177455 781.426145,615.349818 781.5996,615.815636 C781.716327,616.113455 781.968327,616.316364 782.233418,616.478909 C783.013418,622.033818 784.786145,626.949455 787.214509,630.842909 C785.793055,631.452727 784.5156,632.159636 783.420327,632.951636 C778.085782,628.856364 774.215236,622.948 772.738145,616.156 L772.738145,616.156 Z M772.254873,606.780727 C772.264691,606.803636 772.273418,606.832 772.282145,606.853818 C772.310509,606.925818 772.338873,606.994545 772.358509,607.054545 L772.480691,607.471273 C772.585418,607.813818 772.6836,608.14 772.732691,608.469455 C772.607236,608.587273 772.300691,608.729091 772.102145,608.772727 C772.130509,608.102909 772.181782,607.438545 772.254873,606.780727 L772.254873,606.780727 Z M772.6476,604.242182 C772.680327,604.286909 772.702145,604.338182 772.735964,604.381818 C772.684691,604.423273 772.644327,604.469091 772.600691,604.513818 C772.617055,604.424364 772.630145,604.332727 772.6476,604.242182 L772.6476,604.242182 Z M783.420327,587.048364 C784.504691,587.833818 785.766873,588.533091 787.170873,589.140727 C786.418145,590.357091 785.728691,591.686909 785.105782,593.112727 C784.447964,593.172727 783.717055,593.287273 783.445418,593.453091 C782.910873,593.776 782.716691,594.306182 782.560691,594.731636 C782.447236,595.042545 782.347964,595.310909 782.153782,595.465818 C781.732691,595.801818 781.507964,596.430182 781.289782,597.035636 C781.189418,597.318182 781.084691,597.610545 780.991964,597.761091 C780.785782,598.092727 780.647236,598.099273 780.429055,598.064364 C780.021055,598.006545 779.6196,597.924727 779.202873,597.840727 L778.624691,597.725091 C778.4676,597.695636 778.305055,597.736 778.182873,597.838545 C778.0596,597.94 777.988691,598.090545 777.988691,598.252 L777.988691,598.268364 C777.947236,598.252 777.904691,598.238909 777.862145,598.228 C777.377782,598.110182 776.929418,598.380727 776.601055,598.585818 C776.342509,598.751636 776.064327,598.894545 775.783964,599.038545 C775.553782,599.158545 775.321418,599.278545 775.097782,599.409455 C774.681055,599.651636 774.527236,599.956 774.4716,600.167636 C774.418145,600.374909 774.401782,600.706545 774.637418,601.103636 C774.694145,601.201818 774.7236,601.250909 774.504327,601.487636 C774.214145,601.807273 773.951236,602.154182 773.674145,602.517455 L773.637055,602.566545 C773.486509,602.543636 773.333782,602.539273 773.179964,602.536 L773.054509,602.532727 C774.7236,596.292727 778.4316,590.878545 783.420327,587.048364 L783.420327,587.048364 Z M794.349055,581.851273 C791.905418,583.252 789.665782,585.418545 787.765418,588.234182 C786.487964,587.694182 785.3316,587.073455 784.327964,586.381818 C787.303964,584.274182 790.693418,582.715273 794.349055,581.851273 L794.349055,581.851273 Z M794.266145,590.101818 C792.301418,589.751636 790.454509,589.259636 788.784327,588.637818 C791.402509,584.833818 794.658873,582.323636 798.167236,581.437818 C796.559236,583.158182 795.251236,586.290182 794.266145,590.101818 L794.266145,590.101818 Z M801.000327,581.071273 C803.164691,581.071273 805.231964,584.645091 806.704691,590.361455 C804.9756,590.588364 803.182145,590.713818 801.352691,590.713818 C799.274509,590.713818 797.244327,590.56 795.314509,590.272 C796.783964,584.604727 798.842509,581.071273 801.000327,581.071273 L801.000327,581.071273 Z M813.322145,588.850545 C811.618145,589.437455 809.736327,589.882545 807.757418,590.197818 C806.772327,586.349091 805.456691,583.183273 803.838873,581.446545 C807.402873,582.367273 810.701782,584.992 813.322145,588.850545 L813.322145,588.850545 Z M817.996691,586.612 C816.937418,587.298182 815.7276,587.908 814.390145,588.434909 C812.481055,585.539636 810.204327,583.301091 807.693055,581.861091 C811.465418,582.758909 814.954145,584.395273 817.996691,586.612 L817.996691,586.612 Z M790.902873,601.241091 C790.852691,601.073091 790.725055,600.942182 790.558145,600.887636 L790.360691,600.816727 C790.132691,600.733818 789.890509,600.650909 789.641782,600.609455 L789.477055,600.582182 C789.057055,600.511273 788.581418,600.430545 788.110145,600.481818 C788.0316,600.489455 787.8996,600.503636 787.794873,600.510182 C787.790509,600.448 787.783964,600.360727 787.781782,600.241818 L787.781782,600.069455 C787.781782,599.858909 787.6596,599.669091 787.468691,599.581818 C787.281055,599.492364 787.056327,599.524 786.897055,599.661455 L786.477055,600.013818 C786.184691,599.683273 785.867236,599.432364 785.465782,599.401818 C785.033782,599.365818 784.666145,599.600364 784.2516,599.966909 C784.166509,599.937455 784.077055,599.918909 783.990873,599.905818 C784.165418,599.162909 784.360691,598.430909 784.572327,597.710909 C784.579964,597.736 784.595236,597.751273 784.601782,597.774182 C784.6476,597.904 784.701055,598.020727 784.764327,598.122182 C784.785055,598.158182 784.806873,598.192 784.829782,598.223636 C784.915964,598.339273 785.010873,598.440727 785.125418,598.518182 C785.284691,598.624 785.533418,598.726545 785.873782,598.705818 C785.986145,598.699273 786.109418,598.678545 786.2436,598.640364 C786.577418,598.543273 786.918873,598.290182 787.147964,597.989091 C787.223236,597.888727 787.286509,597.785091 787.333418,597.677091 C787.762145,596.702909 787.751236,595.689455 787.298509,594.742545 C787.270145,594.688 787.255964,594.644364 787.247236,594.616 C787.413055,594.179636 787.322509,593.855636 787.209055,593.656 C787.125055,593.504364 786.998509,593.378909 786.844691,593.280727 C786.841418,593.278545 786.839236,593.274182 786.835964,593.272 C786.683236,593.176 786.499964,593.113818 786.300327,593.082182 C786.294873,593.082182 786.2916,593.077818 786.286145,593.077818 C786.862145,591.810182 787.500327,590.638545 788.183236,589.552 C789.955964,590.228364 791.918509,590.764 794.008691,591.141455 C793.245055,594.378182 792.703964,598.029455 792.3996,601.689455 C792.390873,601.697091 792.378873,601.696 792.371236,601.703636 C792.309055,601.764727 792.247964,601.826909 792.187964,601.886909 C792.112691,601.826909 792.018873,601.785455 791.920691,601.773455 L791.449418,601.715636 C791.250873,601.691636 791.057782,601.667636 790.866873,601.641455 C790.929055,601.520364 790.944327,601.375273 790.902873,601.241091 L790.902873,601.241091 Z M808.117418,600.167636 L808.110873,599.86 C808.110873,599.646182 807.967964,599.446545 807.772691,599.361455 C807.7356,599.346182 807.642873,599.267636 807.581782,599.215273 C807.421418,599.08 807.101782,598.809455 806.700327,598.798545 C806.566145,598.795273 806.424327,598.819273 806.278145,598.888 C806.302145,598.749455 806.242145,598.598909 806.166873,598.477818 C806.085055,598.345818 805.905055,598.249818 805.752327,598.224727 C805.602873,598.201818 805.255964,598.144 805.072691,598.413455 C804.844691,598.689455 804.629782,598.977455 804.382145,599.303636 C804.365782,599.326545 804.353782,599.349455 804.343964,599.375636 L801.553418,600.074909 C800.803964,600.256 800.697055,600.765455 800.716691,601.139636 C800.344691,601.112364 799.942145,601.101455 799.576691,601.253091 C799.038873,601.466909 798.913418,601.837818 798.919964,602.167273 C798.634145,602.134545 798.288327,602.214182 797.853055,602.509818 C797.776691,602.561091 797.714509,602.630909 797.674145,602.712727 C797.412327,603.237455 797.721055,603.730545 797.976327,604.102545 C797.605418,604.665455 797.116691,605.508727 796.824327,606.130545 C796.662873,606.151273 796.501418,606.204727 796.3476,606.256 C796.425055,605.131273 796.919236,603.191636 797.268327,602.555636 C797.423236,602.281818 797.4876,601.980727 797.544327,601.715636 C797.562873,601.629455 797.581418,601.541091 797.603236,601.456 C797.649055,601.276 797.599964,601.084 797.470145,600.950909 C797.411236,600.888727 797.338145,600.848364 797.260691,600.822182 C797.238873,600.813455 797.214873,600.812364 797.191964,600.808 C797.154873,600.799273 797.121055,600.786182 797.085055,600.786182 C797.046873,600.786182 797.008691,600.790545 796.970509,600.798182 C796.862509,600.821091 796.745782,600.834182 796.633418,600.846182 C796.300691,600.883273 795.925418,600.925818 795.614509,601.158182 C795.151964,601.493091 794.785418,601.925091 794.429782,602.341818 L794.241055,602.561091 C794.167964,602.645091 794.112327,602.744364 794.074145,602.849091 C793.948691,602.515273 793.762145,602.181455 793.454509,601.912 C793.777418,597.954182 794.335964,594.366182 795.057055,591.314909 C797.071964,591.620364 799.188327,591.786182 801.352691,591.786182 C803.270509,591.786182 805.151236,591.648727 806.965418,591.403273 C807.654873,594.345455 808.193782,597.789455 808.517782,601.571636 L808.271236,601.571636 C808.153418,601.466909 808.033418,601.409091 807.923236,601.378545 C807.996327,601.230182 808.0596,601.06 808.090145,600.877818 C808.133782,600.635636 808.125055,600.408727 808.117418,600.167636 L808.117418,600.167636 Z M814.8636,600.917091 C815.008691,601.123273 815.102509,601.377455 815.126509,601.528 C815.086145,601.532364 815.0436,601.536727 815.002145,601.541091 C814.885418,601.552 814.768691,601.564 814.680327,601.580364 C814.560327,601.596727 814.438145,601.618545 814.301782,601.643636 L814.087964,601.680727 C813.802145,601.729818 813.606873,601.994909 813.647236,602.282909 L813.664691,602.423636 C813.592691,602.383273 813.5196,602.341818 813.448691,602.301455 C813.309055,602.220727 813.172691,602.143273 813.049418,602.071273 C813.067964,601.849818 813.023236,601.664364 812.9676,601.528 C812.821418,601.163636 812.489782,600.864727 812.069782,600.712 C811.939964,600.660727 811.781782,600.64 811.6116,600.647636 C811.102145,600.666182 810.5076,600.930182 810.336327,601.334909 C810.239236,601.560727 810.186873,601.585818 809.747236,601.572727 L809.591236,601.572727 C809.286873,597.991273 808.756691,594.418545 808.012691,591.239636 C810.119236,590.896 812.116691,590.406182 813.925418,589.762545 C815.4276,592.183273 816.674509,595.029455 817.570145,598.209455 C817.561418,598.210545 817.555964,598.220364 817.547236,598.221455 C817.439236,598.24 817.336691,598.282545 817.255964,598.362182 L817.096691,598.524727 C816.990873,598.632727 816.913418,598.713455 816.814145,598.795273 C816.709418,598.888 816.602509,598.978545 816.493418,599.068 C816.490145,599.071273 816.484691,599.075636 816.480327,599.08 C816.191236,598.956727 815.861782,599.023273 815.495236,599.272 C815.454873,599.297091 815.417782,599.327636 815.394873,599.339636 C814.910509,599.457455 814.733782,599.754182 814.670509,599.921091 C814.589782,600.134909 814.557055,600.479636 814.8636,600.917091 L814.8636,600.917091 Z M824.534509,593.207636 C823.607236,593.86 822.914509,594.515636 822.502145,595.161455 C822.424691,595.281455 822.400691,595.427636 822.430145,595.566182 C822.462873,595.705818 822.546873,595.825818 822.665782,595.901091 L822.797782,595.982909 C822.245782,596.321091 821.582509,596.74 821.349055,597.573455 C821.309782,597.585455 821.270509,597.594182 821.238873,597.597455 C820.565782,597.216727 819.931964,597.359636 819.438873,598.005455 C819.239236,598.276 819.018873,598.464727 818.774509,598.592364 C817.854873,595.096 816.562145,591.981455 814.974873,589.353455 C816.439964,588.763273 817.765418,588.079273 818.905418,587.303636 C821.046873,588.997818 822.942873,590.985455 824.534509,593.207636 L824.534509,593.207636 Z M830.974145,608.993091 L830.975236,608.990909 L830.974145,608.98 C830.926145,607.559636 830.779964,606.163273 830.539964,604.798545 L830.517055,604.677455 C830.275964,603.331273 829.946509,602.016727 829.530873,600.739273 C829.497055,600.636727 829.462145,600.535273 829.426145,600.433818 C829.2516,599.915636 829.063964,599.404 828.862145,598.898909 C828.810873,598.770182 828.762873,598.641455 828.709418,598.513818 C828.479236,597.959636 828.233782,597.413091 827.970873,596.877455 C827.878145,596.686545 827.778873,596.5 827.682873,596.312364 C827.498509,595.955636 827.308691,595.603273 827.110145,595.254182 C826.9836,595.029455 826.857055,594.804727 826.725055,594.584364 C826.447964,594.124 826.161055,593.670182 825.861055,593.226182 C825.817418,593.160727 825.780327,593.094182 825.736691,593.028727 C825.722509,593.010182 825.702873,592.999273 825.6876,592.981818 C823.920327,590.425818 821.765782,588.158909 819.311236,586.259636 C819.276327,586.228 819.241418,586.196364 819.199964,586.174545 C814.147964,582.305091 807.840327,580 801.000327,580 C794.325055,580 788.152691,582.193818 783.163964,585.894182 C783.121418,585.914909 783.086509,585.945455 783.049418,585.978182 C775.939964,591.302909 771.271964,599.709455 771.019964,609.198182 L771.019964,609.199273 L771.012327,609.427273 C771.006873,609.616 771.000327,609.806909 771.000327,610 C771.000327,611.588364 771.126873,613.148364 771.365782,614.670182 C771.374509,614.729091 771.3876,614.786909 771.397418,614.844727 C771.468327,615.288727 771.549055,615.729455 771.640691,616.165818 C771.645055,616.187636 771.647236,616.208364 771.6516,616.230182 C771.652691,616.233455 771.655964,616.234545 771.657055,616.238909 C773.195236,623.482545 777.352691,629.769455 783.091964,634.053455 C783.120327,634.074182 783.146509,634.100364 783.178145,634.115636 C788.164691,637.809455 794.330509,640 801.000327,640 C807.839236,640 814.147964,637.694909 819.198873,633.826545 C819.242509,633.803636 819.280691,633.769818 819.316691,633.734909 C826.416327,628.243273 831.000327,619.650182 831.000327,610 C831.000327,609.661818 830.986145,609.328 830.974145,608.993091 L830.974145,608.993091 Z"
                id="5"></path>
        </g>
    </g>
</svg>