<svg xmlns="http://www.w3.org/2000/svg" width="57" height="57" viewBox="0 0 57 57"><g><g><g><path fill="#fff" d="M47.688 38.32c0 1.914-.3 3.76-.852 5.5.097-.003.191-.018.288-.018 5.446 0 9.876 4.314 9.876 9.614a.556.556 0 0 1-.563.548.557.557 0 0 1-.564-.548c0-4.697-3.923-8.518-8.749-8.518-.24 0-.471.025-.705.045C43.665 51.98 36.682 57 28.5 57s-15.165-5.02-17.92-12.057c-.233-.02-.465-.045-.704-.045-4.824 0-8.75 3.821-8.75 8.518a.557.557 0 0 1-.563.548.557.557 0 0 1-.563-.548c0-5.3 4.43-9.614 9.876-9.614.097 0 .19.015.288.019a18.151 18.151 0 0 1-.852-5.5v-4.457H.563a.557.557 0 0 1-.563-.55c0-.302.253-.548.563-.548h8.75V22.97c0-.057.006-.112.007-.169C4.133 22.516 0 18.332 0 13.214c0-.303.253-.549.563-.549.311 0 .564.246.564.549 0 4.543 3.673 8.255 8.28 8.495.5-3.66 3.145-6.766 6.812-7.893.695-3.543 3.3-5.928 7.47-6.916-3.358-.946-5.065-3.066-5.065-6.352 0-.302.253-.548.564-.548.31 0 .563.246.563.548 0 3.978 2.78 5.83 8.749 5.83 5.97 0 8.749-1.852 8.749-5.83 0-.302.253-.548.563-.548.31 0 .564.246.564.548 0 3.286-1.706 5.406-5.067 6.352 4.171.988 6.775 3.373 7.47 6.916 3.67 1.127 6.314 4.233 6.815 7.893 4.606-.24 8.28-3.952 8.28-8.495 0-.303.252-.549.563-.549.312 0 .563.246.563.549 0 5.118-4.133 9.302-9.32 9.586.001.057.008.112.008.169v9.797h8.749c.312 0 .563.246.563.548 0 .304-.251.55-.563.55h-8.75zM28.5 7.476c-3.916 0-10.269.939-11.217 6.815a9.737 9.737 0 0 0-.132 1.546c0 1.404.263 2.296.805 2.726.865.687 2.596.346 4.784-.087 1.715-.34 3.66-.723 5.76-.723 2.1 0 4.044.383 5.76.723 2.19.432 3.92.773 4.783.087.542-.43.804-1.322.804-2.726 0-.537-.05-1.03-.122-1.501l-.01-.045c-.946-5.876-7.3-6.815-11.215-6.815zM10.439 38.326c0 9.513 7.801 17.267 17.498 17.56V18.874c-1.778.06-3.468.378-4.973.677-2.482.49-4.443.876-5.72-.14-.831-.662-1.218-1.796-1.218-3.575 0-.268.02-.526.037-.785-3.342 1.251-5.624 4.381-5.624 7.92zm18.624 17.56c9.697-.293 17.498-8.047 17.498-17.56V22.971c0-3.539-2.282-6.669-5.625-7.92.018.259.037.517.037.785 0 1.779-.386 2.913-1.218 3.575-.588.469-1.32.64-2.182.64-1.01 0-2.197-.236-3.538-.5-1.503-.298-3.194-.617-4.972-.677z"/></g></g></g></svg>