<svg
    class="advantages__icon"
    width="53px"
    height="55px"
    viewBox="0 0 53 55"
    version="1.1"
    xmlns="http://www.w3.org/2000/svg"
    xmlns:xlink="http://www.w3.org/1999/xlink">
    <g id="3-Dev" stroke="none" stroke-width="1" fill="none" fill-rule="evenodd">
        <g
            id="Trend-Pro_1920-3_price-3"
            transform="translate(-658.000000, -387.000000)"
            fill="#FFFFFF">
            <g id="6" transform="translate(658.000000, 387.000000)">
                <path
                    d="M27.8984,24.167 C27.7264,24.292 27.6554,24.514 27.7204,24.716 L28.2954,26.49 L26.7894,25.394 C26.7024,25.332 26.6014,25.3 26.5004,25.3 C26.3984,25.3 26.2974,25.332 26.2114,25.394 L24.7044,26.49 L25.2794,24.716 C25.3444,24.514 25.2734,24.292 25.1014,24.167 L23.5934,23.07 L25.4574,23.07 C25.6694,23.07 25.8574,22.934 25.9234,22.731 L26.5004,20.958 L27.0764,22.731 C27.1424,22.934 27.3304,23.07 27.5434,23.07 L29.4064,23.07 L27.8984,24.167 Z M30.9174,22.089 L27.8994,22.089 L26.9664,19.217 C26.8344,18.813 26.1664,18.813 26.0334,19.217 L25.1004,22.089 L22.0834,22.089 C21.8714,22.089 21.6824,22.226 21.6164,22.428 C21.5514,22.631 21.6234,22.852 21.7944,22.977 L24.2364,24.752 L23.3034,27.624 C23.2384,27.826 23.3104,28.048 23.4814,28.172 C23.6544,28.297 23.8864,28.297 24.0584,28.172 L26.5004,26.398 L28.9414,28.172 C29.0274,28.234 29.1274,28.267 29.2294,28.267 C29.3314,28.267 29.4314,28.234 29.5184,28.172 C29.6894,28.048 29.7614,27.826 29.6964,27.624 L28.7634,24.752 L31.2054,22.977 C31.3774,22.852 31.4484,22.631 31.3834,22.428 C31.3174,22.226 31.1284,22.089 30.9174,22.089 L30.9174,22.089 Z"
                    id="Fill-1"></path>
                <path
                    d="M26.5,30.4463 C22.712,30.4463 19.63,27.3613 19.63,23.5713 C19.63,19.7813 22.712,16.6963 26.5,16.6963 C30.288,16.6963 33.37,19.7813 33.37,23.5713 C33.37,27.3613 30.288,30.4463 26.5,30.4463 M34.352,23.5713 C34.352,19.2393 30.829,15.7153 26.5,15.7153 C22.171,15.7153 18.648,19.2393 18.648,23.5713 C18.648,27.9043 22.171,31.4283 26.5,31.4283 C30.829,31.4283 34.352,27.9043 34.352,23.5713"
                    id="Fill-3"></path>
                <path
                    d="M49.0186,2.9043 L48.9696,2.9043 C48.6986,2.9043 48.5036,3.1243 48.5036,3.3953 C48.5036,3.6673 48.7476,3.8863 49.0186,3.8863 C49.2896,3.8863 49.5096,3.6673 49.5096,3.3953 C49.5096,3.1243 49.2896,2.9043 49.0186,2.9043"
                    id="Fill-5"></path>
                <path
                    d="M52.0186,5.8926 L0.9816,5.8926 L0.9816,2.4546 C0.9816,1.6426 1.6416,0.9826 2.4536,0.9826 L50.5466,0.9826 C51.3586,0.9826 52.0186,1.6426 52.0186,2.4546 L52.0186,5.8926 Z M52.0186,40.7586 C52.0186,41.5716 51.3586,42.2326 50.5466,42.2326 L31.4076,42.2326 L31.4076,34.8596 L32.0746,35.1036 C32.2056,35.1526 32.3496,35.1426 32.4716,35.0776 C32.5936,35.0126 32.6836,34.8996 32.7186,34.7656 L33.5266,31.6276 L36.7356,31.2046 C36.8726,31.1856 36.9966,31.1106 37.0756,30.9966 C37.1546,30.8816 37.1816,30.7406 37.1486,30.6046 L36.4086,27.4526 L39.0506,25.5836 C39.1646,25.5036 39.2396,25.3786 39.2556,25.2426 C39.2726,25.1036 39.2306,24.9656 39.1396,24.8616 L37.0196,22.4136 L38.4926,19.5296 C38.5556,19.4066 38.5636,19.2616 38.5146,19.1316 C38.4646,19.0016 38.3636,18.8996 38.2346,18.8486 L35.2206,17.6676 L35.1856,14.4286 C35.1836,14.2906 35.1236,14.1606 35.0206,14.0676 C34.9156,13.9756 34.7806,13.9356 34.6416,13.9466 L31.4246,14.3026 L29.8906,11.4516 C29.8246,11.3296 29.7096,11.2416 29.5766,11.2066 C29.4386,11.1726 29.2976,11.1996 29.1836,11.2766 L26.4996,13.0866 L23.8166,11.2766 C23.7026,11.1996 23.5616,11.1756 23.4236,11.2066 C23.2896,11.2416 23.1756,11.3296 23.1096,11.4516 L21.5756,14.3026 L18.3586,13.9466 C18.2246,13.9356 18.0836,13.9756 17.9796,14.0676 C17.8756,14.1606 17.8166,14.2906 17.8146,14.4286 L17.7796,17.6676 L14.7656,18.8486 C14.6366,18.8996 14.5356,19.0016 14.4856,19.1316 C14.4366,19.2616 14.4446,19.4066 14.5076,19.5296 L15.9806,22.4136 L13.8606,24.8616 C13.7696,24.9656 13.7276,25.1036 13.7446,25.2426 C13.7606,25.3786 13.8356,25.5036 13.9496,25.5836 L16.5916,27.4526 L15.8516,30.6046 C15.8186,30.7406 15.8456,30.8816 15.9246,30.9966 C16.0036,31.1106 16.1266,31.1856 16.2646,31.2046 L19.4736,31.6276 L20.2816,34.7656 C20.3166,34.8996 20.4066,35.0126 20.5286,35.0776 C20.6506,35.1416 20.7956,35.1506 20.9256,35.1036 L21.5926,34.8596 L21.5926,42.2326 L2.4536,42.2326 C1.6416,42.2326 0.9816,41.5716 0.9816,40.7586 L0.9816,6.8746 L52.0186,6.8746 L52.0186,40.7586 Z M29.0626,32.9516 C28.8786,32.8826 28.6646,32.9346 28.5306,33.0816 L26.4996,35.3266 L24.4696,33.0816 C24.3746,32.9776 24.2426,32.9206 24.1056,32.9206 C24.0486,32.9206 23.9926,32.9306 23.9376,32.9516 L21.0956,33.9946 L20.3406,31.0626 C20.2906,30.8686 20.1276,30.7246 19.9296,30.6976 L16.9306,30.3016 L17.6226,27.3546 C17.6686,27.1596 17.5916,26.9556 17.4276,26.8406 L14.9566,25.0946 L16.9396,22.8066 C17.0706,22.6556 17.0966,22.4396 17.0056,22.2616 L15.6276,19.5666 L18.4466,18.4616 C18.6316,18.3886 18.7556,18.2096 18.7576,18.0106 L18.7896,14.9826 L21.7966,15.3156 C21.9876,15.3306 22.1876,15.2366 22.2836,15.0606 L23.7176,12.3946 L26.2256,14.0876 C26.3906,14.1996 26.6096,14.1996 26.7746,14.0876 L29.2826,12.3946 L30.7166,15.0606 C30.8126,15.2366 31.0086,15.3316 31.2036,15.3156 L34.2096,14.9826 L34.2426,18.0106 C34.2446,18.2096 34.3686,18.3886 34.5536,18.4616 L37.3726,19.5666 L35.9946,22.2616 C35.9036,22.4396 35.9296,22.6556 36.0606,22.8066 L38.0426,25.0946 L35.5726,26.8406 C35.4086,26.9556 35.3316,27.1596 35.3766,27.3546 L36.0696,30.3016 L33.0706,30.6976 C32.8726,30.7246 32.7086,30.8686 32.6596,31.0626 L31.9046,33.9946 L29.0626,32.9516 Z M30.4256,53.5906 L26.9906,51.2996 L26.9906,36.2476 L29.0366,33.9876 L30.4256,34.4976 L30.4256,53.5906 Z M26.0096,51.2996 L22.5746,53.5906 L22.5746,34.4976 L23.9636,33.9876 L26.0096,36.2476 L26.0096,51.2996 Z M50.5466,-0.0004 L2.4536,-0.0004 C1.1006,-0.0004 -0.0004,1.1016 -0.0004,2.4546 L-0.0004,40.7586 C-0.0004,42.1136 1.1006,43.2146 2.4536,43.2146 L21.5926,43.2146 L21.5926,54.5086 C21.5926,54.6906 21.6926,54.8566 21.8516,54.9416 C21.9236,54.9806 22.0036,54.9996 22.0826,54.9996 C22.1776,54.9996 22.2736,54.9726 22.3556,54.9176 L26.4996,52.1526 L30.6446,54.9176 C30.7266,54.9726 30.8226,54.9996 30.9166,54.9996 C30.9966,54.9996 31.0766,54.9806 31.1486,54.9416 C31.3076,54.8566 31.4076,54.6906 31.4076,54.5086 L31.4076,43.2146 L50.5466,43.2146 C51.8996,43.2146 52.9996,42.1136 52.9996,40.7586 L52.9996,2.4546 C52.9996,1.1016 51.8996,-0.0004 50.5466,-0.0004 L50.5466,-0.0004 Z"
                    id="Fill-7"></path>
                <path
                    d="M43.1787,2.9043 L43.1297,2.9043 C42.8587,2.9043 42.6627,3.1243 42.6627,3.3953 C42.6627,3.6673 42.9077,3.8863 43.1787,3.8863 C43.4497,3.8863 43.6687,3.6673 43.6687,3.3953 C43.6687,3.1243 43.4497,2.9043 43.1787,2.9043"
                    id="Fill-10"></path>
                <path
                    d="M46.1104,2.9043 L46.0394,2.9043 C45.7674,2.9043 45.5844,3.1243 45.5844,3.3953 C45.5844,3.6673 45.8394,3.8863 46.1104,3.8863 C46.3814,3.8863 46.6014,3.6673 46.6014,3.3953 C46.6014,3.1243 46.3814,2.9043 46.1104,2.9043"
                    id="Fill-12"></path>
                <path
                    d="M4.3633,3.0527 C4.2753,3.1427 4.2153,3.2697 4.2153,3.3977 C4.2153,3.5257 4.2643,3.6527 4.3633,3.7397 C4.4513,3.8287 4.5783,3.8887 4.7063,3.8887 C4.8433,3.8887 4.9623,3.8287 5.0593,3.7397 C5.1483,3.6527 5.1973,3.5257 5.1973,3.3977 C5.1973,3.2697 5.1483,3.1427 5.0593,3.0527 C4.8733,2.8577 4.5393,2.8667 4.3633,3.0527"
                    id="Fill-14"></path>
            </g>
        </g>
    </g>
</svg>