<svg
    class="advantages__icon available"
    width="60px"
    height="58px"
    viewBox="0 0 60 58"
    version="1.1"
    xmlns="http://www.w3.org/2000/svg"
    xmlns:xlink="http://www.w3.org/1999/xlink">
        <g fill="none" fill-rule="evenodd">
            <path d="M34.018 67h-.022a.604.604 0 0 1-.588-.62c.886-24.892-2.283-36.123-2.418-36.59a.595.595 0 0 1 .42-.738.608.608 0 0 1 .754.412c.137.472 3.357 11.879 2.464 36.959a.605.605 0 0 1-.61.577" fill="#FFF"></path>
            <g transform="translate(12.353)">
                <mask id="b" fill="#fff">
                    <use xlink:href="#a"></use>
                </mask>
                <path d="M50.034 36.54a.606.606 0 0 1-.606-.54c-.454-4.532-1.502-12.797-3.42-17.25-4.6-10.664-15.216-17.554-27.039-17.554-3.91 0-7.713.747-11.3 2.22a35.735 35.735 0 0 0-5.691 2.926.616.616 0 0 1-.844-.175.59.59 0 0 1 .18-.828 36.887 36.887 0 0 1 5.884-3.028A30.88 30.88 0 0 1 18.97.001c12.315 0 23.37 7.175 28.164 18.285 1.98 4.598 3.05 12.998 3.512 17.597a.604.604 0 0 1-.549.654l-.062.002" fill="#FFF" mask="url(#b)"></path>
            </g>
            <g transform="translate(0 8.527)">
                <mask id="d" fill="#fff">
                    <use xlink:href="#c"></use>
                </mask>
                <path d="M2.897 36.956a.612.612 0 0 1-.587-.429C-2.247 21.531-.035 9.141 8.707.7a.619.619 0 0 1 .863.007.588.588 0 0 1-.008.847c-8.399 8.11-10.5 20.087-6.08 34.634a.597.597 0 0 1-.411.743.628.628 0 0 1-.174.026" fill="#FFF" mask="url(#d)"></path>
            </g>
            <path d="M10.84 57.566a.604.604 0 0 1-.611-.598c0-8.72-.022-13.8-.47-16.827-.2-1.347-.56-2.644-.942-3.964C5.597 25.037 11.4 13.272 22.32 8.81c3.124-1.273 6.444-1.845 9.859-1.75 8.75.306 18.67 7.853 21.658 16.479 2.56 7.39 2.58 19.847 2.26 31.06-.01.33-.317.59-.627.583a.605.605 0 0 1-.594-.615c.316-11.106.303-23.433-2.196-30.642-2.843-8.205-12.25-15.38-20.542-15.67a22.424 22.424 0 0 0-9.347 1.658c-10.35 4.23-15.852 15.381-12.8 25.938.395 1.36.765 2.7.977 4.12.46 3.105.481 8.221.481 16.997 0 .33-.273.598-.61.598" fill="#FFF"></path>
            <path d="M48.102 61.047h-.022a.604.604 0 0 1-.588-.62c.67-18.795.486-29.554-2.38-36.186-2.345-5.44-7.758-8.955-13.79-8.955-1.082 0-2.158.115-3.203.341a.61.61 0 0 1-.73-.454.598.598 0 0 1 .464-.714 16.432 16.432 0 0 1 3.469-.37c6.523 0 12.377 3.803 14.915 9.685 2.956 6.84 3.153 17.724 2.475 36.696a.605.605 0 0 1-.61.577M19.23 58.742a.604.604 0 0 1-.61-.599c0-14.077-2.498-22.69-2.522-22.776-1.988-7.198.412-14.596 5.972-18.422a.619.619 0 0 1 .85.147.588.588 0 0 1-.15.832c-5.138 3.536-7.348 10.418-5.496 17.12.023.077 2.567 8.854 2.567 23.1 0 .33-.273.598-.61.598m21.677 5.831h-.02a.604.604 0 0 1-.59-.619c.053-1.465 0-3.748-.046-5.762l-.017-.755c-.023-1.106-.047-2.104-.042-2.831a.606.606 0 0 1 .61-.594h.004a.605.605 0 0 1 .607.601c-.004.719.018 1.706.042 2.798l.017.753c.046 2.03.099 4.332.046 5.832a.605.605 0 0 1-.61.577" fill="#FFF"></path>
            <path d="M26.424 64.614a.603.603 0 0 1-.61-.597c0-12.58-.705-28.15-1.753-31.278-1.368-4.057.464-8.286 4.259-9.835a7.89 7.89 0 0 1 3.002-.59c3.14 0 5.964 1.833 7.192 4.67 2.278 5.283 2.952 14.76 3.116 21.776a.604.604 0 0 1-.596.612h-.015a.606.606 0 0 1-.61-.584c-.162-6.914-.817-16.228-3.02-21.339-1.036-2.392-3.419-3.938-6.067-3.938-.871 0-1.723.167-2.533.498-3.199 1.306-4.733 4.897-3.57 8.354 1.122 3.344 1.815 19.033 1.815 31.654 0 .33-.273.597-.61.597" fill="#FFF"></path>
        </g>
</svg>