<svg
    xmlns="http://www.w3.org/2000/svg"
    width="45"
    height="43"
    viewBox="0 0 45 43">
    <defs>
        <clipPath id="sjiua"><path d="M17.91 42.995h26.845V14.7H17.91v28.295z"/></clipPath>
        <clipPath id="sjiub"><path d="M16.67.25h2.944v3.482H16.67V.25z"/></clipPath>
    </defs>
    <g>
        <g>
            <g><path
                fill="#fff"
                d="M21.56 20.399a.391.391 0 0 0-.54.093.378.378 0 0 0 .095.532l3.848 2.656a.389.389 0 0 0 .539-.094.376.376 0 0 0-.094-.53z"/></g>
            <g><g/>
                <g clip-path="url(#sjiua)"><path
                    fill="#fff"
                    d="M44.59 29.422a.378.378 0 0 1 .094.533L42.7 32.746c.056.148.102.3.132.459a2.65 2.65 0 0 1-.455 2.015 2.743 2.743 0 0 1-2.245 1.15h-.004l-1.968 2.771a.39.39 0 0 1-.539.094.378.378 0 0 1-.095-.533l1.754-2.47a2.759 2.759 0 0 1-.506-.229 2.992 2.992 0 0 1-3.542.09l-1.243-1.042-2.251 3.17v.001h-.001l-2.105 2.964a4.28 4.28 0 0 1-2.775 1.744 4.31 4.31 0 0 1-3.215-.703 4.209 4.209 0 0 1-1.056-5.908l.907-1.277 3.919-5.518-4.656-3.912-.82 1.155c-.43.606-1.12.93-1.817.93-.439 0-.881-.127-1.267-.393a2.168 2.168 0 0 1-.544-3.04l1.125-1.584a2.392 2.392 0 0 1 .033-2.736l.517-.727a2.471 2.471 0 0 1 2.595-.966l1.12-1.576a2.234 2.234 0 0 1 3.082-.535c1.001.689 1.244 2.054.544 3.04l-.816 1.148 5.321 2.975 2.723-3.832 2.105-2.964c1.36-1.916 4.048-2.383 5.991-1.041a4.209 4.209 0 0 1 1.056 5.906l-.907 1.276v.003s-.002 0-.002.002l-3.448 4.853 1.388.776a2.944 2.944 0 0 1 1.153 3.335c.144.12.274.252.39.395l1.772-2.496a.39.39 0 0 1 .539-.094zm-8.562 1.418l4.706-6.628-5.776-3.991-2.7 3.804-3.052 4.301v.001l-.96 1.351-2.698 3.803 5.775 3.99 2.271-3.2.001-.002zm-5.145 7.256l-5.78-3.99-.753 1.062 5.779 3.99zM28.52 26.879c.044.244.154.462.308.65l1.576-2.23a1.44 1.44 0 0 0-1.647.52c-.218.31-.303.687-.237 1.06zm6.888-7.28l5.78 3.997.753-1.063-5.779-3.998zm1.197-1.69l5.78 3.991.686-.966a3.452 3.452 0 0 0-.867-4.844c-1.591-1.1-3.796-.716-4.913.855zm-13.287.633l2.516 1.407.858-1.208a1.41 1.41 0 0 0-.355-1.977 1.456 1.456 0 0 0-2.006.35zm-1.143 6.573l-2.208-1.85-1.024 1.437a1.407 1.407 0 0 0 .357 1.976 1.465 1.465 0 0 0 2.01-.348zm5.683 3.78l.516-.725a2.16 2.16 0 0 1-.25-2.79 2.231 2.231 0 0 1 2.745-.723l.516-.725-8.536-4.774a1.723 1.723 0 0 0-.84-.22c-.538 0-1.062.253-1.392.717l-.516.728a1.646 1.646 0 0 0 .097 2.042l.005.004c.058.067.118.132.188.191zm1.838 10.887l-5.788-3.99-.686.966a3.449 3.449 0 0 0 .867 4.844 3.556 3.556 0 0 0 2.64.576 3.516 3.516 0 0 0 2.28-1.43zm7.642-3.95a2.217 2.217 0 0 0 1.436-.902l2.095-2.952a2.176 2.176 0 0 0-.547-3.052l-1.419-.791-2.552 3.592-1.915 2.696 1.27 1.067c.457.314 1.05.444 1.632.342zm4.407-1.042c.3-.424.416-.94.324-1.45a1.914 1.914 0 0 0-.518-1.007c-.019.027-.029.057-.048.084l-2.096 2.96c-.02.027-.044.047-.063.073a1.98 1.98 0 0 0 2.4-.66z"/></g>
            </g>
            <g><path
                fill="#fff"
                d="M30.41 7.765a3.438 3.438 0 0 1 2.543.555 3.33 3.33 0 0 1 1.4 2.167 3.29 3.29 0 0 1-.564 2.507 3.385 3.385 0 0 1-2.197 1.38 3.43 3.43 0 0 1-2.542-.554.39.39 0 0 0-.54.092.377.377 0 0 0 .095.532 4.183 4.183 0 0 0 3.122.682 4.153 4.153 0 0 0 2.696-1.693c.64-.903.887-1.995.693-3.078a4.087 4.087 0 0 0-1.718-2.659 4.203 4.203 0 0 0-3.122-.683.381.381 0 1 0 .134.752"/></g>
            <g><path
                fill="#fff"
                d="M26.168 10.047a2.728 2.728 0 0 1-2.028-.443.392.392 0 0 0-.54.093.377.377 0 0 0 .096.532 3.495 3.495 0 0 0 2.606.57 3.475 3.475 0 0 0 2.252-1.414c.535-.753.74-1.665.579-2.57a3.415 3.415 0 0 0-1.436-2.221 3.495 3.495 0 0 0-2.606-.57.383.383 0 0 0-.314.443.386.386 0 0 0 .448.309 2.742 2.742 0 0 1 2.03.444 2.655 2.655 0 0 1 .665 3.727 2.702 2.702 0 0 1-1.752 1.1"/></g>
            <g><path
                fill="#fff"
                d="M21.459 6.903a2.446 2.446 0 0 0 2.016-1.033 2.403 2.403 0 0 0-.603-3.37 2.453 2.453 0 0 0-1.835-.402.381.381 0 1 0 .135.752 1.7 1.7 0 0 1 1.256.274c.367.254.612.634.69 1.072.078.434-.021.875-.278 1.238a1.672 1.672 0 0 1-1.084.68 1.69 1.69 0 0 1-1.257-.275.391.391 0 0 0-.539.096.377.377 0 0 0 .096.53 2.46 2.46 0 0 0 1.403.438"/></g>
            <g><g/>
                <g clip-path="url(#sjiub)"><path
                    fill="#fff"
                    d="M17.845 3.732a1.76 1.76 0 0 0 1.449-.743 1.727 1.727 0 0 0-.433-2.424 1.779 1.779 0 0 0-1.32-.288.384.384 0 0 0-.314.442.387.387 0 0 0 .448.309c.26-.042.524.012.741.163a.97.97 0 0 1 .244 1.36 1.003 1.003 0 0 1-1.381.24.391.391 0 0 0-.54.095.378.378 0 0 0 .097.532c.3.207.651.314 1.01.314"/></g>
            </g>
            <g><path
                fill="#fff"
                d="M17.228 29.736a4.21 4.21 0 0 0-3.122-.683.382.382 0 1 0 .134.751 3.43 3.43 0 0 1 2.544.557 3.325 3.325 0 0 1 1.4 2.166 3.29 3.29 0 0 1-.564 2.507 3.385 3.385 0 0 1-2.198 1.38 3.423 3.423 0 0 1-2.542-.554.39.39 0 0 0-.54.092.377.377 0 0 0 .095.532 4.185 4.185 0 0 0 3.122.682 4.152 4.152 0 0 0 2.696-1.694 4.041 4.041 0 0 0 .693-3.078 4.08 4.08 0 0 0-1.718-2.658"/></g>
            <g><path
                fill="#fff"
                d="M12.962 28.843a3.412 3.412 0 0 0-1.435-2.22 3.504 3.504 0 0 0-2.607-.57.383.383 0 0 0-.313.443.386.386 0 0 0 .448.309 2.722 2.722 0 0 1 2.028.444 2.654 2.654 0 0 1 .667 3.728 2.708 2.708 0 0 1-1.753 1.1 2.73 2.73 0 0 1-2.028-.444.39.39 0 0 0-.539.094.378.378 0 0 0 .095.531 3.497 3.497 0 0 0 2.607.57 3.48 3.48 0 0 0 2.252-1.413c.535-.754.74-1.667.578-2.572"/></g>
            <g><path
                fill="#fff"
                d="M7.71 26.1a2.403 2.403 0 0 0-1.01-1.562 2.467 2.467 0 0 0-1.833-.4.382.382 0 1 0 .133.751 1.7 1.7 0 0 1 1.257.275 1.644 1.644 0 0 1 .412 2.309 1.674 1.674 0 0 1-1.085.681 1.686 1.686 0 0 1-1.254-.274.39.39 0 0 0-.54.093.378.378 0 0 0 .095.531 2.456 2.456 0 0 0 1.834.402 2.445 2.445 0 0 0 1.584-.996 2.37 2.37 0 0 0 .407-1.81"/></g>
            <g><path
                fill="#fff"
                d="M2.69 22.605a1.772 1.772 0 0 0-1.32-.288.382.382 0 0 0-.313.441.388.388 0 0 0 .448.31c.26-.043.524.011.741.162a.97.97 0 0 1 .244 1.361.989.989 0 0 1-.64.403 1.014 1.014 0 0 1-.741-.163.39.39 0 0 0-.54.095.38.38 0 0 0 .096.531 1.777 1.777 0 0 0 1.319.288 1.76 1.76 0 0 0 1.14-.715 1.71 1.71 0 0 0 .292-1.301 1.72 1.72 0 0 0-.726-1.124"/></g>
        </g>
    </g>
</svg>