<svg
    class="advantages__icon available"
    width="60px"
    height="58px"
    viewBox="0 0 60 58"
    version="1.1"
    xmlns="http://www.w3.org/2000/svg"
    xmlns:xlink="http://www.w3.org/1999/xlink">
        <g fill="#FFF" fill-rule="evenodd">
            <path d="M47.502 50.28h7.837v-7.837h-7.837v7.837zm3.328-11.957h1.182v-1.182H50.83v1.182zm-6.456-.001h1.182V37.14h-1.182v1.182zm-5.558-4.105l-5.523 3.189v-6.377l5.523-3.19v6.378zm-6.023-4.054l-5.523-3.189 5.523-3.189 5.523 3.189-5.523 3.189zm-3.919 29.605h7.837V51.93h-7.837v7.838zM26.77 34.217v-6.378l5.523 3.189v6.378l-5.523-3.189zM28.874 9.55h7.837V1.713h-7.837V9.55zm-8.758 28.772h1.182V37.14h-1.182v1.182zm-6.455 0h1.182V37.14h-1.182v1.182zM10.333 50.28h7.837v-7.837h-7.837v7.837zm9.783-25.948h1.182V23.15h-1.182v1.182zm-6.455 0h1.182V23.15h-1.182v1.182zm-3.328-5.295h7.837V11.2h-7.837v7.837zm34.042 5.303h1.182v-1.182h-1.182v1.182zm6.455-.118h1.182V23.04H50.83v1.182zm-3.329-5.185h7.837V11.2h-7.837v7.837zm8.838 31.743v-8.837a.5.5 0 0 0-.5-.5H51.92v-2.121h.591c.277 0 .5-.223.5-.5v-2.181c0-.277-.223-.5-.5-.5H50.33c-.277 0-.5.223-.5.5v.59h-3.274v-.59c0-.277-.223-.5-.5-.5h-2.07l-4.17-1.953v-6.896l4.17-1.952h2.07a.5.5 0 0 0 .5-.5v-.591h3.274v.473a.5.5 0 0 0 .5.5h2.181a.5.5 0 0 0 .5-.5V22.54a.5.5 0 0 0-.5-.5h-.591v-2.003h3.919a.5.5 0 0 0 .5-.5V10.7a.5.5 0 0 0-.5-.5h-8.838a.5.5 0 0 0-.5.5v8.837a.5.5 0 0 0 .5.5h3.919v2.003h-.59a.5.5 0 0 0-.5.5v.709h-3.274v-.591a.5.5 0 0 0-.5-.5h-2.181a.5.5 0 0 0-.5.5v1.863l-4.036 1.889-6.046-3.49V10.55h3.918a.5.5 0 0 0 .5-.5V1.213a.5.5 0 0 0-.5-.5h-8.837a.5.5 0 0 0-.5.5v8.837a.5.5 0 0 0 .5.5h3.919v12.37l-6.009 3.468-3.986-1.873V22.65a.5.5 0 0 0-.5-.5h-2.182a.5.5 0 0 0-.5.5v.599h-3.273v-.599a.5.5 0 0 0-.5-.5h-.592v-2.113h3.919a.5.5 0 0 0 .5-.5V10.7a.5.5 0 0 0-.5-.5H9.833a.5.5 0 0 0-.5.5v8.837a.5.5 0 0 0 .5.5h3.918v2.113h-.59a.5.5 0 0 0-.5.5v2.182a.5.5 0 0 0 .5.5h2.182a.5.5 0 0 0 .5-.5v-.583h3.273v.583a.5.5 0 0 0 .5.5h2.071l4.083 1.918v6.978l-4.084 1.913h-2.07c-.277 0-.5.223-.5.5v.59h-3.273v-.59a.5.5 0 0 0-.5-.5h-2.182c-.277 0-.5.223-.5.5v2.181c0 .277.223.5.5.5h.611c-.007.034-.021.068-.021.105v1.912c0 .037.014.07.021.104H9.833a.5.5 0 0 0-.5.5v8.837a.5.5 0 0 0 .5.5h8.837c.277 0 .5-.223.5-.5v-8.837a.5.5 0 0 0-.5-.5h-3.94c.008-.034.021-.067.021-.104v-1.912c0-.037-.013-.071-.021-.105h.613a.5.5 0 0 0 .5-.5v-.591h3.273v.591c0 .277.223.5.5.5h2.182a.5.5 0 0 0 .5-.5v-1.863l3.987-1.867 6.008 3.469V50.93h-3.919a.5.5 0 0 0-.5.5v8.838a.5.5 0 0 0 .5.5h8.837a.5.5 0 0 0 .5-.5V51.43c0-.277-.223-.5-.5-.5h-3.918V38.561l6.046-3.492 4.036 1.89v1.863c0 .277.223.5.5.5h2.181c.277 0 .5-.223.5-.5v-.591h3.274v.591c0 .277.223.5.5.5h.59v2.121h-3.919a.5.5 0 0 0-.5.5v8.837a.5.5 0 0 0 .5.5h8.838a.5.5 0 0 0 .5-.5z"></path>
            <path d="M53.801 30.951h2.249v-2.249h-2.249v2.249zm2.749-3.249h-3.249a.5.5 0 0 0-.5.5v3.249c0 .277.223.5.5.5h3.249a.5.5 0 0 0 .5-.5v-3.249a.5.5 0 0 0-.5-.5zM47.931 3.989h2.989V1h-2.989v2.989zm-.5 1h3.989c.277 0 .5-.223.5-.5V.5a.5.5 0 0 0-.5-.5h-3.989a.5.5 0 0 0-.5.5v3.989a.5.5 0 0 0 .5.5zm17.595 31.419h.949v-.949h-.949v.949zm1.449-1.949h-1.95a.5.5 0 0 0-.5.5v1.949a.5.5 0 0 0 .5.5h1.95a.5.5 0 0 0 .5-.5v-1.949a.5.5 0 0 0-.5-.5zm-27.81-15.075h1.599v-1.6h-1.599v1.6zm-1 .5a.5.5 0 0 0 .5.5h2.599a.5.5 0 0 0 .5-.5v-2.6a.5.5 0 0 0-.5-.5h-2.599a.5.5 0 0 0-.5.5v2.6zM12.409 4.074h2.249V1.825h-2.249v2.249zm-.5 1h3.249a.5.5 0 0 0 .5-.5V1.325a.5.5 0 0 0-.5-.5h-3.249a.5.5 0 0 0-.5.5v3.249c0 .277.223.5.5.5zM1 28.396h2.249v-2.249H1v2.249zm2.749-3.249H.5a.5.5 0 0 0-.5.5v3.249a.5.5 0 0 0 .5.5h3.249a.5.5 0 0 0 .5-.5v-3.249a.5.5 0 0 0-.5-.5zm35.895 20.527h.636v-.636h-.636v.636zm1.136-1.636h-1.636a.5.5 0 0 0-.5.5v1.636a.5.5 0 0 0 .5.5h1.636a.5.5 0 0 0 .5-.5v-1.636a.5.5 0 0 0-.5-.5zm-13.989.724h1.599v-1.6h-1.599v1.6zm2.599.5v-2.6a.5.5 0 0 0-.5-.5h-2.599a.5.5 0 0 0-.5.5v2.6a.5.5 0 0 0 .5.5h2.599a.5.5 0 0 0 .5-.5zm-8.724-15.911h.95v-.949h-.95v.949zm1.449 1.001a.5.5 0 0 0 .5-.5v-1.95a.5.5 0 0 0-.5-.5h-1.949a.5.5 0 0 0-.5.5v1.95a.5.5 0 0 0 .5.5h1.949zm-12.6 4.145h.636v-.636h-.636v.636zm1.636.5v-1.636a.5.5 0 0 0-.5-.5H9.015a.5.5 0 0 0-.5.5v1.636a.5.5 0 0 0 .5.5h1.636a.5.5 0 0 0 .5-.5zM17.087 60h2.989v-2.989h-2.989V60zm3.489-3.989h-3.989a.5.5 0 0 0-.5.5V60.5a.5.5 0 0 0 .5.5h3.989a.5.5 0 0 0 .5-.5v-3.989c0-.277-.223-.5-.5-.5zm34.131 2.065h1.182v-1.182h-1.182v1.182zm1.682-2.181h-2.182a.5.5 0 0 0-.5.5v2.181a.5.5 0 0 0 .5.5h2.182c.277 0 .5-.223.5-.5v-2.181c0-.277-.223-.5-.5-.5z"></path>
        </g>
</svg>