<svg
    class="advantages__icon available"
    width="60px"
    height="58px"
    viewBox="0 0 60 58"
    version="1.1"
    xmlns="http://www.w3.org/2000/svg"
    xmlns:xlink="http://www.w3.org/1999/xlink">
    <path d="M0 8.286h10.611V40H5.365V13.532H0V8.286zm56.259 25.689h33.475v5.248H42.909c-10.829 0-19.612-8.782-19.612-19.612C23.297 8.782 32.08 0 42.909 0 53.68 0 62.424 8.687 62.518 19.435v.943h-4.959v-.943h.012c-.077-7.881-6.492-14.249-14.393-14.249-7.948 0-14.394 6.446-14.394 14.395 0 7.948 6.446 14.394 14.394 14.394h13.081zm33.475-8.635v5.534H43.038v-.045c-6.225 0-11.273-5.048-11.273-11.272S36.813 8.286 43.038 8.286c6.223 0 11.271 5.047 11.271 11.271 0 .276-.011.549-.03.821h-5.413a5.905 5.905 0 1 0-11.733-.943 5.905 5.905 0 0 0 5.905 5.905h46.696zM5.365 0h12.936v40h-5.425V5.186H5.365V0zm62.88 1.37h.017c1.289 0 2.231 1.046 2.231 2.336 0 1.29-.942 2.336-2.214 2.318-1.308 0-2.266-1.028-2.266-2.336 0-1.272.958-2.318 2.232-2.318zm.017 5.16c1.621 0 2.859-1.237 2.859-2.842 0-1.568-1.238-2.805-2.842-2.805h-.017c-1.604 0-2.877 1.237-2.877 2.805 0 1.605 1.273 2.842 2.877 2.842zm-.506-3.87c.087-.018.209-.034.418-.034.524 0 .715.209.715.487 0 .349-.366.471-.766.471h-.367V2.66zm0 1.343h.349c.418 0 .609.138.68.47.087.401.157.663.244.767h.575c-.07-.104-.14-.279-.227-.732-.087-.383-.226-.61-.488-.715v-.034c.314-.105.575-.331.575-.698 0-.279-.122-.505-.296-.628-.192-.139-.435-.226-.923-.226a6.06 6.06 0 0 0-1.047.087V5.24h.558V4.003z" fill="#FFF" fill-rule="evenodd"></path>
</svg>