<svg
    class="advantages__icon available"
    width="60px"
    height="58px"
    viewBox="0 0 60 58"
    version="1.1"
    xmlns="http://www.w3.org/2000/svg"
    xmlns:xlink="http://www.w3.org/1999/xlink">
    <g id="3-Dev" stroke="none" stroke-width="1" fill="none" fill-rule="evenodd">
        <g
            id="Trend-Pro_1920-3_price-3"
            transform="translate(-771.000000, -188.000000)"
            fill="#FFFFFF">
            <g id="7" transform="translate(771.000000, 188.000000)">
                <path
                    d="M25.666,26.7979 C25.247,27.4309 25,28.1869 25,28.9999 C25,31.2059 26.794,32.9999 29,32.9999 C31.035,32.9999 32.7,31.4689 32.949,29.4999 L35.975,29.4999 C35.717,33.1259 32.69,35.9999 29,35.9999 C25.141,35.9999 22,32.8599 22,28.9999 C22,27.4529 22.511,26.0269 23.364,24.8659 L25.666,26.7979 Z M29.249,28.4999 L27.101,26.6969 C27.619,26.2689 28.275,25.9999 29,25.9999 C30.483,25.9999 31.71,27.0839 31.949,28.4999 L29.249,28.4999 Z M26.444,27.4509 L28.746,29.3829 C28.769,29.4019 28.796,29.4119 28.821,29.4259 C28.843,29.4389 28.862,29.4539 28.886,29.4629 C28.945,29.4859 29.006,29.4999 29.067,29.4999 L31.949,29.4999 C31.71,30.9159 30.483,31.9999 29,31.9999 C27.346,31.9999 26,30.6539 26,28.9999 C26,28.4319 26.168,27.9039 26.444,27.4509 L26.444,27.4509 Z M29,21.9999 C32.69,21.9999 35.717,24.8739 35.975,28.4999 L32.949,28.4999 C32.7,26.5309 31.035,24.9999 29,24.9999 C27.968,24.9999 27.035,25.4029 26.325,26.0469 L24.008,24.1019 C25.279,22.8069 27.046,21.9999 29,21.9999 L29,21.9999 Z M29,36.9999 C33.242,36.9999 36.715,33.6779 36.975,29.4999 L42.067,29.4999 C42.344,29.4999 42.567,29.2769 42.567,28.9999 C42.567,28.7239 42.344,28.4999 42.067,28.4999 L36.975,28.4999 C36.715,24.3219 33.242,20.9999 29,20.9999 C26.739,20.9999 24.698,21.9469 23.242,23.4599 L14.834,16.4039 C14.622,16.2269 14.307,16.2539 14.13,16.4659 C13.952,16.6779 13.979,16.9919 14.191,17.1699 L22.598,24.2239 C21.599,25.5589 21,27.2089 21,28.9999 C21,33.4109 24.589,36.9999 29,36.9999 L29,36.9999 Z"
                    id="Fill-1"></path>
                <path
                    d="M29,48 C28.724,48 28.5,48.224 28.5,48.5 L28.5,50.987 C16.767,50.724 7.276,41.233 7.013,29.5 L9.5,29.5 C9.776,29.5 10,29.276 10,29 C10,28.724 9.776,28.5 9.5,28.5 L7.013,28.5 C7.276,16.767 16.767,7.276 28.5,7.013 L28.5,9.5 C28.5,9.776 28.724,10 29,10 C29.276,10 29.5,9.776 29.5,9.5 L29.5,7.013 C41.233,7.276 50.724,16.767 50.987,28.5 L48.5,28.5 C48.224,28.5 48,28.724 48,29 C48,29.276 48.224,29.5 48.5,29.5 L51.5,29.5 C51.776,29.5 52,29.276 52,29 C52,16.317 41.683,6 29,6 C16.317,6 6,16.317 6,29 C6,41.683 16.317,52 29,52 C29.276,52 29.5,51.776 29.5,51.5 L29.5,48.5 C29.5,48.224 29.276,48 29,48"
                    id="Fill-3"></path>
                <path
                    d="M59.6211,26.8789 C59.4261,26.6839 59.1091,26.6839 58.9141,26.8789 L57.9701,27.8219 C57.3501,12.3769 44.5961,-0.0001 29.0001,-0.0001 C13.0101,-0.0001 0.0001,13.0099 0.0001,28.9999 C0.0001,44.9899 13.0101,57.9999 29.0001,57.9999 C29.2761,57.9999 29.5001,57.7759 29.5001,57.4999 C29.5001,57.2239 29.2761,56.9999 29.0001,56.9999 C13.5601,56.9999 1.0001,44.4399 1.0001,28.9999 C1.0001,13.5609 13.5601,0.9999 29.0001,0.9999 C44.0241,0.9999 56.3171,12.8949 56.9691,27.7619 L56.0861,26.8789 C55.8911,26.6839 55.5741,26.6839 55.3791,26.8789 C55.1841,27.0739 55.1841,27.3909 55.3791,27.5859 L57.1451,29.3539 C57.1921,29.3999 57.2471,29.4359 57.3091,29.4609 C57.3701,29.4859 57.4341,29.4999 57.5001,29.4999 C57.5651,29.4999 57.6301,29.4859 57.6901,29.4609 C57.7531,29.4359 57.8081,29.3999 57.8541,29.3539 L59.6211,27.5859 C59.8161,27.3909 59.8161,27.0739 59.6211,26.8789"
                    id="Fill-5"></path>
                <path
                    d="M44.8242,57 L34.1462,57 L43.7882,45.5 C44.3642,44.788 44.7672,44.143 44.9882,43.582 C45.2112,43.012 45.3242,42.429 45.3242,41.848 C45.3242,40.307 44.7012,38.931 43.4712,37.759 C42.2492,36.592 40.7542,36 39.0282,36 C37.4942,36 36.1132,36.446 34.9252,37.328 C33.7302,38.213 32.9462,39.329 32.5932,40.645 C32.5202,40.911 32.6782,41.186 32.9452,41.257 C33.2162,41.328 33.4862,41.171 33.5572,40.904 C33.8552,39.797 34.4982,38.89 35.5202,38.131 C36.5332,37.381 37.7132,37 39.0282,37 C40.5092,37 41.7372,37.484 42.7822,38.481 C43.8192,39.473 44.3242,40.573 44.3242,41.848 C44.3242,42.304 44.2342,42.764 44.0572,43.217 C43.8742,43.682 43.5212,44.238 43.0162,44.864 L32.6922,57.179 C32.5672,57.328 32.5402,57.535 32.6222,57.711 C32.7042,57.888 32.8812,58 33.0752,58 L44.8242,58 C45.1002,58 45.3242,57.776 45.3242,57.5 C45.3242,57.224 45.1002,57 44.8242,57"
                    id="Fill-8"></path>
                <path
                    d="M57,50.0146 L46.822,50.0146 L57,37.8746 L57,50.0146 Z M57.671,36.0306 C57.476,35.9596 57.253,36.0186 57.117,36.1786 L45.368,50.1936 C45.243,50.3426 45.216,50.5496 45.298,50.7256 C45.38,50.9026 45.557,51.0146 45.751,51.0146 L57,51.0146 L57,57.4996 C57,57.7766 57.224,57.9996 57.5,57.9996 C57.776,57.9996 58,57.7766 58,57.4996 L58,36.4996 C58,36.2896 57.868,36.1016 57.671,36.0306 L57.671,36.0306 Z"
                    id="Fill-10"></path>
            </g>
        </g>
    </g>
</svg>