<svg xmlns="http://www.w3.org/2000/svg" width="68" height="41" viewBox="0 0 68 41"><defs><clipPath id="tsloa"><path d="M0 0h67.767v35.442H0z"/></clipPath><clipPath id="tslob"><path d="M39.922 41.003H17.85V25.02h22.072z"/></clipPath></defs><g><g><g><g/><g clip-path="url(#tsloa)"><path fill="#fff" d="M66.613 25.805v-.012c0-.005-.005-.008-.006-.013a35.112 35.112 0 0 0-3.355-8.303c-.01-.026-.011-.053-.026-.078-.013-.024-.034-.039-.052-.06a34.874 34.874 0 0 0-5.28-7.07c-.019-.024-.029-.054-.051-.076-.023-.024-.05-.034-.076-.051a34.197 34.197 0 0 0-6.88-5.423c-.02-.016-.036-.041-.061-.057-.026-.014-.054-.015-.081-.028a33.259 33.259 0 0 0-8.08-3.443c-.005 0-.008-.003-.013-.004-.004-.002-.008 0-.011 0a32.904 32.904 0 0 0-17.515 0c-.004 0-.008-.002-.011 0-.005 0-.009.003-.013.004a33.21 33.21 0 0 0-8.077 3.442c-.029.012-.057.014-.083.029-.026.016-.042.04-.063.057A34.197 34.197 0 0 0 10 10.142c-.026.017-.054.027-.076.05-.023.023-.032.053-.05.078a34.97 34.97 0 0 0-5.28 7.066c-.018.022-.04.038-.055.063-.016.027-.017.056-.027.083a35.047 35.047 0 0 0-3.35 8.293l-.01.018v.017A35.584 35.584 0 0 0 0 34.798c0 .356.28.645.626.645H13a.635.635 0 0 0 .629-.645.634.634 0 0 0-.629-.644H1.27c.047-2.547.369-5.024.942-7.402l2.374.652a.631.631 0 0 0 .769-.457.648.648 0 0 0-.445-.789l-2.37-.651a33.75 33.75 0 0 1 2.787-6.897l2.12 1.258c.1.06.207.087.313.087a.623.623 0 0 0 .543-.323.652.652 0 0 0-.229-.88l-2.122-1.257a33.587 33.587 0 0 1 4.436-5.913l1.724 1.77a.616.616 0 0 0 .886 0 .655.655 0 0 0 0-.913l-1.721-1.77a32.989 32.989 0 0 1 5.756-4.556l1.226 2.181a.624.624 0 0 0 .542.323.607.607 0 0 0 .314-.087.653.653 0 0 0 .23-.88L18.12 5.473a32.015 32.015 0 0 1 6.714-2.862l.635 2.434c.076.287.33.479.607.479a.645.645 0 0 0 .606-.811l-.636-2.438a31.73 31.73 0 0 1 7.21-.968v2.516c0 .356.28.643.627.643a.634.634 0 0 0 .626-.643V1.306a31.73 31.73 0 0 1 7.21.968l-.637 2.437a.645.645 0 0 0 .607.812.635.635 0 0 0 .607-.479l.635-2.434c2.357.701 4.608 1.663 6.713 2.862L48.422 7.65a.653.653 0 0 0 .23.88c.099.06.206.086.313.086a.624.624 0 0 0 .542-.323l1.226-2.181a32.988 32.988 0 0 1 5.757 4.557l-1.721 1.77a.655.655 0 0 0 0 .911.613.613 0 0 0 .886 0l1.723-1.77a33.541 33.541 0 0 1 4.436 5.914l-2.123 1.257a.654.654 0 0 0-.23.88.626.626 0 0 0 .544.323.603.603 0 0 0 .313-.087l2.122-1.259a33.808 33.808 0 0 1 2.786 6.897l-2.37.652a.648.648 0 0 0-.444.789.631.631 0 0 0 .769.457l2.374-.653c.573 2.379.894 4.856.941 7.403h-11.73a.635.635 0 0 0-.628.644c0 .356.28.645.628.645h12.375a.636.636 0 0 0 .627-.645c0-3.11-.407-6.122-1.155-8.993"/></g></g><g><g/><g clip-path="url(#tslob)"><path fill="#fff" d="M36.905 29.428c2.884 1.71 3.874 5.512 2.209 8.476a6.017 6.017 0 0 1-5.242 3.1 5.88 5.88 0 0 1-3.01-.83c-2.656-1.575-12.45-13.583-12.866-14.094a.654.654 0 0 1-.061-.735.616.616 0 0 1 .651-.313c.637.116 15.663 2.822 18.319 4.396m1.123 7.823c1.319-2.347.534-5.356-1.752-6.71-1.813-1.076-11.125-2.974-16.197-3.925 3.34 4.033 9.597 11.357 11.41 12.432 2.284 1.349 5.22.548 6.54-1.797"/></g></g></g></g></svg>