<svg
    class="advantages__icon"
    width="57px"
    height="60px"
    viewBox="0 0 57 60"
    version="1.1"
    xmlns="http://www.w3.org/2000/svg"
    xmlns:xlink="http://www.w3.org/1999/xlink">
    <desc>Created with Sketch.</desc>
    <g id="3-Dev" stroke="none" stroke-width="1" fill="none" fill-rule="evenodd">
        <g
            id="Trend-Pro_1920-3_price-3"
            transform="translate(-1003.000000, -580.000000)"
            fill="#FFFFFF">
            <path
                d="M1020.95186,596.098329 L1020.9572,595.562611 L1020.9572,596.096186 C1020.95507,596.097258 1020.954,596.097258 1020.95186,596.098329 L1020.95186,596.098329 Z M1033.27818,608.419846 C1033.27818,608.645919 1033.09551,608.830206 1032.87012,608.830206 L1030.91418,608.830206 C1030.68879,608.830206 1030.50612,608.645919 1030.50612,608.419846 L1030.50612,607.999843 C1030.50612,607.77377 1030.68879,607.590554 1030.91418,607.590554 L1032.87012,607.590554 C1033.09551,607.590554 1033.27818,607.77377 1033.27818,607.999843 L1033.27818,608.419846 Z M1023.19835,598.945135 C1023.30197,599.057636 1023.44405,599.116565 1023.58933,599.116565 C1023.66731,599.116565 1023.74742,599.100494 1023.82113,599.064065 C1024.03157,598.962278 1024.15228,598.734062 1024.1181,598.501561 C1023.91941,597.171908 1023.81899,595.761898 1023.81899,594.310102 C1023.81899,593.091879 1026.14347,591.735441 1029.47848,591.735441 C1031.94075,591.735441 1034.31116,590.715434 1036.15493,588.86292 C1036.37605,588.641133 1036.58756,588.40756 1036.78945,588.167558 C1038.63856,589.894714 1039.82216,592.40616 1040.06465,595.146894 C1040.05504,595.184394 1040.04115,595.221894 1040.04115,595.262609 L1040.04115,599.927642 C1040.01444,599.923357 1039.99094,599.912642 1039.96424,599.912642 C1039.66834,599.912642 1039.43012,600.151573 1039.43012,600.44836 L1039.43012,602.950164 C1039.43012,604.343031 1038.8896,605.652326 1037.90682,606.638047 L1036.90803,607.63984 C1036.47433,607.663412 1036.00965,607.674126 1035.49583,607.674126 L1034.30795,607.674126 C1034.1584,607.014122 1033.57194,606.519118 1032.87012,606.519118 L1030.91418,606.519118 C1030.10019,606.519118 1029.43789,607.183408 1029.43789,607.999843 L1029.43789,608.419846 C1029.43789,609.237352 1030.10019,609.901642 1030.91418,609.901642 L1032.87012,609.901642 C1033.57194,609.901642 1034.15947,609.406639 1034.30795,608.745562 L1035.49583,608.745562 C1035.60585,608.745562 1035.7052,608.740205 1035.81202,608.739134 L1034.7705,609.783784 C1034.05051,610.505932 1033.09444,610.903435 1032.07642,610.903435 L1030.9238,610.903435 C1029.90577,610.903435 1028.94864,610.505932 1028.22865,609.783784 L1025.11049,606.656262 C1024.11703,605.658755 1023.5701,604.33446 1023.5701,602.925521 L1023.5701,601.757655 C1023.5701,601.496225 1023.38102,601.274438 1023.12358,601.230509 C1022.87147,601.181223 1022.6151,601.337652 1022.53071,601.586226 C1022.44205,601.84337 1022.24335,602.115515 1022.17606,602.120872 C1022.05962,602.065158 1021.85986,601.673012 1021.7712,601.325867 C1021.52764,600.38086 1020.89738,597.706555 1020.89738,596.694048 C1020.89738,596.265473 1020.96895,596.118687 1020.96255,596.098329 C1021.06616,596.097258 1021.15696,596.058686 1021.23922,596.006186 C1021.74129,597.082979 1022.39397,598.076201 1023.19835,598.945135 L1023.19835,598.945135 Z M1030.14613,581.071436 C1032.22063,581.071436 1034.88907,581.528939 1035.8163,583.713598 C1035.92312,583.967528 1036.2062,584.100386 1036.46471,584.015743 C1039.71427,583.003236 1042.54936,586.280759 1042.55042,590.36186 C1042.55042,591.937942 1042.1242,593.432596 1041.34653,594.602604 L1041.33798,594.602604 L1041.08161,594.602604 C1040.70452,591.558654 1039.256,588.800777 1037.05972,586.980407 C1036.94862,586.888263 1036.80227,586.84112 1036.65699,586.862549 C1036.51171,586.879692 1036.38032,586.954693 1036.29273,587.071479 C1036.02033,587.434696 1035.72016,587.782913 1035.39862,588.106486 C1033.75675,589.755427 1031.65554,590.664005 1029.47848,590.664005 C1025.70549,590.664005 1022.75076,592.265802 1022.75076,594.310102 C1022.75076,595.132965 1022.78174,595.942971 1022.8437,596.735834 C1021.73915,594.988321 1021.14521,592.897949 1021.14521,590.686505 C1021.14521,585.205037 1025.01435,581.071436 1030.14613,581.071436 L1030.14613,581.071436 Z M1043.29391,596.83762 L1043.29391,599.124065 C1043.29391,599.697284 1042.82816,600.16443 1042.25666,600.16443 L1041.10938,600.16443 L1041.10938,595.798327 L1042.25666,595.798327 C1042.82816,595.798327 1043.29391,596.264402 1043.29391,596.83762 L1043.29391,596.83762 Z M1038.661,607.396624 L1038.66206,607.395553 C1039.84566,606.208401 1040.49835,604.629104 1040.49835,602.950164 L1040.49835,601.219794 C1040.52399,601.22408 1040.54749,601.235866 1040.57527,601.235866 L1041.36682,601.235866 C1041.31555,605.340538 1040.66286,606.86412 1038.661,607.396624 L1038.661,607.396624 Z M1019.82915,596.694048 C1019.82915,598.049415 1020.69976,601.449082 1020.73608,601.58944 C1020.80231,601.856228 1021.1826,603.186951 1022.14508,603.186951 C1022.2754,603.186951 1022.39504,603.166594 1022.50507,603.129094 C1022.55528,604.746962 1023.20797,606.261973 1024.35525,607.413767 L1027.47341,610.54129 C1028.3953,611.465939 1029.62056,611.974871 1030.9238,611.974871 L1032.07642,611.974871 C1033.37966,611.974871 1034.60385,611.465939 1035.52574,610.54129 L1037.39728,608.665205 C1041.27068,608.286988 1042.36776,606.465546 1042.43506,601.217652 C1043.51076,601.125508 1044.36214,600.227644 1044.36214,599.124065 L1044.36214,596.83762 C1044.36214,595.751184 1043.53533,594.864035 1042.48099,594.749391 C1043.20632,593.479739 1043.61865,591.962585 1043.61865,590.36186 C1043.61865,585.75897 1040.33919,582.061443 1036.5961,582.873592 C1035.5706,580.991079 1033.35296,580 1030.14613,580 C1024.40545,580 1020.07698,584.594319 1020.07698,590.686505 C1020.07698,592.207944 1020.34083,593.675812 1020.83543,595.036536 C1020.41241,595.078322 1019.82915,595.374038 1019.82915,596.694048 L1019.82915,596.694048 Z M1034.36265,638.928564 L1028.6647,638.929635 C1015.62374,638.276059 1006.05773,633.251023 1004.15735,632.18173 L1007.16762,621.072008 C1007.4945,619.862356 1008.38754,618.874492 1009.55619,618.428774 L1022.69543,613.414453 C1023.3556,614.806249 1025.65763,618.503775 1031.49979,618.503775 C1037.34194,618.503775 1039.64505,614.806249 1040.30522,613.414453 L1053.44446,618.427703 C1054.6131,618.874492 1055.50507,619.862356 1055.83302,621.072008 L1058.8433,632.18173 C1056.94505,633.251023 1047.39293,638.274988 1034.36265,638.928564 L1034.36265,638.928564 Z M1056.86386,620.791291 C1056.44725,619.252709 1055.31066,617.994843 1053.82368,617.426982 L1040.20373,612.228373 C1040.067,612.175873 1039.91424,612.183373 1039.78285,612.247659 C1039.65039,612.310874 1039.54998,612.426589 1039.50511,612.566947 C1039.44102,612.764091 1037.85897,617.432339 1031.49979,617.432339 C1025.14168,617.432339 1023.55963,612.764091 1023.49553,612.566947 C1023.45067,612.426589 1023.34919,612.310874 1023.21779,612.247659 C1023.0864,612.183373 1022.93258,612.175873 1022.79691,612.228373 L1009.1759,617.428053 C1007.68892,617.994843 1006.55339,619.252709 1006.13678,620.791291 L1003.01862,632.299588 C1002.95666,632.527804 1003.0528,632.772091 1003.25576,632.896378 C1003.35938,632.960664 1013.79279,639.256423 1028.638,640 L1034.38935,639.998929 C1049.20678,639.256423 1059.64126,632.960664 1059.74488,632.896378 C1059.94678,632.772091 1060.04399,632.527804 1059.98096,632.299588 L1056.86386,620.791291 Z"
                id="4"></path>
        </g>
    </g>
</svg>