<svg xmlns="http://www.w3.org/2000/svg" width="71" height="55" viewBox="0 0 71 55"><g><g><g><path fill="#fff" d="M70.229 25.905a7.817 7.817 0 0 1-1.746 6.48c-1.683 1.97-4.251 3.008-6.858 2.781-1.661 5.366-5.061 10.185-9.612 13.603-4.806 3.613-10.555 5.523-16.62 5.523-6.066 0-11.814-1.91-16.623-5.523-4.552-3.42-7.953-8.24-9.61-13.603-2.584.23-5.176-.811-6.86-2.782a7.83 7.83 0 0 1-1.746-6.478c.504-2.822 2.633-5.21 5.422-6.083a8.122 8.122 0 0 1 3.183-.347c1.661-5.369 5.063-10.185 9.611-13.604 4.391-3.3 9.571-5.16 15.057-5.46.5-.038 1.006-.062 1.525-.062l.006.001.035-.001c6.065 0 11.814 1.91 16.62 5.522 4.552 3.42 7.953 8.24 9.612 13.604a8.1 8.1 0 0 1 3.182.347c2.792.874 4.92 3.261 5.422 6.083v-.001m-2.554 5.806a6.793 6.793 0 0 0 1.516-5.63v-.002c-.436-2.444-2.283-4.513-4.703-5.272a7.065 7.065 0 0 0-3.116-.262l-.443.064-.206-.478c-1.556-5.308-4.875-10.074-9.349-13.434-4.622-3.473-10.149-5.31-15.981-5.31-.472 0-.937.031-1.404.056-4.96.361-8.926 2.646-8.926 5.317 0 2.274 3.721 4.196 8.124 4.196 3.467 0 6.397-1.489 6.397-3.253 0-1.353-2.295-2.498-5.011-2.498-2.3 0-3.903.999-3.903 1.895a.524.524 0 0 1-.528.518.524.524 0 0 1-.527-.518c0-1.644 2.178-2.933 4.958-2.933 3.4 0 6.064 1.553 6.064 3.536 0 2.406-3.273 4.29-7.45 4.29-5.147 0-9.18-2.299-9.18-5.233 0-1.37.73-2.626 1.978-3.657a26.344 26.344 0 0 0-6.575 3.594c-4.474 3.361-7.793 8.128-9.345 13.422l-.126.428h-.52a7.077 7.077 0 0 0-3.123.26c-2.42.759-4.266 2.828-4.704 5.274a6.8 6.8 0 0 0 1.516 5.63 7.052 7.052 0 0 0 6.298 2.375l.445-.061.21.479c1.556 5.302 4.875 10.07 9.35 13.43 4.623 3.475 10.149 5.31 15.982 5.31 5.832 0 11.359-1.835 15.981-5.31 4.474-3.36 7.793-8.127 9.345-13.422l.126-.426h.525a6.99 6.99 0 0 0 6.305-2.375"/></g><g><path fill="#fff" d="M27.223 29.975c0 1.126-.931 2.044-2.076 2.044s-2.077-.918-2.077-2.044v-1.062c0-1.126.932-2.043 2.077-2.043s2.076.917 2.076 2.043zm-1.056-1.062c0-.555-.457-1.005-1.02-1.005s-1.02.45-1.02 1.005v1.062c0 .555.457 1.006 1.02 1.006s1.02-.451 1.02-1.006z"/></g><g><path fill="#fff" d="M49.472 23.9c-1.26-.05-2.341-.266-3.512-1.161a.534.534 0 0 0-.74.092.515.515 0 0 0 .094.729c1.475 1.124 2.85 1.326 4.115 1.376h.021a.524.524 0 0 0 .528-.496.525.525 0 0 0-.506-.54"/></g><g><path fill="#fff" d="M25.57 22.83a.534.534 0 0 0-.74-.091c-1.171.895-2.251 1.11-3.513 1.16a.524.524 0 0 0-.507.54.524.524 0 0 0 .527.497h.023c1.265-.051 2.641-.252 4.116-1.377.23-.176.271-.5.094-.728"/></g><g><path fill="#fff" d="M45.638 26.87c1.145 0 2.077.917 2.077 2.043v1.062c0 1.126-.932 2.044-2.077 2.044-1.146 0-2.078-.918-2.078-2.044v-1.062c0-1.126.932-2.043 2.078-2.043zm1.012 2.043c0-.555-.456-1.005-1.017-1.005-.562 0-1.018.45-1.018 1.005v1.062c0 .555.456 1.006 1.018 1.006.561 0 1.017-.451 1.017-1.006z"/></g><g><path fill="#fff" d="M35.393 32.94c4.586 0 8.316 3.67 8.316 8.18 0 3.317-1.997 6.234-5.094 7.518a3.527 3.527 0 0 1-3.222 2.075 3.527 3.527 0 0 1-3.22-2.075c-3.097-1.284-5.093-4.2-5.093-7.519 0-4.51 3.73-8.179 8.313-8.179m-.005 16.746c1.36 0 2.464-1.092 2.464-2.434 0-1.34-1.104-2.43-2.464-2.43-1.357 0-2.461 1.09-2.461 2.43 0 1.342 1.104 2.434 2.461 2.434m3.518-2.33c2.303-1.246 3.749-3.597 3.749-6.237 0-3.938-3.258-7.141-7.262-7.141-4.001 0-7.259 3.203-7.259 7.141 0 2.641 1.446 4.991 3.75 6.237-.002-.037-.012-.07-.012-.109 0-1.732 1.304-3.159 2.994-3.412V42.51c0-.288.237-.518.527-.518.292 0 .529.23.529.518v1.325c1.69.253 2.995 1.68 2.995 3.412 0 .038-.01.072-.011.11"/></g></g></g></svg>