<svg enable-background="new 0 0 60 43" height="512" viewBox="0 0 60 43" width="512" xmlns="http://www.w3.org/2000/svg"><path fill="#fff" d="m58.001 43h-56.002c-1.102 0-1.999-.897-1.999-1.999v-3.002c0-1.102.897-1.999 1.999-1.999h22.001c.422 0 .799.265.941.663.06.168.228.337.466.337h9.186c.238 0 .406-.169.466-.337.142-.398.519-.663.941-.663h22.001c1.102 0 1.999.897 1.999 1.999v3.002c0 1.102-.897 1.999-1.999 1.999zm-56.002-5 .001 3.001 56.001-.001-.001-3.001-21.416.001c-.464.617-1.198 1-1.991 1h-9.186c-.793 0-1.527-.383-1.991-1z"/><path fill="#fff" d="m52 34h-44c-.552 0-1-.448-1-1v-28c0-.552.448-1 1-1h44c.552 0 1 .448 1 1v28c0 .552-.448 1-1 1zm-43-2h42v-26h-42z"/><path fill="#fff" d="m34.593 39h-9.186c-.793 0-1.527-.383-1.991-1h-19.416c-.552 0-1-.448-1-1v-32.934c0-2.242 1.824-4.066 4.067-4.066h45.867c2.242 0 4.066 1.824 4.066 4.067v32.933c0 .552-.448 1-1 1h-19.416c-.464.617-1.198 1-1.991 1zm-29.593-3h19c.422 0 .799.265.941.663.06.168.228.337.466.337h9.186c.238 0 .406-.169.466-.337.142-.398.519-.663.941-.663h19v-31.933c0-1.14-.927-2.067-2.067-2.067h-45.866c-1.14 0-2.067.927-2.067 2.066z"/><path fill="#fff" d="m46.25 34h-32.5c-.439 0-.827-.287-.956-.706-.527-1.715-.794-3.496-.794-5.294 0-9.925 8.075-18 18-18s18 8.075 18 18c0 1.798-.267 3.579-.794 5.294-.129.419-.517.706-.956.706zm-31.744-2h30.987c.337-1.305.507-2.647.507-4 0-8.822-7.177-16-16-16s-16 7.178-16 16c0 1.353.17 2.695.506 4z"/><path fill="#fff" d="m17 29c-.552 0-1-.448-1-1 0-7.72 6.28-14 14-14 .552 0 1 .448 1 1s-.448 1-1 1c-6.617 0-12 5.383-12 12 0 .552-.448 1-1 1z"/><path fill="#fff" d="m30 30c-2.206 0-4-1.794-4-4s1.794-4 4-4 4 1.794 4 4-1.794 4-4 4zm0-6c-1.103 0-2 .897-2 2s.897 2 2 2 2-.897 2-2-.897-2-2-2z"/><path fill="#fff" d="m32.121 24.879c-.256 0-.512-.098-.707-.293-.391-.391-.391-1.023 0-1.414l5.879-5.879c.39-.391 1.024-.391 1.414 0 .391.391.391 1.023 0 1.414l-5.879 5.879c-.195.196-.452.293-.707.293z"/></svg>