<svg
    xmlns="http://www.w3.org/2000/svg"
    width="45"
    height="54"
    viewBox="0 0 45 54">
    <g>
        <g>
            <g>
                <g><path
                    fill="#fff"
                    d="M44.958 16.097a.49.49 0 0 1 .042.199V51.27c0 1.506-1.3 2.732-2.898 2.732H6.42c-1.597 0-2.897-1.226-2.897-2.732v-.588h-.624C1.3 50.682 0 49.456 0 47.95V2.792C0 1.287 1.3.06 2.898.06h20.659c.146 0 .285.055.388.152l3.361 3.17h3.998c.074 0 .146.014.211.04a.542.542 0 0 1 .178.113L44.84 15.928c.05.047.09.104.12.169zm-13.105-.32h11.27L31.852 5.152zM3.523 49.635V6.112c0-1.506 1.299-2.731 2.896-2.731H25.75L23.33 1.098H2.898c-.99 0-1.797.761-1.797 1.694V47.94c0 .933.807 1.694 1.797 1.694zm38.58 3.33c.99 0 1.797-.76 1.797-1.695V16.814H31.304c-.304 0-.55-.232-.55-.518V4.419H6.419c-.99 0-1.797.76-1.797 1.694V51.27c0 .934.807 1.696 1.797 1.696z"/></g>
            </g>
            <g><path
                fill="#fff"
                d="M35.998 21.97H12.52c-.303 0-.55.233-.55.518 0 .288.247.519.55.519h23.478c.304 0 .55-.231.55-.519 0-.285-.246-.518-.55-.518"/></g>
            <g><path
                fill="#fff"
                d="M35.998 29.06H12.52c-.303 0-.55.233-.55.52 0 .286.247.517.55.517h23.478c.304 0 .55-.231.55-.518 0-.286-.246-.519-.55-.519"/></g>
            <g><path
                fill="#fff"
                d="M35.998 36.14H12.52c-.303 0-.55.233-.55.518 0 .288.247.519.55.519h23.478c.304 0 .55-.231.55-.519 0-.285-.246-.518-.55-.518"/></g>
            <g><path
                fill="#fff"
                d="M35.998 43.22H12.52c-.303 0-.55.232-.55.518 0 .287.247.519.55.519h23.478c.304 0 .55-.232.55-.519 0-.286-.246-.518-.55-.518"/></g>
        </g>
    </g>
</svg>