<svg
    class="advantages__icon"
    width="57px"
    height="60px"
    viewBox="0 0 57 60"
    version="1.1"
    xmlns="http://www.w3.org/2000/svg"
    xmlns:xlink="http://www.w3.org/1999/xlink">
    <desc>Created with Sketch.</desc>
    <g id="3-Dev" stroke="none" stroke-width="1" fill="none" fill-rule="evenodd">
        <g
            id="Trend-Pro_1920-3_price-3"
            transform="translate(-1118.000000, -384.000000)"
            fill="#FFFFFF">
            <path
                d="M1150.54826,442.843929 L1150.54826,440.983929 C1152.64516,432.448929 1154.91404,420.238929 1155.42358,417.458571 L1168.44296,422.427857 C1169.61159,422.873571 1170.50462,423.861429 1170.83256,425.071071 L1173.84278,436.179643 C1171.99905,437.214643 1162.95983,441.953571 1150.54826,442.843929 L1150.54826,442.843929 Z M1143.66576,442.929643 L1143.51941,442.918929 L1143.51941,440.918571 L1143.51941,439.565357 C1143.51941,433.219286 1145.89833,425.154643 1145.92289,425.074286 C1145.95921,424.951071 1145.95067,424.819286 1145.89833,424.701429 L1144.35048,421.227857 C1144.21696,420.928929 1144.24473,420.587143 1144.42526,420.313929 L1145.1901,419.149286 C1145.36529,418.989643 1145.58961,418.902857 1145.82782,418.902857 L1147.17164,418.902857 C1147.40985,418.902857 1147.63417,418.989643 1147.80936,419.149286 L1148.57527,420.313929 C1148.75473,420.587143 1148.78357,420.928929 1148.65004,421.227857 L1147.10113,424.701429 C1147.04879,424.819286 1147.04025,424.951071 1147.07656,425.074286 C1147.10113,425.154643 1149.48004,433.215 1149.48004,439.565357 L1149.48004,440.918571 L1149.48004,442.92 L1143.66576,442.929643 Z M1122.1669,425.071071 C1122.49484,423.861429 1123.38894,422.873571 1124.55649,422.427857 L1137.57588,417.458571 C1138.08648,420.242143 1140.35537,432.45 1142.4512,440.983929 L1142.4512,442.842857 C1130.03963,441.953571 1121.00041,437.214643 1119.15774,436.179643 L1122.1669,425.071071 Z M1174.9815,436.298571 L1171.86338,424.790357 C1171.44571,423.251786 1170.3102,421.993929 1168.82325,421.426071 L1155.20353,416.2275 C1155.05505,416.170714 1154.88948,416.183571 1154.75061,416.261786 C1154.61281,416.341071 1154.5156,416.477143 1154.48783,416.633571 L1154.45364,416.824286 C1154.21971,418.113214 1152.36636,428.236071 1150.42434,436.8375 C1149.98531,431.517857 1148.47592,426.066429 1148.15653,424.959643 L1149.62532,421.665 C1149.9084,421.030714 1149.84858,420.304286 1149.46723,419.723571 L1148.6682,418.508571 C1148.64791,418.478571 1148.62547,418.449643 1148.59984,418.425 C1148.21848,418.0425 1147.71108,417.831429 1147.17164,417.831429 L1145.82782,417.831429 C1145.28838,417.831429 1144.78204,418.0425 1144.40069,418.425 C1144.37505,418.449643 1144.35155,418.478571 1144.33232,418.508571 L1143.5333,419.723571 C1143.15088,420.304286 1143.09213,421.030714 1143.37521,421.665 L1144.84293,424.959643 C1144.5246,426.066429 1143.01522,431.517857 1142.57618,436.8375 C1140.6331,428.236071 1138.78082,418.113214 1138.54688,416.823214 L1138.51163,416.633571 C1138.48386,416.477143 1138.38772,416.341071 1138.24885,416.261786 C1138.10998,416.183571 1137.94441,416.170714 1137.79593,416.2275 L1124.17728,421.426071 C1122.69033,421.993929 1121.55375,423.251786 1121.13608,424.790357 L1118.01903,436.298571 C1117.956,436.527857 1118.05321,436.772143 1118.25617,436.895357 C1118.35658,436.9575 1128.49286,443.058214 1142.95112,443.949643 C1142.95219,443.949643 1142.95433,443.950714 1142.9554,443.950714 L1143.25129,443.973214 C1143.36986,443.982857 1143.48844,443.9925 1143.63799,444 L1149.39031,443.998929 C1149.5185,443.9925 1149.64348,443.981786 1149.76846,443.973214 L1150.04727,443.951786 C1150.0494,443.951786 1150.05047,443.949643 1150.05261,443.949643 C1164.50874,443.056071 1174.64287,436.9575 1174.74329,436.895357 C1174.94625,436.772143 1175.04345,436.527857 1174.9815,436.298571 L1174.9815,436.298571 Z M1137.16034,401.616429 C1137.19773,401.672143 1137.23512,401.727857 1137.27357,401.783571 C1137.55878,402.1875 1137.86109,402.580714 1138.19758,402.945 C1138.27021,403.022143 1138.36315,403.063929 1138.46036,403.089643 C1138.48172,403.095 1138.50095,403.099286 1138.52338,403.1025 C1138.54581,403.105714 1138.56718,403.116429 1138.58961,403.116429 C1138.66759,403.116429 1138.74771,403.098214 1138.82141,403.062857 C1139.03292,402.961071 1139.15256,402.732857 1139.11838,402.501429 C1138.91969,401.171786 1138.81928,399.761786 1138.81928,398.31 C1138.81928,397.091786 1141.14371,395.734286 1144.4776,395.734286 C1146.9409,395.734286 1149.31127,394.714286 1151.155,392.862857 C1151.37505,392.642143 1151.58763,392.408571 1151.78952,392.166429 C1153.88642,394.125 1155.12341,397.084286 1155.12341,400.196786 C1155.12341,400.406786 1155.24412,400.595357 1155.4332,400.683214 C1155.43854,400.686429 1155.44495,400.683214 1155.45029,400.686429 C1155.63509,400.765714 1155.8498,400.734643 1156.00362,400.605 C1156.00683,400.602857 1156.00789,400.600714 1156.0111,400.598571 C1156.07306,400.545 1156.13501,400.489286 1156.1959,400.431429 C1156.39672,400.471071 1156.60182,400.378929 1156.71398,400.197857 C1156.72253,400.187143 1156.80158,400.103571 1157.01736,400.098214 C1157.04513,400.151786 1157.10281,400.311429 1157.10281,400.692857 C1157.10281,401.705357 1156.4715,404.380714 1156.22795,405.327857 C1156.14035,405.672857 1155.9406,406.065 1155.85514,406.115357 C1155.7558,406.115357 1155.55818,405.843214 1155.47058,405.588214 C1155.38726,405.3375 1155.13303,405.183214 1154.87879,405.229286 C1154.62029,405.271071 1154.43014,405.495 1154.43014,405.7575 L1154.43014,406.948929 C1154.43014,408.3225 1153.87467,409.667143 1152.90687,410.636786 L1149.7706,413.783571 C1149.05169,414.504643 1148.09457,414.902143 1147.07656,414.902143 L1145.92289,414.902143 C1144.90489,414.902143 1143.94884,414.504643 1143.22886,413.783571 L1140.11075,410.655 C1139.11731,409.6575 1138.57038,408.333214 1138.57038,406.925357 L1138.57038,405.7575 C1138.57038,405.496071 1138.38131,405.273214 1138.12387,405.230357 C1138.09396,405.225 1138.06405,405.222857 1138.03628,405.222857 C1137.81088,405.222857 1137.60472,405.366429 1137.52994,405.586071 C1137.44128,405.843214 1137.24366,406.115357 1137.1753,406.120714 C1137.05886,406.065 1136.85911,405.672857 1136.77151,405.324643 C1136.52796,404.380714 1135.89771,401.705357 1135.89771,400.692857 C1135.89771,400.2675 1135.96928,400.118571 1135.96608,400.098214 C1136.19361,400.099286 1136.27586,400.185 1136.26625,400.171071 C1136.29188,400.211786 1136.32607,400.240714 1136.36025,400.268571 C1136.59419,400.737857 1136.86658,401.184643 1137.16034,401.616429 L1137.16034,401.616429 Z M1145.14523,385.071429 C1147.22077,385.071429 1149.88917,385.53 1150.81531,387.7125 C1150.92213,387.966429 1151.20414,388.100357 1151.46372,388.014643 C1151.85468,387.894643 1152.22535,387.835714 1152.59495,387.835714 C1155.32744,387.835714 1157.55039,390.762857 1157.55039,394.360714 C1157.55039,396.092143 1157.03124,397.7175 1156.12753,398.916429 C1156.10831,398.73 1156.07199,398.547857 1156.04528,398.3625 C1156.01858,398.178214 1155.99828,397.991786 1155.96303,397.8075 C1155.92457,397.603929 1155.8701,397.405714 1155.82203,397.204286 C1155.77823,397.023214 1155.74191,396.84 1155.68957,396.662143 C1155.63402,396.466071 1155.56138,396.276429 1155.49622,396.084643 C1155.4364,395.908929 1155.38299,395.731071 1155.31462,395.559643 C1155.24092,395.37 1155.15226,395.19 1155.06894,395.007857 C1154.99416,394.839643 1154.92473,394.668214 1154.84247,394.506429 C1154.75168,394.326429 1154.64592,394.157143 1154.54551,393.9825 C1154.45578,393.826071 1154.37353,393.664286 1154.27632,393.512143 C1154.1663,393.340714 1154.04238,393.18 1153.92488,393.015 C1153.8234,392.8725 1153.7294,392.724643 1153.62044,392.5875 C1153.48157,392.410714 1153.32775,392.246786 1153.1782,392.079643 C1153.07779,391.968214 1152.98485,391.848214 1152.88123,391.741071 C1152.61952,391.473214 1152.34606,391.218214 1152.05978,390.981429 C1151.94762,390.888214 1151.8002,390.84 1151.65706,390.8625 C1151.51179,390.879643 1151.3804,390.954643 1151.2928,391.0725 C1151.01827,391.437857 1150.7181,391.785 1150.39871,392.106429 C1148.75686,393.755357 1146.65462,394.662857 1144.4776,394.662857 C1140.70574,394.662857 1137.75106,396.264643 1137.75106,398.31 C1137.75106,399.125357 1137.78097,399.928929 1137.84186,400.715357 C1137.61006,400.340357 1137.39748,399.946071 1137.20521,399.531429 C1137.20307,399.528214 1137.19987,399.527143 1137.1988,399.523929 C1136.51621,398.052857 1136.14554,396.409286 1136.14554,394.686429 C1136.14554,389.205 1140.01461,385.071429 1145.14523,385.071429 L1145.14523,385.071429 Z M1134.8295,400.692857 C1134.8295,402.049286 1135.70009,405.448929 1135.73641,405.589286 C1135.80264,405.856071 1136.18293,407.186786 1137.14539,407.186786 C1137.27464,407.186786 1137.39535,407.165357 1137.50537,407.128929 C1137.55558,408.746786 1138.20826,410.261786 1139.35445,411.4125 L1142.47363,414.541071 C1143.3955,415.464643 1144.61967,415.973571 1145.92289,415.973571 L1147.07656,415.973571 C1148.37978,415.973571 1149.60502,415.464643 1150.52582,414.541071 L1153.6621,411.394286 C1154.78693,410.268214 1155.44922,408.721071 1155.49515,407.128929 C1155.60518,407.165357 1155.72482,407.186786 1155.85514,407.186786 C1156.8176,407.186786 1157.19788,405.856071 1157.26305,405.5925 C1157.30043,405.448929 1158.17103,402.049286 1158.17103,400.692857 C1158.17103,399.527143 1157.7149,399.162857 1157.31752,399.064286 C1158.1518,397.752857 1158.61861,396.125357 1158.61861,394.360714 C1158.61754,389.758929 1155.35628,386.052857 1151.59511,386.874643 C1150.57069,384.992143 1148.35308,384 1145.14523,384 C1139.40573,384 1135.07733,388.594286 1135.07733,394.686429 C1135.07733,396.207857 1135.34117,397.675714 1135.83576,399.035357 C1135.41274,399.077143 1134.8295,399.373929 1134.8295,400.692857 L1134.8295,400.692857 Z M1158.90489,435.654643 L1161.08618,432.827143 L1162.65752,434.865 C1162.759,434.996786 1162.91496,435.072857 1163.07947,435.072857 C1163.24504,435.072857 1163.401,434.996786 1163.50248,434.865 L1164.25664,433.887857 L1165.61968,435.654643 L1158.90489,435.654643 Z M1164.67965,432.684643 C1164.57817,432.552857 1164.42221,432.475714 1164.25664,432.475714 C1164.09213,432.475714 1163.93617,432.552857 1163.83469,432.684643 L1163.07947,433.661786 L1161.50812,431.623929 C1161.30623,431.360357 1160.86613,431.360357 1160.66317,431.623929 L1157.39444,435.8625 C1157.26945,436.024286 1157.24702,436.242857 1157.33675,436.427143 C1157.42648,436.610357 1157.61235,436.726071 1157.81638,436.726071 L1166.70819,436.726071 C1166.91222,436.726071 1167.09808,436.610357 1167.18781,436.427143 C1167.27754,436.242857 1167.25618,436.024286 1167.1312,435.8625 L1164.67965,432.684643 Z"
                id="3"></path>
        </g>
    </g>
</svg>