<svg xmlns="http://www.w3.org/2000/svg" width="56" height="56" viewBox="0 0 56 56"><g><g><path fill="#fff" d="M54.98 39.491a2.46 2.46 0 0 1 1.018 2.072 2.466 2.466 0 0 1-1.167 1.998L37.25 55.13a5.738 5.738 0 0 1-4.876.566l-15.208-5.642a11.036 11.036 0 0 0-3.521-.574h-2.427v2.071c0 .827-.673 1.5-1.5 1.5H1.5c-.827 0-1.5-.673-1.5-1.5V32.78c0-.827.673-1.5 1.5-1.5h8.218c.827 0 1.5.673 1.5 1.5v2.073h5.466c1.156 0 2.296.18 3.391.534l6.528 2.276c.986.318 2.023.481 3.073.481h11.637c1.925 0 3.491 1.523 3.491 3.395 0 .251-.029.496-.082.731l6.05-3.148a4.094 4.094 0 0 1 4.208.369zM10.218 32.78a.5.5 0 0 0-.5-.5H1.5a.5.5 0 0 0-.5.5v18.771a.5.5 0 0 0 .5.5h8.218a.5.5 0 0 0 .5-.5zm44.073 9.939a1.45 1.45 0 0 0 .708-1.192 1.437 1.437 0 0 0-.607-1.227 3.096 3.096 0 0 0-3.172-.284l-7.336 3.817a3.519 3.519 0 0 1-2.041 1.062l-4.762 2.477a5.801 5.801 0 0 1-4.432.254l-6.731-2.729a.5.5 0 0 1 .188-.963h15.207c.078 0 .155-.004.23-.01l1.718-.893c.339-.41.543-.928.543-1.492 0-1.321-1.118-2.395-2.491-2.395H29.676c-1.154 0-2.295-.18-3.39-.533l-6.53-2.277a9.991 9.991 0 0 0-3.072-.481h-5.466V48.48h2.427c1.314 0 2.611.213 3.855.632l15.208 5.641a4.706 4.706 0 0 0 4.003-.465zm-25.622 2.215l4.334 1.758a4.776 4.776 0 0 0 3.629-.213l2.97-1.545z"/></g><g><path fill="#fff" d="M28.15 27.263c0-4.639 3.774-8.413 8.413-8.413s8.414 3.774 8.414 8.413-3.775 8.413-8.414 8.413c-4.639 0-8.413-3.774-8.413-8.413m8.413-7.413c-4.087 0-7.413 3.325-7.413 7.413s3.326 7.413 7.413 7.413c4.088 0 7.414-3.325 7.414-7.413s-3.326-7.413-7.414-7.413"/></g><g><path fill="#fff" d="M20.315 20.91a6.442 6.442 0 0 1-6.435-6.434 6.443 6.443 0 0 1 6.435-6.436 6.443 6.443 0 0 1 6.435 6.436 6.442 6.442 0 0 1-6.435 6.434m0-11.87a5.441 5.441 0 0 0-5.435 5.436 5.44 5.44 0 0 0 5.435 5.434 5.44 5.44 0 0 0 5.435-5.434 5.441 5.441 0 0 0-5.435-5.436"/></g><g><path fill="#fff" d="M8.392 48.73H7.37a.5.5 0 0 0 0 1h1.022a.5.5 0 0 0 0-1"/></g><g><path fill="#fff" d="M32.032 7.925a3.967 3.967 0 0 1-3.962-3.962A3.966 3.966 0 0 1 32.032 0a3.966 3.966 0 0 1 3.962 3.963 3.967 3.967 0 0 1-3.962 3.962m0-6.925a2.966 2.966 0 0 0-2.962 2.963 2.966 2.966 0 0 0 2.962 2.962 2.966 2.966 0 0 0 2.962-2.962A2.966 2.966 0 0 0 32.032 1"/></g></g></svg>