<svg xmlns="http://www.w3.org/2000/svg" width="24" height="24" viewBox="0 0 24 24"><g><g><path fill="#fff" d="M12.01 17.915c-3.443 0-6.245-2.73-6.245-6.086 0-3.355 2.802-6.085 6.245-6.085 3.444 0 6.246 2.73 6.246 6.085 0 3.356-2.802 6.086-6.246 6.086m6.411-10.88a1.448 1.448 0 0 1-1.446-1.446c0-.798.649-1.446 1.446-1.446.798 0 1.447.648 1.447 1.446 0 .797-.65 1.446-1.447 1.446m-6.406 1.28c-1.99 0-3.611 1.575-3.611 3.51 0 1.934 1.62 3.509 3.611 3.509 1.992 0 3.612-1.575 3.612-3.51 0-1.934-1.62-3.508-3.612-3.508M6.055 24A6.06 6.06 0 0 1 0 17.946V6.054A6.06 6.06 0 0 1 6.054 0h11.892A6.06 6.06 0 0 1 24 6.054v11.892A6.06 6.06 0 0 1 17.946 24zm-3.443-6.054a3.446 3.446 0 0 0 3.442 3.443h11.892a3.447 3.447 0 0 0 3.442-3.443V6.054a3.447 3.447 0 0 0-3.442-3.442H6.054a3.446 3.446 0 0 0-3.442 3.442z"/></g></g></svg>