<svg xmlns="http://www.w3.org/2000/svg" width="176" height="48" viewBox="0 0 176 48"><defs><clipPath id="bly1a"><path d="M0 .802v39.604h33.549V.803H0z"/></clipPath></defs><g><g><g><g><g/><g clip-path="url(#bly1a)"><path fill="#484848" d="M33.387 19.983l-4.972 3.096-8.163 15.642-.055.106-.114.046-3.681 1.466-.168.067-.145-.105-.953-.687a185.755 185.755 0 0 1-4.716-3.523c-1.714-1.333-3.191-2.581-3.383-3.059C6.63 32.016.127 19.26.107 19.223l-.005-.011-.001-.002c-.008-.017-.328-1.265.216-1.94 0 0 19.175-16.203 19.472-16.337.705-.32 1.518.044 1.521.046 0 0 9.818 5.938 11.552 7.029.818.513.678 1.669.678 1.669v10.028h-.326z"/></g></g><g><path fill="#fdfeff" d="M12.391 25.98c-.502-.165-2.492-1.408-3.061-1.754-.963-.583-2.906-1.303-1.433-2.51a74.018 74.018 0 0 0 2.654-2.264c2.826-2.557 2.601-2.1 6.19.056 2.512 1.51 2.719 1.304.14 3.689l-1.305 1.153c-.674.546-1.81 2.082-3.185 1.63"/></g><g><path fill="#c8c8c8" d="M5.386 21.662c-.706-.298-2.104-1.465-2.772-1.955-1.851-1.359-2.647-1.401.216-3.679 1.488-1.183 3.15-3.248 4.495-2.623l2.805 1.912c1.325.912 2.257 1.161.856 2.542l-3.8 3.36c-.404.338-1.075.75-1.8.443"/></g><g><path fill="#c8c8c8" d="M12.464 15.247c-.879-.44-1.922-1.243-2.786-1.834-1.038-.71-2.36-1.229-.877-2.425l3.752-3.198c1.418-1.146 2.777.357 4.597 1.49 1.968 1.227 2.253 1.394-.367 3.47-1.386 1.097-2.913 3.201-4.32 2.497"/></g><g><path fill="#c8c8c8" d="M23.544 17.31c-.95.454-3.03.865-3.597 1.455.02.576.169.588.584.838-1.5-.037-.856.15-2.848-1.046-2.998-1.8-4.121-1.76-1.668-3.796.755-.627 1.421-1.313 2.178-1.883.655-.494 1.362-1.584 2.766-1.103.495.169 2.066 1.184 2.575 1.485 1.831 1.082 3.048 1.388 1.065 3.013-.219.18-.293.267-.498.462-.135.127-.18.149-.284.249l-.115.114c-.142.16-.033 0-.158.212"/></g><g><path fill="#fdfeff" d="M26.443 13.484c-.474-.13-3.593-1.978-4.315-2.453-1.361-.898.524-1.936 1.71-2.986.279-.247.332-.326.626-.547.252-.19.317-.298.561-.507.259-.22.396-.292.646-.532 1.395-1.332 2.782-.064 4.627 1.035 2.649 1.578 2.48 1.465.281 3.429-.206.185-.315.344-.536.53l-1.823 1.6c-.432.42-1.053.63-1.777.431"/></g><g><path fill="#c8c8c8" d="M19.334 9.153c-.983-.481-1.859-1.114-2.746-1.662-.988-.611-2.366-1.116-.984-2.308a175.22 175.22 0 0 1 2.378-2.007c.654-.544 1.672-1.859 3.065-1.3.621.248 2.078 1.22 2.763 1.62 1.317.77 2.506 1.155.25 2.853-1.471 1.104-3.15 3.573-4.726 2.804"/></g><g><path fill="gray" d="M13.93 32.295c-.617-.034-3.807-2.176-4.374-2.656-.833-.705-1.253-2.293-1.705-3.532-.77-2.11-.221-1.62 1.967-.252 1.926 1.205 3.253 1.592 3.61 3.46.118.617.566 2.458.503 2.98"/></g><g><path fill="gray" d="M5.678 23.263c.737.905.832 1.35 1.222 2.419.228.622.903 2.21.946 2.798-.601-.108-3.506-2.461-4.089-3.3-.286-.41-2.51-4.788-2.307-4.99.47-.468 4.033 2.833 4.228 3.073"/></g><g><path fill="gray" d="M9.454 30.407c.674-.073 2.883 1.62 3.503 2.03.485.32 1.186.871 1.359 1.43.122.392.43 1.981.435 2.373-.5-.053-2.78-1.74-3.363-2.133-.69-.465-.894-.648-1.216-1.563-.233-.66-.636-1.551-.718-2.137"/></g><g><path fill="#fdfeff" d="M4.633 26.775c.42.151 2.54 1.874 3.045 2.283.786.64 1.569 2.459 1.735 3.566-.433-.07-2.68-1.905-3.025-2.282-.35-.383-1.752-2.891-1.755-3.567"/></g><g><path fill="gray" d="M10.86 34.365c.523-.025 3.681 2.255 4.023 2.766.261.392.398 1.375.41 1.924-.493-.05-2.231-1.448-2.761-1.821-.985-.693-1.343-1.331-1.671-2.869"/></g><g><path fill="#fdfeff" d="M6.664 31.058c.45.132 1.849 1.372 2.37 1.767.499.376.682.5.917 1.1.156.397.494 1.209.53 1.557-.348-.039-2.047-1.448-2.358-1.748-.335-.325-.571-.7-.812-1.21-.196-.413-.578-1.008-.647-1.467"/></g><g><path fill="#484848" d="M18.69 19.308s0-.007.003-.017l.048-.246h.03c.138-.35.486-.96 1.29-1.237.864-.3 2.814-.99 5.105-1.802 4.785-1.694 11.074-3.92 12.574-4.385h.002c.42-.13.892-.115 1.097-.01.205.102 5.49 2.766 6.066 3.338.612.61.197 1.766.181 1.808l-.014.05c-.345 1.133-5.094 16.74-5.869 19.524-.167.606-.742 1.22-.742 1.22l-17.08 9.666s-.165.12-.5.12c-.333 0-.554-.118-.554-.118s-6.051-3.106-6.051-3.77c0-.979 4.4-24.07 4.414-24.139z"/></g><g><path fill="gray" d="M23.1 29.91c-.483-.159-2.108-1.247-2.628-1.556-2.942-1.75-2.588-1.5-1.827-5.52.187-.987.182-3.099 1.52-2.619.461.166 2.091 1.22 2.645 1.546.782.46 2.065.978 2.297 1.954.165.695-.645 4.195-.861 5.303-.127.65-.384 1.143-1.147.892"/></g><g><path fill="#fdfeff" d="M21.44 38.074c-.841-.392-1.848-1.077-2.637-1.56-2.953-1.81-2.473-1.484-1.735-5.46.173-.927.154-2.988 1.46-2.472.656.26 1.912 1.148 2.612 1.554 2.929 1.698 2.583 1.445 1.788 5.477-.194.977-.221 3.054-1.489 2.461"/></g><g><path fill="#fdfeff" d="M19.984 46.269c-.948-.446-2.798-1.677-3.896-2.351-1.674-1.029-1.184-1.634-.624-4.547.771-4.021.35-3.138 5.272-.293 1.703.984 1.105 2.233.58 4.646-.198.917-.257 3.05-1.332 2.545"/></g><g><path fill="#383838" d="M25.145 30.528c-.533-.36.214-2.67.365-3.335.817-3.597.508-3.703 3.47-4.849.472-.182 2.746-1.202 3.097-.984.588.368-1.185 6.134-1.41 6.494-.544.871-1.532 1.124-2.576 1.603-.51.235-2.547 1.34-2.946 1.07"/></g><g><path fill="#fdfeff" d="M25.854 22.192c-1.096-.196-2.08-.897-2.931-1.405-3.39-2.026-4.186-1.87-.393-3.166 3.65-1.247 2.941-1.388 6.326.463 3.836 2.098 3.513 1.891.193 3.264-.91.376-2.083 1.043-3.195.844"/></g><g><path fill="gray" d="M23.185 38.706c-.344-.372.778-5.416 1.454-6.293.65-.838 5.052-2.804 5.382-2.483.34.332-.443 2.716-.57 3.227-.263 1.06-.424 2.275-1.076 2.978-.466.505-.439.482-1.122.795-.8.368-3.729 2.144-4.068 1.776"/></g><g><path fill="#383838" d="M32.051 27.382c-.415-.4.343-2.536.49-3.102.2-.768.513-2.356.86-2.982.562-1.019 1.149-1.125 2.289-1.568.45-.176 2.555-1.17 2.869-.86.354.35-1.177 5.426-1.47 5.988-.5.964-1.162 1.078-2.269 1.581-.711.323-2.416 1.283-2.769.943"/></g><g><path fill="#c8c8c8" d="M27.506 16.095c.314-.534 1.95-.93 2.696-1.194 2.838-1.003 2.512-.795 5.57.878.467.254.803.46 1.237.69 2.073 1.103.96 1.21-1.429 2.197-2.767 1.144-2.733.792-5.74-.927-.678-.387-2.113-.94-2.334-1.644"/></g><g><path fill="gray" d="M28.064 37.756c.21.52-.404 2.448-.559 3.056-.26 1.024-.474 2.15-1.051 2.799-.38.43-1.674 1.104-2.36 1.484-.414.228-2.195 1.447-2.618 1.215-.456-.25-.05-1.138.038-1.54 1.042-4.688.598-4.167 3.749-5.868.546-.295 2.084-1.302 2.8-1.146"/></g><g><path fill="#383838" d="M36.355 27.026c.128.763-1.196 5.173-1.6 5.76-.523.76-1.266.987-2.255 1.492-3.164 1.618-2.983 1.669-2.028-2.009.786-3.028.513-3.135 3.176-4.313.555-.247 2.07-1.203 2.707-.93"/></g><g><path fill="#383838" d="M38.243 24.728c-.389-.604.238-2.004.452-2.75.253-.878.503-1.983.805-2.818.384-1.057.91-1.273 1.955-1.68 3.41-1.324 3.347-1.653 2.255 1.805-.964 3.054-.523 3.39-2.836 4.443-.568.258-2.082 1.057-2.631 1"/></g><g><path fill="gray" d="M28.021 42.55c-.248-.2.924-4.836 1.497-5.592.51-.672 1.425-.976 2.228-1.406.395-.21 2.148-1.279 2.432-1.008.31.294-.43 2.364-.57 2.861-.795 2.835-.464 2.578-3.158 4.103-.435.247-2.047 1.35-2.429 1.041"/></g><g><path fill="#fdfeff" d="M34.057 13.59c.46-.303 1.833-.694 2.536-.955 2.189-.811 2.448-.482 5.074.995.42.237.722.41 1.177.634.462.227.966.568.966.864 0 .296-1.738.86-2.406 1.13-1.081.44-1.592.787-2.898.203-.757-.337-1.654-.894-2.354-1.283-1.094-.609-2.012-.88-2.095-1.589"/></g><g><path fill="gray" d="M41.932 24.372c.212.606-1.31 5.081-1.466 5.356-.508.883-1.046 1.012-2.008 1.508-.514.264-1.911 1.07-2.427 1.034-.295-.62.32-2.014.515-2.7.87-3.056.582-3.206 2.848-4.227.562-.253 1.977-1.09 2.538-.971"/></g><g><path fill="gray" d="M33.934 39.28c-.097-.594 1.116-4.715 1.451-5.227.678-1.039 4.087-2.543 4.294-2.427.357.202-.018.907-.123 1.252-.124.406-.273.86-.403 1.297-.235.781-.49 1.949-.864 2.554-.46.747-3.561 2.588-4.355 2.552"/></g></g><g><path fill="#fff" d="M169.172 27.809c2.141 0 3.534-1.652 3.534-3.809 0-2.174-1.393-3.809-3.534-3.809s-3.517 1.635-3.517 3.809c0 2.157 1.376 3.809 3.517 3.809zm0 2.191c-3.5 0-6.058-2.504-6.058-6s2.559-6 6.058-6c3.517 0 6.076 2.504 6.076 6s-2.56 6-6.076 6zm-14.738-6.497c.992 0 1.74-.593 1.74-1.569s-.748-1.569-1.74-1.569h-2.594v3.138zm4.335 6.28h-2.838l-2.28-4.118h-1.811v4.119h-2.472V18.19h5.432c2.42 0 3.9 1.582 3.9 3.737 0 2.05-1.289 3.146-2.542 3.441zm-18.268-6.28c.977 0 1.71-.61 1.71-1.569 0-.976-.733-1.569-1.71-1.569h-2.633v3.138zm-2.633 6.28h-2.472V18.192h5.432c2.524 0 3.9 1.704 3.9 3.737 0 2.016-1.394 3.737-3.9 3.737h-2.96zM116.8 27.618c2.298 0 3.639-1.652 3.639-3.617 0-2.052-1.254-3.635-3.639-3.635h-2.106v7.252zm.004 2.167h-4.582V18.19h4.582c3.64 0 6.167 2.312 6.167 5.805 0 3.494-2.526 5.788-6.167 5.788zm-9.989 0h-2.385l-5.536-7.56v7.56h-2.472V18.19h2.542l5.379 7.283V18.19h2.472zm-15.442 0h-8.21V18.19h8.21v2.173h-5.74v2.45h5.618v2.173h-5.618v2.624h5.74zm-17.446-6.28c.992 0 1.74-.594 1.74-1.57 0-.976-.748-1.569-1.74-1.569h-2.594v3.138zm4.335 6.28h-2.838l-2.28-4.12h-1.811v4.12H68.86V18.19h5.431c2.42 0 3.9 1.582 3.9 3.737 0 2.05-1.288 3.146-2.542 3.441zm-17.472 0H58.3v-9.42h-3.394V18.19h9.262v2.173H60.79z"/></g></g></g></svg>