<svg xmlns="http://www.w3.org/2000/svg" width="10" height="16" viewBox="0 0 10 16"><g><g><path fill="#999" d="M6.058 12.98c.288 0 .522.245.522.548a.536.536 0 0 1-.522.55H4.212a.536.536 0 0 1-.523-.55c0-.303.234-.549.523-.549h1.846M7.592 0C8.919 0 10 1.109 10 2.472V13.53C10 14.89 8.92 16 7.592 16H2.408C1.081 16 0 14.891 0 13.529V2.472C0 1.11 1.08 0 2.408 0zM1.045 11.057h7.91V3.502h-7.91zm1.363-9.959c-.728 0-1.32.577-1.356 1.295h7.896a1.362 1.362 0 0 0-1.356-1.295zm5.184 13.794c.751 0 1.363-.613 1.363-1.368v-1.369h-7.91v1.369c0 .755.612 1.368 1.363 1.368z"/></g></g></svg>