<svg width="21px" height="27px" viewBox="0 0 21 27" version="1.1" xmlns="http://www.w3.org/2000/svg" xmlns:xlink="http://www.w3.org/1999/xlink">
                                        <g id="3-Dev" stroke="none" stroke-width="1" fill="none" fill-rule="evenodd">
                                            <g id="Trend-Pro_1920-3_price-1" transform="translate(-562.000000, -724.000000)" fill="#505050">
                                                <g id="Vizitka" transform="translate(370.000000, 385.000000)">
                                                    <path d="M192.874,352.016 L196.028,352.016 L196.028,339.4 L203.096,339.4 C204.793342,339.4 206.237327,339.634331 207.428,340.103 C208.618673,340.571669 209.587663,341.192329 210.335,341.965 C211.082337,342.737671 211.626998,343.636995 211.969,344.663 C212.311002,345.689005 212.482,346.746661 212.482,347.836 C212.482,348.950672 212.311002,350.001995 211.969,350.99 C211.626998,351.978005 211.082337,352.851996 210.335,353.612 C209.587663,354.372004 208.618673,354.973664 207.428,355.417 C206.237327,355.860336 204.793342,356.082 203.096,356.082 L200.968,356.082 L200.968,358.97 L207.656,358.97 L207.656,362.884 L200.968,362.884 L200.968,366 L196.028,366 L196.028,362.884 L192.874,362.884 L192.874,358.97 L196.028,358.97 L196.028,356.082 L192.874,356.082 L192.874,352.016 Z M202.602,352.016 C203.286003,352.016 203.925664,351.959001 204.521,351.845 C205.116336,351.730999 205.641998,351.522002 206.098,351.218 C206.554002,350.913998 206.908665,350.489669 207.162,349.945 C207.415335,349.400331 207.542,348.697338 207.542,347.836 C207.542,346.974662 207.415335,346.25267 207.162,345.67 C206.908665,345.08733 206.554002,344.625002 206.098,344.283 C205.641998,343.940998 205.116336,343.700334 204.521,343.561 C203.925664,343.421666 203.286003,343.352 202.602,343.352 L200.968,343.352 L200.968,352.016 L202.602,352.016 Z" id="₽"></path>
                                                </g>
                                            </g>
                                        </g>
                                    </svg>