<svg xmlns="http://www.w3.org/2000/svg" width="67" height="72" viewBox="0 0 67 72"><g><g><g><path fill="red" d="M29.2 71.197c.262.016.514.044.778.057h6.837c.264-.013.516-.04.778-.057v-4.655c0-7.864-2.896-17.708-2.896-17.708l1.85-4.2a1.826 1.826 0 0 0-.14-1.727l-.955-1.47a1.757 1.757 0 0 0-1.253-.527h-1.605c-.47 0-.921.19-1.253.528l-.955 1.469a1.826 1.826 0 0 0-.139 1.727l1.85 4.2S29.2 58.678 29.2 66.542z"/></g><g><path fill="#6b6b6b" d="M23.228 38.93L6.964 45.215a5.374 5.374 0 0 0-3.241 3.633L0 62.76s12.24 7.593 29.976 8.494c-2.85-10.763-6.304-29.848-6.706-32.093l-.042-.232"/></g><g><path fill="#6b6b6b" d="M63.063 48.848a5.372 5.372 0 0 0-3.241-3.633L43.558 38.93l-.042.23c-.403 2.246-3.856 21.332-6.706 32.095 17.736-.9 29.976-8.495 29.976-8.495z"/></g><g><path fill="#ccc" d="M33.399 37.361h.688a5.147 5.147 0 0 0 3.668-1.542l3.745-3.804a7.01 7.01 0 0 0 2.005-4.917v-1.442s.356 1.08 1.065 1.08c.708 0 1.063-1.44 1.063-1.44s1.064-4.187 1.064-5.763c0-.878-.219-1.368-.709-1.368-.669 0-.911.393-.911.393 0-9.085-.922-10.059-3.065-12.236C39.87 4.147 37.418 3.2 33.4 3.2c-4.02 0-6.47.947-8.614 3.122-2.142 2.177-3.065 3.15-3.065 12.236 0 0-.242-.393-.911-.393-.49 0-.709.49-.709 1.368 0 1.576 1.064 5.763 1.064 5.763s.355 1.44 1.064 1.44c.709 0 1.064-1.08 1.064-1.08v1.412c0 1.863.728 3.65 2.026 4.967l3.724 3.784a5.147 5.147 0 0 0 3.668 1.542z"/></g><g><path fill="#ccc" d="M54.601 58.611l-1.406 1.846-2.38-3.127-3.905 5.124h10.618z"/></g><g><path fill="#6b6b6b" d="M39.626 8.292c-.348.468-.726.912-1.126 1.32-2.007 2.04-4.638 3.281-7.52 3.281-4.086 0-7.397 1.684-7.397 3.762 0 1.85.134 3.597.365 5.163-2.19-2.396-3.558-5.785-3.558-9.545C20.39 5.01 25.487 0 31.776 0c3.388 0 6.266.985 7.357 3.588a5.137 5.137 0 0 1 1.538-.246c3.62 0 6.555 3.822 6.555 8.537 0 2.969-1.133 5.527-2.898 7.058 0-4.378-1.854-8.255-4.702-10.645z"/></g></g></g></svg>