<svg xmlns="http://www.w3.org/2000/svg" width="49" height="72" viewBox="0 0 49 72"><defs><clipPath id="47zwa"><path d="M17.25 0h14.121v72H17.25V0z"/></clipPath><clipPath id="47zwb"><path d="M0 20.11v41.162h17.309V20.11H0z"/></clipPath><clipPath id="47zwc"><path d="M48.63 61.272V20.11H31.32v41.162h17.31z"/></clipPath></defs><g><g><g><g/><g clip-path="url(#47zwa)"><path fill="#6b6b6b" d="M29.396 49.754V16.158C29.396 12.251 27.841 0 24.311 0c-3.53 0-5.087 12.251-5.087 16.158v33.596s-1.974 2.28-1.974 4.51v9.77c0 .165.136.3.304.3h1.594v1.428c0 .83.68 1.503 1.518 1.503h2.84v2.12c0 1.077.096 2.615.805 2.615.708 0 .804-1.538.804-2.616v-2.12h2.839a1.51 1.51 0 0 0 1.518-1.502v-1.127c0-.166.137-.3.304-.3h1.29a.303.303 0 0 0 .305-.302v-9.77c0-2.23-1.975-4.51-1.975-4.51"/></g></g><g><g/><g clip-path="url(#47zwb)"><path fill="#999" d="M15.335 54.262c0-2.079 1.416-4.108 1.974-4.826V20.11L14.75 34.207a11.983 11.983 0 0 1-3.413 6.422l-9.534 9.337A5.981 5.981 0 0 0 0 54.241v3.804l15.335 3.227z"/></g></g><g><g/><g clip-path="url(#47zwc)"><path fill="#999" d="M33.295 54.262c0-2.079-1.416-4.108-1.975-4.826V20.11l2.56 14.097a11.983 11.983 0 0 0 3.413 6.422l9.534 9.337a5.985 5.985 0 0 1 1.803 4.275v3.804l-15.335 3.227z"/></g></g><g><path fill="red" d="M19.224 49.75s-1.974 2.28-1.974 4.51v9.77c0 .166.136.3.304.3h1.594z"/></g><g><path fill="#999" d="M24.314 46.75c-.708 0-.804 1.538-.804 2.615v20.022c0 1.077.096 2.616.804 2.616.709 0 .805-1.539.805-2.616V49.365c0-1.077-.096-2.615-.805-2.615"/></g><g><path fill="#fff" d="M24.315 9.47a5.068 5.068 0 0 0-3.95 1.88.298.298 0 0 0-.037.311l.93 2.027a.303.303 0 0 0 .488.09c.57-.576 1.508-.951 2.569-.951s1.999.375 2.57.95c.147.149.4.1.486-.09l.931-2.026a.298.298 0 0 0-.037-.311 5.068 5.068 0 0 0-3.95-1.88"/></g><g><path fill="red" d="M29.4 49.75s1.975 2.28 1.975 4.51v9.77c0 .166-.137.3-.305.3h-1.594z"/></g></g></g></svg>