<svg xmlns="http://www.w3.org/2000/svg" width="80" height="74" viewBox="0 0 80 74"><g><g><g><path fill="red" d="M70.382 16.962L35.74 13.455 65.22 5.54a2.031 2.031 0 0 1 2.491 1.442z"/></g><g><path fill="#b3b3b3" d="M75.186 36.356c0 .11.014.216.037.318l-1.297 8.402h-.193a1.453 1.453 0 1 0-2.904 0h-.993a1.453 1.453 0 0 0-2.905 0H65.48a1.454 1.454 0 1 0-2.906 0h-1.13a1.453 1.453 0 1 0-2.905 0h-1.452a1.453 1.453 0 1 0-2.905 0h-.992a1.453 1.453 0 1 0-2.905 0h-1.452a1.454 1.454 0 1 0-2.906 0h-1.453a1.453 1.453 0 1 0-2.903 0h-1.452a1.454 1.454 0 0 0-2.906 0h-.993a1.453 1.453 0 1 0-2.905 0h-1.452a1.45 1.45 0 0 0-.984-1.371l-.31-1.555a1.449 1.449 0 0 0 1.294-1.44c0-.804-.651-1.454-1.452-1.454-.142 0-.278.026-.408.063l-.343-1.723c.22.135.474.216.75.216a1.455 1.455 0 0 0 0-2.911c-.481 0-.905.237-1.17.6l-1.483-7.437c.041-.136.071-.276.071-.427 0-.354-.131-.676-.343-.926l-.43-2.161c.458-.245.773-.722.773-1.278 0-.757-.58-1.371-1.316-1.442l-.295-1.473c.053.006.105.016.159.016a1.455 1.455 0 0 0 0-2.91c-.255 0-.49.07-.699.185l-.44-2.201c.267.338.675.56 1.139.56a1.455 1.455 0 0 0 0-2.91 1.45 1.45 0 0 0-1.395 1.067l-.38-1.904 13.511.948a1.455 1.455 0 0 0 .553 2.8c.801 0 1.454-.652 1.454-1.457 0-.537-.296-1.001-.73-1.253l2.655.185a1.454 1.454 0 0 0 .978 2.525c.803 0 1.452-.652 1.452-1.457 0-.35-.128-.67-.335-.92l2.018.14a1.454 1.454 0 0 0 1.223 2.237c.802 0 1.453-.652 1.453-1.457 0-.214-.05-.417-.135-.601l1.675.117a1.421 1.421 0 0 0-.088.484c0 .805.65 1.457 1.453 1.457a1.454 1.454 0 0 0 1.423-1.745l1.043.074a1.331 1.331 0 0 0-.022.214c0 .805.65 1.457 1.453 1.457s1.452-.652 1.452-1.457l-.001-.011 1.462.101c.048.761.673 1.367 1.444 1.367.703 0 1.29-.5 1.423-1.165l1.214.085a1.45 1.45 0 0 0 1.399 1.08c.6 0 1.115-.367 1.336-.889l1.75.124c.245.453.72.765 1.271.765.479 0 .901-.236 1.164-.594l1.664.116c.265.29.644.478 1.07.478.35 0 .667-.13.92-.34l2.826.2c.186.088.39.14.61.14.145 0 .282-.03.415-.068l1.359.095-.384 2.483a1.447 1.447 0 0 0-2.842.4 1.45 1.45 0 1 0 2.654.816l-.363 2.354a1.436 1.436 0 0 0-.839-.271 1.455 1.455 0 1 0 0 2.91c.155 0 .303-.03.443-.076l-.24 1.551c-.067-.009-.132-.02-.203-.02a1.455 1.455 0 0 0-.238 2.887l-.242 1.555a1.447 1.447 0 1 0-.39 2.525l-.384 2.486a1.453 1.453 0 0 0-.198.72M30.41 33.448a1.455 1.455 0 0 0 0-2.912c-.803 0-1.453.653-1.453 1.455 0 .805.65 1.457 1.453 1.457m0-4.355a1.455 1.455 0 1 0 0-2.91c-.803 0-1.453.652-1.453 1.455 0 .804.65 1.455 1.453 1.455m0-4.365a1.455 1.455 0 0 0 0-2.91c-.803 0-1.453.65-1.453 1.455 0 .802.65 1.455 1.453 1.455m0-4.354a1.455 1.455 0 0 0 0-2.91c-.803 0-1.453.65-1.453 1.455 0 .803.65 1.455 1.453 1.455m0-4.365a1.455 1.455 0 0 0 0-2.912c-.803 0-1.453.652-1.453 1.455 0 .805.65 1.457 1.453 1.457m4.362 26.158a1.456 1.456 0 1 0-1.458-1.455c0 .803.653 1.455 1.458 1.455m0-4.354a1.457 1.457 0 1 0 .001-2.913 1.457 1.457 0 0 0-.001 2.913m0-4.365a1.457 1.457 0 1 0 .001-2.913 1.457 1.457 0 0 0-.001 2.913m0-4.355a1.455 1.455 0 1 0 0-2.91 1.456 1.456 0 0 0 0 2.91m0-4.365a1.456 1.456 0 1 0-1.458-1.455c0 .802.653 1.455 1.458 1.455m0-4.354a1.456 1.456 0 1 0-1.458-1.455c0 .803.653 1.455 1.458 1.455m0-4.365a1.457 1.457 0 1 0 .001-2.913 1.457 1.457 0 0 0-.001 2.913m3.892 26.158a1.456 1.456 0 0 0 0-2.91 1.455 1.455 0 1 0 0 2.91m0-4.354a1.456 1.456 0 0 0 0-2.911 1.455 1.455 0 1 0 0 2.912m0-4.366a1.456 1.456 0 0 0 0-2.912 1.455 1.455 0 1 0 0 2.912m0-4.355a1.455 1.455 0 0 0 0-2.91 1.455 1.455 0 0 0 0 2.91m0-4.365a1.456 1.456 0 0 0 0-2.91 1.455 1.455 0 1 0 0 2.91m0-4.354a1.456 1.456 0 0 0 0-2.91 1.455 1.455 0 1 0 0 2.91m4.357 21.793c.803 0 1.452-.652 1.452-1.455a1.453 1.453 0 1 0-2.903 0c0 .803.65 1.455 1.45 1.455m0-4.354c.804 0 1.453-.652 1.453-1.456 0-.803-.65-1.455-1.452-1.455-.802 0-1.451.652-1.451 1.455 0 .804.65 1.456 1.45 1.456m0-4.365c.804 0 1.453-.652 1.453-1.457 0-.802-.65-1.455-1.452-1.455-.802 0-1.451.653-1.451 1.455 0 .805.65 1.457 1.45 1.457m0-4.355c.804 0 1.453-.65 1.453-1.455 0-.803-.65-1.455-1.452-1.455-.802 0-1.451.652-1.451 1.455 0 .804.65 1.455 1.45 1.455m0-4.365c.804 0 1.453-.653 1.453-1.455a1.453 1.453 0 1 0-2.903 0c0 .802.65 1.455 1.45 1.455m0-4.354c.804 0 1.453-.652 1.453-1.455a1.453 1.453 0 1 0-2.903 0c0 .803.65 1.455 1.45 1.455m4.354 21.793c.8 0 1.448-.652 1.448-1.455 0-.805-.649-1.455-1.448-1.455-.8 0-1.448.65-1.448 1.455 0 .803.648 1.455 1.448 1.455m0-4.354c.8 0 1.448-.652 1.448-1.456 0-.803-.649-1.455-1.448-1.455-.8 0-1.448.652-1.448 1.455 0 .804.648 1.456 1.448 1.456m0-4.365c.8 0 1.448-.652 1.448-1.457 0-.802-.649-1.455-1.448-1.455-.8 0-1.448.653-1.448 1.455 0 .805.648 1.457 1.448 1.457m0-4.355c.8 0 1.448-.65 1.448-1.455 0-.803-.649-1.455-1.448-1.455-.8 0-1.448.652-1.448 1.455 0 .804.648 1.455 1.448 1.455m0-4.365c.8 0 1.448-.653 1.448-1.455 0-.805-.649-1.455-1.448-1.455-.8 0-1.448.65-1.448 1.455 0 .802.648 1.455 1.448 1.455m0-4.354c.8 0 1.448-.652 1.448-1.455 0-.804-.649-1.455-1.448-1.455-.8 0-1.448.65-1.448 1.455 0 .803.648 1.455 1.448 1.455m4.368 21.793a1.456 1.456 0 1 0-1.458-1.455c0 .803.652 1.455 1.458 1.455m0-4.354a1.457 1.457 0 1 0 .001-2.913 1.457 1.457 0 0 0-.001 2.913m0-4.365a1.457 1.457 0 1 0 .001-2.913 1.457 1.457 0 0 0-.001 2.913m0-4.355a1.455 1.455 0 1 0 0-2.91 1.456 1.456 0 1 0 0 2.91m0-4.365a1.456 1.456 0 1 0-1.458-1.455c0 .802.652 1.455 1.458 1.455m0-4.354a1.456 1.456 0 1 0-1.458-1.455c0 .803.652 1.455 1.458 1.455m3.897 21.793a1.456 1.456 0 1 0-1.458-1.455c0 .803.652 1.455 1.458 1.455m0-4.354a1.457 1.457 0 1 0 .001-2.913 1.457 1.457 0 0 0-.001 2.913m0-4.365a1.457 1.457 0 1 0 .001-2.913 1.457 1.457 0 0 0-.001 2.913m0-4.355a1.455 1.455 0 1 0 0-2.91 1.456 1.456 0 1 0 0 2.91m0-4.365a1.456 1.456 0 1 0-1.458-1.455c0 .802.652 1.455 1.458 1.455m0-4.354a1.456 1.456 0 1 0-1.458-1.455c0 .803.652 1.455 1.458 1.455m4.352 21.793c.803 0 1.452-.652 1.452-1.455a1.453 1.453 0 1 0-2.905 0c0 .803.65 1.455 1.453 1.455m0-4.354c.803 0 1.452-.652 1.452-1.456 0-.803-.65-1.455-1.452-1.455-.803 0-1.453.652-1.453 1.455 0 .804.65 1.456 1.453 1.456m0-4.365c.803 0 1.452-.652 1.452-1.457 0-.802-.65-1.455-1.452-1.455-.803 0-1.453.653-1.453 1.455 0 .805.65 1.457 1.453 1.457m0-4.355c.803 0 1.452-.65 1.452-1.455 0-.803-.65-1.455-1.452-1.455-.803 0-1.453.652-1.453 1.455 0 .804.65 1.455 1.453 1.455m0-4.365c.803 0 1.452-.653 1.452-1.455a1.453 1.453 0 1 0-2.905 0c0 .802.65 1.455 1.453 1.455m0-4.354c.803 0 1.452-.652 1.452-1.455a1.453 1.453 0 1 0-2.905 0c0 .803.65 1.455 1.453 1.455m4.036 21.793a1.455 1.455 0 0 0 0-2.91 1.454 1.454 0 0 0 0 2.91m0-4.354a1.455 1.455 0 0 0 0-2.911 1.455 1.455 0 0 0 0 2.911m0-4.365a1.455 1.455 0 0 0 0-2.912 1.455 1.455 0 0 0 0 2.912m0-4.355a1.455 1.455 0 1 0 0-2.91 1.455 1.455 0 0 0 0 2.91m0-4.365a1.455 1.455 0 0 0 0-2.91 1.454 1.454 0 0 0 0 2.91m0-4.354a1.455 1.455 0 0 0 0-2.91 1.454 1.454 0 0 0 0 2.91m4.362 21.793a1.456 1.456 0 0 0 0-2.91 1.455 1.455 0 1 0 0 2.91m0-4.354c.804 0 1.457-.652 1.457-1.456a1.457 1.457 0 0 0-2.914 0c0 .804.651 1.456 1.457 1.456m0-4.365a1.457 1.457 0 1 0-1.457-1.457c0 .805.651 1.457 1.457 1.457m0-4.355a1.456 1.456 0 1 0-1.457-1.455c0 .804.651 1.455 1.457 1.455m0-4.365a1.456 1.456 0 0 0 0-2.91 1.455 1.455 0 1 0 0 2.91m0-4.354a1.456 1.456 0 0 0 0-2.91 1.455 1.455 0 1 0 0 2.91m3.892 21.793c.803 0 1.452-.652 1.452-1.455a1.453 1.453 0 1 0-2.904 0c0 .803.65 1.455 1.452 1.455m0-4.354c.803 0 1.452-.652 1.452-1.456 0-.803-.649-1.455-1.452-1.455-.803 0-1.452.652-1.452 1.455 0 .804.65 1.456 1.452 1.456m0-4.365c.803 0 1.452-.652 1.452-1.457 0-.802-.649-1.455-1.452-1.455-.803 0-1.452.653-1.452 1.455 0 .805.65 1.457 1.452 1.457m0-4.355c.803 0 1.452-.65 1.452-1.455 0-.803-.649-1.455-1.452-1.455-.803 0-1.452.652-1.452 1.455 0 .804.65 1.455 1.452 1.455m0-4.365c.803 0 1.452-.653 1.452-1.455a1.453 1.453 0 1 0-2.904 0c0 .802.65 1.455 1.452 1.455m0-4.354c.803 0 1.452-.652 1.452-1.455a1.453 1.453 0 1 0-2.904 0c0 .803.65 1.455 1.452 1.455"/></g><g><path fill="#fff" d="M69.002 62.94a2.698 2.698 0 0 0 0 5.394 2.698 2.698 0 0 0 0-5.394"/></g><g><path fill="#6b6b6b" d="M25.474 13.825l51.72 3.615-4.174 27.012-41.564.001a6.493 6.493 0 0 0-.125-1.232zM15.72 2.089c0 .971.788 1.759 1.759 1.759l.182.006a2.956 2.956 0 0 1 2.712 2.374l7.508 37.68.03.18a2.964 2.964 0 0 1-1.626 3.059l-3.094 1.522-.268.137a8.713 8.713 0 0 0-4.598 7.683c0 4.811 3.894 8.713 8.7 8.713h50.53l.145-.006a1.76 1.76 0 0 0-.144-3.512h-50.53l-.22-.005a5.189 5.189 0 0 1-4.963-5.19 5.195 5.195 0 0 1 2.9-4.663l3.094-1.522.23-.119a6.474 6.474 0 0 0 3.048-3.622l.037.001h42.773l.119-.007c.468-.052.85-.412.924-.887l4.487-29.04.012-.122a1.056 1.056 0 0 0-.981-1.093l-53.44-3.736-1.223-6.14-.054-.243A6.473 6.473 0 0 0 17.48.33c-.971 0-1.759.788-1.759 1.759z"/></g><g><path fill="#fff" d="M38.778 65.515c0 3.388-2.742 6.135-6.123 6.135a6.13 6.13 0 0 1-6.125-6.135 6.13 6.13 0 0 1 6.125-6.135c3.38 0 6.123 2.746 6.123 6.135"/></g><g><path fill="none" stroke="#6b6b6b" stroke-miterlimit="50" stroke-width="3.52" d="M38.778 65.515c0 3.388-2.742 6.135-6.123 6.135a6.13 6.13 0 0 1-6.125-6.135 6.13 6.13 0 0 1 6.125-6.135c3.38 0 6.123 2.746 6.123 6.135z"/></g><g><path fill="#fff" d="M74.988 65.515c0 3.388-2.742 6.135-6.123 6.135a6.13 6.13 0 0 1-6.125-6.135 6.13 6.13 0 0 1 6.125-6.135c3.38 0 6.123 2.746 6.123 6.135"/></g><g><path fill="none" stroke="#6b6b6b" stroke-miterlimit="50" stroke-width="3.52" d="M74.988 65.515c0 3.388-2.742 6.135-6.123 6.135a6.13 6.13 0 0 1-6.125-6.135 6.13 6.13 0 0 1 6.125-6.135c3.38 0 6.123 2.746 6.123 6.135z"/></g><g><path fill="red" d="M10.557.33a1.759 1.759 0 0 1 .145 3.512l-.145.006H2.08A1.759 1.759 0 0 1 1.935.336L2.079.33z"/></g></g></g></svg>