<svg xmlns="http://www.w3.org/2000/svg" width="60" height="72" viewBox="0 0 60 72"><defs><clipPath id="ui5za"><path d="M3.07 0h53.214v72H3.07z"/></clipPath><clipPath id="ui5zb"><path d="M0 24.24v-4.8h11.141v4.8z"/></clipPath><clipPath id="ui5zc"><path d="M0 37.29v-4.8h11.141v4.8H0z"/></clipPath><clipPath id="ui5zd"><path d="M0 50.34v-4.8h11.141v4.8H0z"/></clipPath></defs><g><g><g><g/><g clip-path="url(#ui5za)"><path fill="#999" d="M51.284 72H8.07c-2.762 0-5-2.302-5-5.143V5.143C3.07 2.303 5.308 0 8.07 0h43.214c2.761 0 5 2.303 5 5.143v61.714c0 2.841-2.239 5.143-5 5.143"/></g></g><g><g/><g clip-path="url(#ui5zb)"><path fill="#6b6b6b" d="M9.142 24.24H2c-1.104 0-2-.921-2-2.057v-.686c0-1.135.896-2.057 2-2.057h7.142c1.104 0 2 .922 2 2.057v.686c0 1.136-.896 2.057-2 2.057"/></g></g><g><path fill="#6b6b6b" d="M57.003 24.513h-.713V12.04h.713c1.657 0 3 1.381 3 3.086v6.302c0 1.704-1.343 3.085-3 3.085"/></g><g><path fill="red" d="M57.003 36.983h-.713V24.51h.713c1.657 0 3 1.38 3 3.086v6.302c0 1.704-1.343 3.085-3 3.085"/></g><g><path fill="#999" d="M57.003 49.463h-.713V36.99h.713c1.657 0 3 1.381 3 3.086v6.302c0 1.704-1.343 3.085-3 3.085"/></g><g><path fill="#d5d5d5" d="M57.003 61.933h-.713V49.46h.713c1.657 0 3 1.381 3 3.086v6.302c0 1.704-1.343 3.085-3 3.085"/></g><g><g/><g clip-path="url(#ui5zc)"><path fill="#6b6b6b" d="M9.142 37.29H2c-1.104 0-2-.921-2-2.057v-.686c0-1.135.896-2.057 2-2.057h7.142c1.104 0 2 .922 2 2.057v.686c0 1.136-.896 2.057-2 2.057"/></g></g><g><path fill="#fff" d="M49.135 36.25H18.79c-.773 0-1.4-.645-1.4-1.44 0-.795.627-1.44 1.4-1.44h30.345c.772 0 1.399.645 1.399 1.44 0 .795-.627 1.44-1.399 1.44"/></g><g><path fill="#fff" d="M49.135 61.88H18.79c-.773 0-1.4-.644-1.4-1.44 0-.795.627-1.44 1.4-1.44h30.345c.772 0 1.399.645 1.399 1.44 0 .796-.627 1.44-1.399 1.44"/></g><g><path fill="#fff" d="M49.135 53.34H18.79c-.773 0-1.4-.645-1.4-1.44 0-.795.627-1.44 1.4-1.44h30.345c.772 0 1.399.645 1.399 1.44 0 .795-.627 1.44-1.399 1.44"/></g><g><path fill="#fff" d="M49.135 44.79H18.79c-.773 0-1.4-.645-1.4-1.44 0-.795.627-1.44 1.4-1.44h30.345c.772 0 1.399.645 1.399 1.44 0 .795-.627 1.44-1.399 1.44"/></g><g><g/><g clip-path="url(#ui5zd)"><path fill="#6b6b6b" d="M9.142 50.34H2c-1.104 0-2-.921-2-2.057v-.686c0-1.135.896-2.057 2-2.057h7.142c1.104 0 2 .922 2 2.057v.686c0 1.136-.896 2.057-2 2.057"/></g></g><g><path fill="#fff" d="M32.032 27.83H21.32c-1.657 0-3-1.381-3-3.086V10.756c0-1.705 1.343-3.086 3-3.086h10.712c1.657 0 3 1.381 3 3.086v13.988c0 1.705-1.343 3.086-3 3.086z"/></g></g></g></svg>