<svg xmlns="http://www.w3.org/2000/svg" width="16" height="16" viewBox="0 0 16 16"><g><g><path fill="#999" d="M9.44 12.194c-3.181-.477-5.184-3.635-5.8-5.237-.612-1.59.478-3.367 1.14-3.367.61 0 1.172 1.677 1.206 1.925 0 .164-.054.39-.685 1.024a.307.307 0 0 0-.09.219c0 1.625 3.493 3.88 4.1 3.88.739 0 1.239-1.465 1.643-1.465.202 0 .654.362 1.057.657.402.294.756.52.756.724 0 .44-.874 2.01-3.327 1.64M8 16c-1.467 0-2.898-.4-4.149-1.158L.203 15.968l.263-.966c.196-.72.542-1.983.76-2.744A7.961 7.961 0 0 1 0 8c0-4.41 3.589-8 8-8 4.41 0 8 3.59 8 8 0 4.411-3.59 8-8 8m-4.112-2.279a.87.87 0 0 1 .471.137 6.838 6.838 0 0 0 3.635 1.044c3.788 0 6.869-3.096 6.869-6.902s-3.081-6.902-6.869-6.902C4.207 1.098 1.126 4.194 1.126 8a6.9 6.9 0 0 0 1.107 3.76.856.856 0 0 1 .102.704c-.137.475-.336 1.198-.516 1.854l1.809-.559a.885.885 0 0 1 .26-.038M1.254 12.161"/></g></g></svg>